<svg width="229" height="159" viewBox="0 0 229 159" fill="none" xmlns="http://www.w3.org/2000/svg">
<path d="M129.529 21.525C114.85 21.545 100.722 17.384 87.2081 12.761C73.6941 8.13805 60.2841 2.96105 45.8781 0.769048C36.6131 -0.640952 26.0781 -0.510952 18.8361 4.60805C11.8651 9.53305 9.84609 17.684 8.87209 25.215C8.14009 30.88 7.80209 36.826 10.5451 42.008C12.4451 45.608 15.7091 48.5711 18.0071 51.9991C26.0271 63.9261 21.2071 79.163 13.4071 91.3671C9.75309 97.0931 5.47209 102.582 2.70709 108.636C-0.0579069 114.69 -1.19291 121.555 1.62909 127.531C4.42109 133.453 10.7291 137.752 17.4981 140.688C31.2441 146.662 47.2481 147.942 62.8221 148.435C97.2961 149.529 131.838 147.298 166.287 145.067C179.035 144.242 191.84 143.412 204.325 141.022C211.257 139.696 218.395 137.729 223.31 133.417C229.549 127.942 230.825 119.004 226.285 112.578C218.672 101.801 198.597 99.7691 193.138 88.1091C190.128 81.6901 192.724 74.3281 196.547 68.1401C204.747 54.8641 218.862 42.971 219.1 28.122C219.263 17.922 211.923 7.97705 200.96 3.54505C189.469 -1.09695 173.8 0.0970497 165.749 8.74505C157.474 17.661 142.49 21.511 129.529 21.525Z" fill="#3B8EFF"/>
<path d="M194.901 126.729C194.193 126.28 193.388 126.005 192.554 125.925C191.719 125.846 190.877 125.964 190.096 126.27C190.096 126.27 190.832 127.688 193.86 127.554L194.901 126.729Z" fill="#6C63FF"/>
<path d="M195.208 126.814C195.406 127.629 195.409 128.48 195.216 129.297C195.024 130.113 194.641 130.873 194.1 131.514C194.1 131.514 192.992 130.361 194.1 127.538L195.208 126.814Z" fill="#6C63FF"/>
<path d="M198.208 124.13C198.208 124.13 198.029 121.752 192.659 122.541C192.701 123.063 192.902 123.559 193.235 123.963C193.567 124.367 194.015 124.659 194.519 124.801C195.123 125.107 195.81 125.208 196.477 125.087C197.143 124.965 197.751 124.629 198.208 124.13V124.13Z" fill="#6C63FF"/>
<path d="M198.546 124.114C198.546 124.114 200.816 124.843 198.791 129.879C198.293 129.716 197.857 129.404 197.541 128.986C197.225 128.568 197.045 128.064 197.024 127.54C196.865 126.881 196.928 126.188 197.204 125.569C197.479 124.949 197.951 124.438 198.546 124.114Z" fill="#6C63FF"/>
<path d="M201.578 120.74C201.578 120.74 201.886 116.826 196.398 117.227C196.398 117.227 196.005 120.762 200.61 121.681L201.578 120.74Z" fill="#6C63FF"/>
<path d="M205.205 116.322C205.205 116.322 204.453 111.886 198.966 113.208C198.966 113.208 198.946 117.043 204.309 117.379L205.205 116.322Z" fill="#6C63FF"/>
<path d="M207.856 111.754C207.856 111.754 206.595 107.434 201.156 108.726C201.156 108.726 202.45 112.612 207.491 112.551L207.856 111.754Z" fill="#0042A3"/>
<path d="M210.373 107.293C210.373 107.293 209.142 102.81 203.893 104.151C203.893 104.151 205.645 108.41 210.026 108.051L210.373 107.293Z" fill="#0042A3"/>
<path d="M211.995 103.055C211.995 103.055 211.048 97.5721 206.155 98.7861C206.155 98.7861 207.577 103.774 211.636 103.854L211.995 103.055Z" fill="#0042A3"/>
<path d="M213.517 97.936C213.517 97.936 212.38 92.41 207.43 94.009C207.43 94.009 209.37 99.232 213.166 98.692L213.517 97.936Z" fill="#0042A3"/>
<path d="M214.452 93.172C214.452 93.172 212.652 87.644 208.82 87.794C208.82 87.794 210.664 93.632 214.132 94.274L214.452 93.172Z" fill="#0042A3"/>
<path d="M215.059 88.522C215.059 88.522 213.095 81.869 209.981 82.381C209.981 82.381 211.34 87.467 214.949 89.558L215.059 88.522Z" fill="#0042A3"/>
<path d="M215.398 82.9741C215.398 82.9741 213.556 77.4301 210.489 77.2091C210.489 77.2091 211.742 82.6641 215.337 84.4161L215.398 82.9741Z" fill="#0042A3"/>
<path d="M215.769 77.7981C215.769 77.7981 213.469 72.249 211.449 72.123C211.449 72.123 212.449 77.588 215.573 78.709L215.769 77.7981Z" fill="#0042A3"/>
<path d="M216.022 72.9831C216.022 72.9831 214.61 66.9561 212.582 66.4561C212.582 66.4561 212.859 71.3871 215.818 73.4351L216.022 72.9831Z" fill="#0042A3"/>
<path d="M216.791 66.6771C216.791 66.6771 215.307 61.872 213.663 61.139C213.663 61.139 213.987 66.804 216.412 67.851L216.791 66.6771Z" fill="#0042A3"/>
<path d="M217.423 62.5521L217.723 54.0811C217.723 54.0811 214.65 60.4671 217.203 64.0391L217.423 62.5521Z" fill="#0042A3"/>
<path d="M219.795 54.126C219.795 54.126 222.008 47.94 222.544 47.595C222.544 47.595 218.204 51.609 218.628 56.771L219.795 54.126Z" fill="#0042A3"/>
<path d="M201.727 120.711C201.727 120.711 205.619 120.202 205.503 125.703C205.503 125.703 201.986 126.276 200.837 121.727L201.727 120.711Z" fill="#6C63FF"/>
<path d="M205.389 116.173C205.389 116.173 209.889 116.159 209.513 121.789C209.513 121.789 205.737 122.465 204.492 117.237L205.389 116.173Z" fill="#0042A3"/>
<path d="M207.899 112.118C207.899 112.118 211.981 110.203 214.593 115.146C214.593 115.146 210.823 116.74 207.537 112.917L207.899 112.118Z" fill="#0042A3"/>
<path d="M210.464 107.33C210.464 107.33 214.645 105.294 217.099 110.12C217.099 110.12 212.744 111.62 210.118 108.094L210.464 107.33Z" fill="#0042A3"/>
<path d="M211.943 103.175C211.943 103.175 215.966 99.3321 219.177 103.218C219.177 103.218 215.067 106.381 211.758 104.031L211.943 103.175Z" fill="#0042A3"/>
<path d="M213.289 97.805C213.289 97.805 217.336 93.878 220.521 97.986C220.521 97.986 215.979 101.212 213.143 98.63L213.289 97.805Z" fill="#0042A3"/>
<path d="M214.045 93.015C214.045 93.015 217.163 88.106 220.835 89.202C220.835 89.202 217.599 94.402 214.08 94.168L214.045 93.015Z" fill="#0042A3"/>
<path d="M214.965 88.491C214.965 88.491 218.107 82.309 221.08 83.385C221.08 83.385 218.814 88.137 214.88 89.533L214.965 88.491Z" fill="#0042A3"/>
<path d="M215.182 82.653C215.182 82.653 218.412 77.787 221.438 78.382C221.438 78.382 218.797 83.317 214.868 84.061L215.182 82.653Z" fill="#0042A3"/>
<path d="M215.434 77.6901C215.434 77.6901 217.934 72.2291 219.972 72.1901C219.972 72.1901 218.772 77.6121 215.603 78.6151L215.434 77.6901Z" fill="#0042A3"/>
<path d="M215.925 72.865C215.925 72.865 218.707 67.335 220.799 67.323C220.799 67.323 219.375 72.052 216.018 73.35L215.925 72.865Z" fill="#0042A3"/>
<path d="M216.343 67.0221C216.343 67.0221 218.424 62.4471 220.149 61.9281C220.149 61.9281 219.108 67.5051 216.573 68.2351L216.343 67.0221Z" fill="#0042A3"/>
<path d="M217.67 62.3861L222.322 55.2991C222.322 55.2991 221.13 62.2901 216.99 63.7431L217.67 62.3861Z" fill="#0042A3"/>
<path d="M220.863 54.698C220.863 54.698 226.269 50.967 226.463 50.364C226.463 50.364 223.714 55.589 218.608 56.512L220.863 54.698Z" fill="#0042A3"/>
<path d="M221.187 53.019C221.187 53.019 227.394 47.051 228.979 47.057C227.288 47.2548 225.674 47.8756 224.286 48.862C222.898 49.8485 221.781 51.1688 221.038 52.701L221.187 53.019Z" fill="#0042A3"/>
<path d="M216.404 67.9081L216.63 67.9371C217.796 58.8081 219.497 53.406 221.417 52.744L221.342 52.5281C219.306 53.2351 217.594 58.5551 216.404 67.9081Z" fill="#0042A3"/>
<path d="M214.688 89.74L215.03 89.767C215.103 88.915 215.158 88.043 215.195 87.173C215.521 79.617 216.026 72.673 216.69 67.473L216.49 67.228C215.824 72.442 215.176 79.589 214.85 87.157C214.816 88.023 214.761 88.891 214.688 89.74Z" fill="#0042A3"/>
<path d="M188.531 131.085C193.133 128.781 197.3 125.697 200.847 121.968C204.503 118.216 207.541 113.908 209.847 109.204C212.793 102.87 214.567 96.0545 215.082 89.088L214.727 89.255C213.876 101.362 208.859 112.801 200.527 121.626C197.02 125.319 192.899 128.375 188.347 130.658L188.531 131.085Z" fill="#444053"/>
<path d="M204.105 16.738H15.419C14.9732 16.738 14.5456 16.9151 14.2304 17.2304C13.9151 17.5456 13.738 17.9732 13.738 18.419V23.319H205.786V18.419C205.786 17.9732 205.609 17.5456 205.294 17.2304C204.978 16.9151 204.551 16.738 204.105 16.738Z" fill="#3C3946"/>
<path d="M13.738 23.316V133.526C13.738 134.425 14.0951 135.287 14.7307 135.922C15.3662 136.558 16.2282 136.915 17.127 136.915H202.397C203.296 136.915 204.158 136.558 204.793 135.922C205.429 135.287 205.786 134.425 205.786 133.526V23.316H13.738Z" fill="white"/>
<path opacity="0.8" d="M16.7791 20.762C17.2127 20.762 17.5641 20.4106 17.5641 19.977C17.5641 19.5435 17.2127 19.192 16.7791 19.192C16.3456 19.192 15.9941 19.5435 15.9941 19.977C15.9941 20.4106 16.3456 20.762 16.7791 20.762Z" fill="#FA5959"/>
<path opacity="0.8" d="M18.9391 20.762C19.3726 20.762 19.7241 20.4106 19.7241 19.977C19.7241 19.5435 19.3726 19.192 18.9391 19.192C18.5055 19.192 18.1541 19.5435 18.1541 19.977C18.1541 20.4106 18.5055 20.762 18.9391 20.762Z" fill="#FED253"/>
<path opacity="0.8" d="M21.0992 20.762C21.5328 20.762 21.8842 20.4106 21.8842 19.977C21.8842 19.5435 21.5328 19.192 21.0992 19.192C20.6657 19.192 20.3142 19.5435 20.3142 19.977C20.3142 20.4106 20.6657 20.762 21.0992 20.762Z" fill="#8CCF4D"/>
<path opacity="0.05" d="M185.935 41.692H31.5901V109.561H185.935V41.692Z" fill="black"/>
<path d="M32.7681 42.207H184.757V108.579H32.7681V42.207Z" fill="#3C3946"/>
<path d="M74.2011 59.2891C71.2106 59.2891 68.2873 60.1758 65.8008 61.8372C63.3144 63.4987 61.3764 65.8601 60.232 68.6229C59.0876 71.3857 58.7882 74.4258 59.3716 77.3588C59.955 80.2918 61.395 82.986 63.5096 85.1005C65.6242 87.2151 68.3183 88.6551 71.2513 89.2385C74.1843 89.8219 77.2244 89.5225 79.9872 88.3781C82.7501 87.2337 85.1115 85.2957 86.7729 82.8093C88.4343 80.3228 89.3211 77.3995 89.3211 74.4091C89.3211 70.399 87.7281 66.5531 84.8925 63.7176C82.057 60.882 78.2111 59.2891 74.2011 59.2891V59.2891ZM76.9131 74.7731V81.933H71.5681V74.7731C70.8284 74.2132 70.2832 73.4351 70.0096 72.5487C69.7359 71.6623 69.7476 70.7123 70.0429 69.8329C70.3382 68.9535 70.9023 68.189 71.6555 67.6474C72.4086 67.1058 73.3129 66.8145 74.2406 66.8145C75.1683 66.8145 76.0725 67.1058 76.8257 67.6474C77.5788 68.189 78.1429 68.9535 78.4382 69.8329C78.7335 70.7123 78.7452 71.6623 78.4715 72.5487C78.1979 73.4351 77.6527 74.2132 76.9131 74.7731V74.7731Z" fill="#6C63FF"/>
<path opacity="0.76" d="M74.2011 59.2891C71.2106 59.2891 68.2873 60.1758 65.8008 61.8372C63.3144 63.4987 61.3764 65.8601 60.232 68.6229C59.0876 71.3857 58.7882 74.4258 59.3716 77.3588C59.955 80.2918 61.395 82.986 63.5096 85.1005C65.6242 87.2151 68.3183 88.6551 71.2513 89.2385C74.1843 89.8219 77.2244 89.5225 79.9872 88.3781C82.7501 87.2337 85.1115 85.2957 86.7729 82.8093C88.4343 80.3228 89.3211 77.3995 89.3211 74.4091C89.3211 70.399 87.7281 66.5531 84.8925 63.7176C82.057 60.882 78.2111 59.2891 74.2011 59.2891V59.2891ZM76.9131 74.7731V81.933H71.5681V74.7731C70.8284 74.2132 70.2832 73.4351 70.0096 72.5487C69.7359 71.6623 69.7476 70.7123 70.0429 69.8329C70.3382 68.9535 70.9023 68.189 71.6555 67.6474C72.4086 67.1058 73.3129 66.8145 74.2406 66.8145C75.1683 66.8145 76.0725 67.1058 76.8257 67.6474C77.5788 68.189 78.1429 68.9535 78.4382 69.8329C78.7335 70.7123 78.7452 71.6623 78.4715 72.5487C78.1979 73.4351 77.6527 74.2132 76.9131 74.7731V74.7731Z" fill="white"/>
<path d="M74.201 54.969C70.3561 54.969 66.5976 56.1091 63.4007 58.2452C60.2038 60.3813 57.7122 63.4174 56.2408 66.9696C54.7694 70.5218 54.3844 74.4305 55.1345 78.2015C55.8846 81.9725 57.7361 85.4364 60.4548 88.1552C63.1736 90.8739 66.6374 92.7254 70.4084 93.4755C74.1794 94.2256 78.0882 93.8406 81.6404 92.3692C85.1925 90.8978 88.2287 88.4062 90.3647 85.2093C92.5008 82.0124 93.641 78.2539 93.641 74.409C93.641 69.2532 91.5929 64.3085 87.9471 60.6628C84.3014 57.0171 79.3568 54.969 74.201 54.969V54.969ZM77.687 74.877V84.077H70.814V74.877C69.8625 74.157 69.1612 73.1563 68.8091 72.0163C68.457 70.8762 68.4719 69.6543 68.8516 68.5232C69.2314 67.392 69.9568 66.4087 70.9255 65.7121C71.8942 65.0155 73.0573 64.6407 74.2505 64.6407C75.4437 64.6407 76.6068 65.0155 77.5755 65.7121C78.5442 66.4087 79.2696 67.392 79.6494 68.5232C80.0291 69.6543 80.044 70.8762 79.6919 72.0163C79.3398 73.1563 78.6385 74.157 77.687 74.877V74.877Z" fill="#0042A3"/>
<path d="M164.531 71.858H101.693V78.535H164.531V71.858Z" fill="white"/>
<path d="M164.531 84.0331H150.982V90.7101H164.531V84.0331Z" fill="#3B8EFF"/>
<path d="M107.878 75.0971H106.741L107.752 74.0881C107.77 74.0694 107.78 74.0445 107.78 74.0186C107.78 73.9927 107.77 73.9677 107.752 73.9491C107.733 73.931 107.709 73.921 107.683 73.921C107.657 73.921 107.632 73.931 107.613 73.9491L106.602 74.9601V73.8211C106.602 73.7946 106.592 73.7691 106.573 73.7504C106.554 73.7316 106.529 73.7211 106.502 73.7211C106.476 73.7211 106.45 73.7316 106.431 73.7504C106.413 73.7691 106.402 73.7946 106.402 73.8211V74.9601L105.393 73.9431C105.374 73.9251 105.35 73.915 105.324 73.915C105.298 73.915 105.273 73.9251 105.254 73.9431C105.236 73.9617 105.226 73.9866 105.226 74.0126C105.226 74.0385 105.236 74.0634 105.254 74.0821L106.265 75.0911H105.126C105.113 75.0911 105.1 75.0937 105.088 75.0987C105.076 75.1037 105.065 75.1111 105.055 75.1204C105.046 75.1296 105.039 75.1407 105.034 75.1528C105.029 75.1649 105.026 75.1779 105.026 75.1911C105.026 75.2042 105.029 75.2172 105.034 75.2293C105.039 75.2415 105.046 75.2525 105.055 75.2618C105.065 75.2711 105.076 75.2784 105.088 75.2834C105.1 75.2885 105.113 75.2911 105.126 75.2911H106.265L105.254 76.3021C105.236 76.3207 105.226 76.3456 105.226 76.3716C105.226 76.3975 105.236 76.4224 105.254 76.4411C105.273 76.4591 105.298 76.4692 105.324 76.4692C105.35 76.4692 105.374 76.4591 105.393 76.4411L106.402 75.4301V76.5671C106.402 76.5936 106.413 76.619 106.431 76.6378C106.45 76.6565 106.476 76.6671 106.502 76.6671C106.529 76.6671 106.554 76.6565 106.573 76.6378C106.592 76.619 106.602 76.5936 106.602 76.5671V75.4301L107.613 76.4411C107.632 76.4591 107.657 76.4692 107.683 76.4692C107.709 76.4692 107.733 76.4591 107.752 76.4411C107.77 76.4224 107.78 76.3975 107.78 76.3716C107.78 76.3456 107.77 76.3207 107.752 76.3021L106.741 75.2911H107.878C107.893 75.296 107.909 75.2973 107.925 75.2949C107.94 75.2925 107.955 75.2863 107.968 75.2771C107.981 75.2678 107.991 75.2556 107.998 75.2415C108.006 75.2275 108.009 75.2119 108.009 75.1961C108.009 75.1803 108.006 75.1647 107.998 75.1506C107.991 75.1365 107.981 75.1244 107.968 75.1151C107.955 75.1058 107.94 75.0997 107.925 75.0973C107.909 75.0948 107.893 75.0961 107.878 75.1011V75.0971Z" fill="#3B8EFF"/>
<path d="M112.002 75.0971H110.865L111.876 74.0881C111.894 74.0694 111.904 74.0445 111.904 74.0186C111.904 73.9927 111.894 73.9677 111.876 73.9491C111.857 73.931 111.833 73.921 111.807 73.921C111.781 73.921 111.756 73.931 111.737 73.9491L110.726 74.9601V73.8211C110.726 73.7946 110.716 73.7691 110.697 73.7504C110.678 73.7316 110.653 73.7211 110.626 73.7211C110.6 73.7211 110.574 73.7316 110.555 73.7504C110.537 73.7691 110.526 73.7946 110.526 73.8211V74.9601L109.517 73.9431C109.499 73.9251 109.474 73.915 109.448 73.915C109.422 73.915 109.397 73.9251 109.378 73.9431C109.36 73.9617 109.35 73.9866 109.35 74.0126C109.35 74.0385 109.36 74.0634 109.378 74.0821L110.389 75.0911H109.25C109.237 75.0911 109.224 75.0937 109.212 75.0987C109.2 75.1037 109.189 75.1111 109.179 75.1204C109.17 75.1296 109.163 75.1407 109.158 75.1528C109.153 75.1649 109.15 75.1779 109.15 75.1911C109.15 75.2042 109.153 75.2172 109.158 75.2293C109.163 75.2415 109.17 75.2525 109.179 75.2618C109.189 75.2711 109.2 75.2784 109.212 75.2834C109.224 75.2885 109.237 75.2911 109.25 75.2911H110.389L109.378 76.3021C109.36 76.3207 109.35 76.3456 109.35 76.3716C109.35 76.3975 109.36 76.4224 109.378 76.4411C109.397 76.4591 109.422 76.4692 109.448 76.4692C109.474 76.4692 109.499 76.4591 109.517 76.4411L110.526 75.4301V76.5671C110.526 76.5936 110.537 76.619 110.555 76.6378C110.574 76.6565 110.6 76.6671 110.626 76.6671C110.653 76.6671 110.678 76.6565 110.697 76.6378C110.716 76.619 110.726 76.5936 110.726 76.5671V75.4301L111.737 76.4411C111.756 76.4591 111.781 76.4692 111.807 76.4692C111.833 76.4692 111.857 76.4591 111.876 76.4411C111.894 76.4224 111.904 76.3975 111.904 76.3716C111.904 76.3456 111.894 76.3207 111.876 76.3021L110.865 75.2911H112.002C112.017 75.296 112.033 75.2973 112.049 75.2949C112.064 75.2925 112.079 75.2863 112.092 75.2771C112.105 75.2678 112.115 75.2556 112.122 75.2415C112.13 75.2275 112.133 75.2119 112.133 75.1961C112.133 75.1803 112.13 75.1647 112.122 75.1506C112.115 75.1365 112.105 75.1244 112.092 75.1151C112.079 75.1058 112.064 75.0997 112.049 75.0973C112.033 75.0948 112.017 75.0961 112.002 75.1011V75.0971Z" fill="#3B8EFF"/>
<path d="M116.126 75.0971H114.989L116 74.0881C116.018 74.0694 116.028 74.0445 116.028 74.0186C116.028 73.9927 116.018 73.9677 116 73.9491C115.981 73.931 115.957 73.921 115.931 73.921C115.905 73.921 115.88 73.931 115.861 73.9491L114.85 74.9601V73.8211C114.85 73.7946 114.84 73.7691 114.821 73.7504C114.802 73.7316 114.777 73.7211 114.75 73.7211C114.724 73.7211 114.698 73.7316 114.679 73.7504C114.661 73.7691 114.65 73.7946 114.65 73.8211V74.9601L113.641 73.9431C113.623 73.9251 113.598 73.915 113.572 73.915C113.546 73.915 113.521 73.9251 113.502 73.9431C113.484 73.9617 113.474 73.9866 113.474 74.0126C113.474 74.0385 113.484 74.0634 113.502 74.0821L114.513 75.0911H113.374C113.361 75.0911 113.348 75.0937 113.336 75.0987C113.324 75.1037 113.313 75.1111 113.303 75.1204C113.294 75.1296 113.287 75.1407 113.282 75.1528C113.277 75.1649 113.274 75.1779 113.274 75.1911C113.274 75.2042 113.277 75.2172 113.282 75.2293C113.287 75.2415 113.294 75.2525 113.303 75.2618C113.313 75.2711 113.324 75.2784 113.336 75.2834C113.348 75.2885 113.361 75.2911 113.374 75.2911H114.513L113.502 76.3021C113.484 76.3207 113.474 76.3456 113.474 76.3716C113.474 76.3975 113.484 76.4224 113.502 76.4411C113.521 76.4591 113.546 76.4692 113.572 76.4692C113.598 76.4692 113.623 76.4591 113.641 76.4411L114.65 75.4301V76.5671C114.65 76.5936 114.661 76.619 114.679 76.6378C114.698 76.6565 114.724 76.6671 114.75 76.6671C114.777 76.6671 114.802 76.6565 114.821 76.6378C114.84 76.619 114.85 76.5936 114.85 76.5671V75.4301L115.861 76.4411C115.88 76.4591 115.905 76.4692 115.931 76.4692C115.957 76.4692 115.981 76.4591 116 76.4411C116.018 76.4224 116.028 76.3975 116.028 76.3716C116.028 76.3456 116.018 76.3207 116 76.3021L114.989 75.2911H116.126C116.141 75.296 116.157 75.2973 116.173 75.2949C116.188 75.2925 116.203 75.2863 116.216 75.2771C116.229 75.2678 116.239 75.2556 116.246 75.2415C116.254 75.2275 116.257 75.2119 116.257 75.1961C116.257 75.1803 116.254 75.1647 116.246 75.1506C116.239 75.1365 116.229 75.1244 116.216 75.1151C116.203 75.1058 116.188 75.0997 116.173 75.0973C116.157 75.0948 116.141 75.0961 116.126 75.1011V75.0971Z" fill="#3B8EFF"/>
<path d="M120.25 75.0971H119.113L120.124 74.0881C120.142 74.0694 120.152 74.0445 120.152 74.0186C120.152 73.9927 120.142 73.9677 120.124 73.9491C120.105 73.931 120.081 73.921 120.055 73.921C120.029 73.921 120.004 73.931 119.985 73.9491L118.974 74.9601V73.8211C118.974 73.7946 118.964 73.7691 118.945 73.7504C118.926 73.7316 118.901 73.7211 118.874 73.7211C118.848 73.7211 118.822 73.7316 118.803 73.7504C118.785 73.7691 118.774 73.7946 118.774 73.8211V74.9601L117.765 73.9431C117.747 73.9251 117.722 73.915 117.696 73.915C117.67 73.915 117.645 73.9251 117.626 73.9431C117.608 73.9617 117.598 73.9866 117.598 74.0126C117.598 74.0385 117.608 74.0634 117.626 74.0821L118.637 75.0911H117.498C117.485 75.0911 117.472 75.0937 117.46 75.0987C117.448 75.1037 117.437 75.1111 117.427 75.1204C117.418 75.1296 117.411 75.1407 117.406 75.1528C117.401 75.1649 117.398 75.1779 117.398 75.1911C117.398 75.2042 117.401 75.2172 117.406 75.2293C117.411 75.2415 117.418 75.2525 117.427 75.2618C117.437 75.2711 117.448 75.2784 117.46 75.2834C117.472 75.2885 117.485 75.2911 117.498 75.2911H118.637L117.626 76.3021C117.608 76.3207 117.598 76.3456 117.598 76.3716C117.598 76.3975 117.608 76.4224 117.626 76.4411C117.645 76.4591 117.67 76.4692 117.696 76.4692C117.722 76.4692 117.747 76.4591 117.765 76.4411L118.774 75.4301V76.5671C118.774 76.5936 118.785 76.619 118.803 76.6378C118.822 76.6565 118.848 76.6671 118.874 76.6671C118.901 76.6671 118.926 76.6565 118.945 76.6378C118.964 76.619 118.974 76.5936 118.974 76.5671V75.4301L119.985 76.4411C120.004 76.4591 120.029 76.4692 120.055 76.4692C120.081 76.4692 120.105 76.4591 120.124 76.4411C120.142 76.4224 120.152 76.3975 120.152 76.3716C120.152 76.3456 120.142 76.3207 120.124 76.3021L119.113 75.2911H120.25C120.265 75.296 120.281 75.2973 120.297 75.2949C120.312 75.2925 120.327 75.2863 120.34 75.2771C120.353 75.2678 120.363 75.2556 120.37 75.2415C120.378 75.2275 120.381 75.2119 120.381 75.1961C120.381 75.1803 120.378 75.1647 120.37 75.1506C120.363 75.1365 120.353 75.1244 120.34 75.1151C120.327 75.1058 120.312 75.0997 120.297 75.0973C120.281 75.0948 120.265 75.0961 120.25 75.1011V75.0971Z" fill="#3B8EFF"/>
<path d="M124.373 75.0971H123.236L124.247 74.0881C124.265 74.0694 124.275 74.0445 124.275 74.0186C124.275 73.9927 124.265 73.9677 124.247 73.9491C124.228 73.931 124.203 73.921 124.177 73.921C124.152 73.921 124.127 73.931 124.108 73.9491L123.097 74.9601V73.8211C123.097 73.7946 123.086 73.7691 123.068 73.7504C123.049 73.7316 123.023 73.7211 122.997 73.7211C122.97 73.7211 122.945 73.7316 122.926 73.7504C122.908 73.7691 122.897 73.7946 122.897 73.8211V74.9601L121.888 73.9431C121.869 73.9251 121.844 73.915 121.818 73.915C121.793 73.915 121.768 73.9251 121.749 73.9431C121.731 73.9617 121.721 73.9866 121.721 74.0126C121.721 74.0385 121.731 74.0634 121.749 74.0821L122.76 75.0911H121.621C121.608 75.0911 121.595 75.0937 121.583 75.0987C121.571 75.1037 121.56 75.1111 121.55 75.1204C121.541 75.1296 121.534 75.1407 121.529 75.1528C121.524 75.1649 121.521 75.1779 121.521 75.1911C121.521 75.2042 121.524 75.2172 121.529 75.2293C121.534 75.2415 121.541 75.2525 121.55 75.2618C121.56 75.2711 121.571 75.2784 121.583 75.2834C121.595 75.2885 121.608 75.2911 121.621 75.2911H122.76L121.749 76.3021C121.731 76.3207 121.721 76.3456 121.721 76.3716C121.721 76.3975 121.731 76.4224 121.749 76.4411C121.768 76.4591 121.793 76.4692 121.818 76.4692C121.844 76.4692 121.869 76.4591 121.888 76.4411L122.897 75.4301V76.5671C122.897 76.5936 122.908 76.619 122.926 76.6378C122.945 76.6565 122.97 76.6671 122.997 76.6671C123.023 76.6671 123.049 76.6565 123.068 76.6378C123.086 76.619 123.097 76.5936 123.097 76.5671V75.4301L124.108 76.4411C124.127 76.4591 124.152 76.4692 124.177 76.4692C124.203 76.4692 124.228 76.4591 124.247 76.4411C124.265 76.4224 124.275 76.3975 124.275 76.3716C124.275 76.3456 124.265 76.3207 124.247 76.3021L123.236 75.2911H124.373C124.388 75.296 124.404 75.2973 124.42 75.2949C124.435 75.2925 124.45 75.2863 124.463 75.2771C124.476 75.2678 124.486 75.2556 124.493 75.2415C124.5 75.2275 124.504 75.2119 124.504 75.1961C124.504 75.1803 124.5 75.1647 124.493 75.1506C124.486 75.1365 124.476 75.1244 124.463 75.1151C124.45 75.1058 124.435 75.0997 124.42 75.0973C124.404 75.0948 124.388 75.0961 124.373 75.1011V75.0971Z" fill="#3B8EFF"/>
<path d="M128.497 75.0971H127.36L128.371 74.0881C128.389 74.0694 128.399 74.0445 128.399 74.0186C128.399 73.9927 128.389 73.9677 128.371 73.9491C128.352 73.931 128.327 73.921 128.302 73.921C128.276 73.921 128.251 73.931 128.232 73.9491L127.221 74.9601V73.8211C127.221 73.7946 127.21 73.7691 127.192 73.7504C127.173 73.7316 127.147 73.7211 127.121 73.7211C127.094 73.7211 127.069 73.7316 127.05 73.7504C127.032 73.7691 127.021 73.7946 127.021 73.8211V74.9601L126.012 73.9431C125.993 73.9251 125.968 73.915 125.943 73.915C125.917 73.915 125.892 73.9251 125.873 73.9431C125.855 73.9617 125.845 73.9866 125.845 74.0126C125.845 74.0385 125.855 74.0634 125.873 74.0821L126.884 75.0911H125.745C125.732 75.0911 125.719 75.0937 125.707 75.0987C125.695 75.1037 125.684 75.1111 125.674 75.1204C125.665 75.1296 125.658 75.1407 125.653 75.1528C125.648 75.1649 125.645 75.1779 125.645 75.1911C125.645 75.2042 125.648 75.2172 125.653 75.2293C125.658 75.2415 125.665 75.2525 125.674 75.2618C125.684 75.2711 125.695 75.2784 125.707 75.2834C125.719 75.2885 125.732 75.2911 125.745 75.2911H126.884L125.873 76.3021C125.855 76.3207 125.845 76.3456 125.845 76.3716C125.845 76.3975 125.855 76.4224 125.873 76.4411C125.892 76.4591 125.917 76.4692 125.943 76.4692C125.968 76.4692 125.993 76.4591 126.012 76.4411L127.021 75.4301V76.5671C127.021 76.5936 127.032 76.619 127.05 76.6378C127.069 76.6565 127.094 76.6671 127.121 76.6671C127.147 76.6671 127.173 76.6565 127.192 76.6378C127.21 76.619 127.221 76.5936 127.221 76.5671V75.4301L128.232 76.4411C128.251 76.4591 128.276 76.4692 128.302 76.4692C128.327 76.4692 128.352 76.4591 128.371 76.4411C128.389 76.4224 128.399 76.3975 128.399 76.3716C128.399 76.3456 128.389 76.3207 128.371 76.3021L127.36 75.2911H128.497C128.512 75.296 128.528 75.2973 128.544 75.2949C128.559 75.2925 128.574 75.2863 128.587 75.2771C128.6 75.2678 128.61 75.2556 128.617 75.2415C128.624 75.2275 128.628 75.2119 128.628 75.1961C128.628 75.1803 128.624 75.1647 128.617 75.1506C128.61 75.1365 128.6 75.1244 128.587 75.1151C128.574 75.1058 128.559 75.0997 128.544 75.0973C128.528 75.0948 128.512 75.0961 128.497 75.1011V75.0971Z" fill="#3B8EFF"/>
<path d="M132.621 75.0971H131.484L132.495 74.0881C132.513 74.0694 132.523 74.0445 132.523 74.0186C132.523 73.9927 132.513 73.9677 132.495 73.9491C132.476 73.931 132.451 73.921 132.426 73.921C132.4 73.921 132.375 73.931 132.356 73.9491L131.345 74.9601V73.8211C131.345 73.7946 131.334 73.7691 131.316 73.7504C131.297 73.7316 131.272 73.7211 131.245 73.7211C131.218 73.7211 131.193 73.7316 131.174 73.7504C131.156 73.7691 131.145 73.7946 131.145 73.8211V74.9601L130.136 73.9431C130.117 73.9251 130.092 73.915 130.067 73.915C130.041 73.915 130.016 73.9251 129.997 73.9431C129.979 73.9617 129.969 73.9866 129.969 74.0126C129.969 74.0385 129.979 74.0634 129.997 74.0821L131.008 75.0911H129.869C129.856 75.0911 129.843 75.0937 129.831 75.0987C129.819 75.1037 129.808 75.1111 129.798 75.1204C129.789 75.1296 129.782 75.1407 129.777 75.1528C129.772 75.1649 129.769 75.1779 129.769 75.1911C129.769 75.2042 129.772 75.2172 129.777 75.2293C129.782 75.2415 129.789 75.2525 129.798 75.2618C129.808 75.2711 129.819 75.2784 129.831 75.2834C129.843 75.2885 129.856 75.2911 129.869 75.2911H131.008L129.997 76.3021C129.979 76.3207 129.969 76.3456 129.969 76.3716C129.969 76.3975 129.979 76.4224 129.997 76.4411C130.016 76.4591 130.041 76.4692 130.067 76.4692C130.092 76.4692 130.117 76.4591 130.136 76.4411L131.145 75.4301V76.5671C131.145 76.5936 131.156 76.619 131.174 76.6378C131.193 76.6565 131.218 76.6671 131.245 76.6671C131.272 76.6671 131.297 76.6565 131.316 76.6378C131.334 76.619 131.345 76.5936 131.345 76.5671V75.4301L132.356 76.4411C132.375 76.4591 132.4 76.4692 132.426 76.4692C132.451 76.4692 132.476 76.4591 132.495 76.4411C132.513 76.4224 132.523 76.3975 132.523 76.3716C132.523 76.3456 132.513 76.3207 132.495 76.3021L131.484 75.2911H132.621C132.636 75.296 132.652 75.2973 132.668 75.2949C132.683 75.2925 132.698 75.2863 132.711 75.2771C132.724 75.2678 132.734 75.2556 132.741 75.2415C132.749 75.2275 132.752 75.2119 132.752 75.1961C132.752 75.1803 132.749 75.1647 132.741 75.1506C132.734 75.1365 132.724 75.1244 132.711 75.1151C132.698 75.1058 132.683 75.0997 132.668 75.0973C132.652 75.0948 132.636 75.0961 132.621 75.1011V75.0971Z" fill="#3B8EFF"/>
<path d="M136.745 75.0971H135.608L136.619 74.0881C136.637 74.0694 136.647 74.0445 136.647 74.0186C136.647 73.9927 136.637 73.9677 136.619 73.9491C136.6 73.931 136.575 73.921 136.55 73.921C136.524 73.921 136.499 73.931 136.48 73.9491L135.469 74.9601V73.8211C135.469 73.7946 135.459 73.7691 135.44 73.7504C135.421 73.7316 135.396 73.7211 135.369 73.7211C135.342 73.7211 135.317 73.7316 135.298 73.7504C135.28 73.7691 135.269 73.7946 135.269 73.8211V74.9601L134.26 73.9431C134.241 73.9251 134.216 73.915 134.191 73.915C134.165 73.915 134.14 73.9251 134.121 73.9431C134.103 73.9617 134.093 73.9866 134.093 74.0126C134.093 74.0385 134.103 74.0634 134.121 74.0821L135.132 75.0911H133.993C133.98 75.0911 133.967 75.0937 133.955 75.0987C133.943 75.1037 133.932 75.1111 133.922 75.1204C133.913 75.1296 133.906 75.1407 133.901 75.1528C133.896 75.1649 133.893 75.1779 133.893 75.1911C133.893 75.2042 133.896 75.2172 133.901 75.2293C133.906 75.2415 133.913 75.2525 133.922 75.2618C133.932 75.2711 133.943 75.2784 133.955 75.2834C133.967 75.2885 133.98 75.2911 133.993 75.2911H135.132L134.121 76.3021C134.103 76.3207 134.093 76.3456 134.093 76.3716C134.093 76.3975 134.103 76.4224 134.121 76.4411C134.14 76.4591 134.165 76.4692 134.191 76.4692C134.216 76.4692 134.241 76.4591 134.26 76.4411L135.269 75.4301V76.5671C135.269 76.5936 135.28 76.619 135.298 76.6378C135.317 76.6565 135.342 76.6671 135.369 76.6671C135.396 76.6671 135.421 76.6565 135.44 76.6378C135.459 76.619 135.469 76.5936 135.469 76.5671V75.4301L136.48 76.4411C136.499 76.4591 136.524 76.4692 136.55 76.4692C136.575 76.4692 136.6 76.4591 136.619 76.4411C136.637 76.4224 136.647 76.3975 136.647 76.3716C136.647 76.3456 136.637 76.3207 136.619 76.3021L135.608 75.2911H136.745C136.76 75.296 136.776 75.2973 136.792 75.2949C136.807 75.2925 136.822 75.2863 136.835 75.2771C136.848 75.2678 136.858 75.2556 136.865 75.2415C136.873 75.2275 136.876 75.2119 136.876 75.1961C136.876 75.1803 136.873 75.1647 136.865 75.1506C136.858 75.1365 136.848 75.1244 136.835 75.1151C136.822 75.1058 136.807 75.0997 136.792 75.0973C136.776 75.0948 136.76 75.0961 136.745 75.1011V75.0971Z" fill="#3B8EFF"/>
<path d="M140.869 75.0971H139.732L140.743 74.0881C140.761 74.0694 140.771 74.0445 140.771 74.0186C140.771 73.9927 140.761 73.9677 140.743 73.9491C140.724 73.931 140.7 73.921 140.674 73.921C140.648 73.921 140.623 73.931 140.604 73.9491L139.593 74.9601V73.8211C139.593 73.7946 139.583 73.7691 139.564 73.7504C139.545 73.7316 139.52 73.7211 139.493 73.7211C139.467 73.7211 139.441 73.7316 139.422 73.7504C139.404 73.7691 139.393 73.7946 139.393 73.8211V74.9601L138.384 73.9431C138.365 73.9248 138.34 73.9145 138.314 73.9145C138.288 73.9145 138.263 73.9248 138.244 73.9431C138.226 73.9617 138.216 73.9866 138.216 74.0126C138.216 74.0385 138.226 74.0634 138.244 74.0821L139.255 75.0911H138.116C138.103 75.0911 138.09 75.0937 138.078 75.0987C138.066 75.1037 138.055 75.1111 138.045 75.1204C138.036 75.1296 138.029 75.1407 138.024 75.1528C138.019 75.1649 138.016 75.1779 138.016 75.1911C138.016 75.2176 138.027 75.243 138.045 75.2618C138.064 75.2805 138.09 75.2911 138.116 75.2911H139.255L138.244 76.3021C138.226 76.3207 138.216 76.3456 138.216 76.3716C138.216 76.3975 138.226 76.4224 138.244 76.4411C138.263 76.4591 138.288 76.4692 138.314 76.4692C138.34 76.4692 138.364 76.4591 138.383 76.4411L139.392 75.4301V76.5671C139.392 76.5936 139.403 76.619 139.421 76.6378C139.44 76.6565 139.466 76.6671 139.492 76.6671C139.519 76.6671 139.544 76.6565 139.563 76.6378C139.582 76.619 139.592 76.5936 139.592 76.5671V75.4301L140.603 76.4411C140.622 76.4591 140.647 76.4692 140.673 76.4692C140.699 76.4692 140.723 76.4591 140.742 76.4411C140.76 76.4224 140.77 76.3975 140.77 76.3716C140.77 76.3456 140.76 76.3207 140.742 76.3021L139.731 75.2911H140.868C140.883 75.296 140.899 75.2973 140.915 75.2949C140.93 75.2925 140.945 75.2863 140.958 75.2771C140.971 75.2678 140.981 75.2556 140.988 75.2415C140.996 75.2275 140.999 75.2119 140.999 75.1961C140.999 75.1803 140.996 75.1647 140.988 75.1506C140.981 75.1365 140.971 75.1244 140.958 75.1151C140.945 75.1058 140.93 75.0997 140.915 75.0973C140.899 75.0948 140.883 75.0961 140.868 75.1011L140.869 75.0971Z" fill="#3B8EFF"/>
<path d="M153.241 75.1021H152.104L153.115 74.0931C153.133 74.0744 153.143 74.0495 153.143 74.0236C153.143 73.9977 153.133 73.9727 153.115 73.9541C153.097 73.936 153.072 73.926 153.046 73.926C153.02 73.926 152.995 73.936 152.976 73.9541L151.965 74.9651V73.8261C151.965 73.7996 151.955 73.7741 151.936 73.7554C151.917 73.7366 151.892 73.7261 151.865 73.7261C151.839 73.7261 151.813 73.7366 151.794 73.7554C151.776 73.7741 151.765 73.7996 151.765 73.8261V74.9651L150.756 73.9481C150.738 73.9298 150.712 73.9195 150.686 73.9195C150.66 73.9195 150.635 73.9298 150.616 73.9481C150.598 73.9667 150.588 73.9916 150.588 74.0176C150.588 74.0435 150.598 74.0684 150.616 74.0871L151.627 75.0961H150.488C150.475 75.0961 150.462 75.0987 150.45 75.1037C150.438 75.1087 150.427 75.1161 150.417 75.1254C150.408 75.1347 150.401 75.1457 150.396 75.1578C150.391 75.1699 150.388 75.1829 150.388 75.1961C150.388 75.2226 150.399 75.248 150.417 75.2668C150.436 75.2855 150.462 75.2961 150.488 75.2961H151.627L150.616 76.3071C150.598 76.3257 150.588 76.3507 150.588 76.3766C150.588 76.4025 150.598 76.4274 150.616 76.4461C150.635 76.4641 150.66 76.4742 150.686 76.4742C150.712 76.4742 150.737 76.4641 150.755 76.4461L151.764 75.4351V76.5721C151.764 76.5986 151.775 76.624 151.793 76.6428C151.812 76.6615 151.838 76.6721 151.864 76.6721C151.891 76.6721 151.916 76.6615 151.935 76.6428C151.954 76.624 151.964 76.5986 151.964 76.5721V75.4351L152.975 76.4461C152.994 76.4641 153.019 76.4742 153.045 76.4742C153.071 76.4742 153.096 76.4641 153.114 76.4461C153.132 76.4274 153.142 76.4025 153.142 76.3766C153.142 76.3507 153.132 76.3257 153.114 76.3071L152.103 75.2961H153.24C153.255 75.301 153.271 75.3023 153.287 75.2999C153.302 75.2975 153.317 75.2913 153.33 75.2821C153.343 75.2728 153.353 75.2606 153.36 75.2466C153.368 75.2325 153.371 75.2169 153.371 75.2011C153.371 75.1853 153.368 75.1697 153.36 75.1556C153.353 75.1415 153.343 75.1294 153.33 75.1201C153.317 75.1108 153.302 75.1047 153.287 75.1023C153.271 75.0998 153.255 75.1011 153.24 75.1061L153.241 75.1021Z" fill="#3B8EFF"/>
<path d="M144.992 75.0971H143.855L144.866 74.0881C144.884 74.0694 144.894 74.0445 144.894 74.0186C144.894 73.9927 144.884 73.9677 144.866 73.9491C144.847 73.931 144.823 73.921 144.797 73.921C144.771 73.921 144.746 73.931 144.727 73.9491L143.716 74.9601V73.8211C143.716 73.7946 143.706 73.7691 143.687 73.7504C143.668 73.7316 143.643 73.7211 143.616 73.7211C143.59 73.7211 143.564 73.7316 143.545 73.7504C143.527 73.7691 143.516 73.7946 143.516 73.8211V74.9601L142.507 73.9431C142.488 73.9251 142.464 73.915 142.438 73.915C142.412 73.915 142.387 73.9251 142.368 73.9431C142.35 73.9617 142.34 73.9866 142.34 74.0126C142.34 74.0385 142.35 74.0634 142.368 74.0821L143.379 75.0911H142.24C142.227 75.0911 142.214 75.0937 142.202 75.0987C142.19 75.1037 142.179 75.1111 142.169 75.1204C142.16 75.1296 142.153 75.1407 142.148 75.1528C142.143 75.1649 142.14 75.1779 142.14 75.1911C142.14 75.2042 142.143 75.2172 142.148 75.2293C142.153 75.2415 142.16 75.2525 142.169 75.2618C142.179 75.2711 142.19 75.2784 142.202 75.2834C142.214 75.2885 142.227 75.2911 142.24 75.2911H143.379L142.368 76.3021C142.35 76.3207 142.34 76.3456 142.34 76.3716C142.34 76.3975 142.35 76.4224 142.368 76.4411C142.387 76.4591 142.412 76.4692 142.438 76.4692C142.464 76.4692 142.488 76.4591 142.507 76.4411L143.516 75.4301V76.5671C143.516 76.5936 143.527 76.619 143.545 76.6378C143.564 76.6565 143.59 76.6671 143.616 76.6671C143.643 76.6671 143.668 76.6565 143.687 76.6378C143.706 76.619 143.716 76.5936 143.716 76.5671V75.4301L144.727 76.4411C144.746 76.4591 144.771 76.4692 144.797 76.4692C144.823 76.4692 144.847 76.4591 144.866 76.4411C144.884 76.4224 144.894 76.3975 144.894 76.3716C144.894 76.3456 144.884 76.3207 144.866 76.3021L143.855 75.2911H144.992C145.007 75.296 145.023 75.2973 145.039 75.2949C145.054 75.2925 145.069 75.2863 145.082 75.2771C145.095 75.2678 145.105 75.2556 145.112 75.2415C145.12 75.2275 145.123 75.2119 145.123 75.1961C145.123 75.1803 145.12 75.1647 145.112 75.1506C145.105 75.1365 145.095 75.1244 145.082 75.1151C145.069 75.1058 145.054 75.0997 145.039 75.0973C145.023 75.0948 145.007 75.0961 144.992 75.1011V75.0971Z" fill="#3B8EFF"/>
<path d="M157.364 75.1021H156.227L157.238 74.0931C157.256 74.0744 157.266 74.0495 157.266 74.0236C157.266 73.9977 157.256 73.9727 157.238 73.9541C157.22 73.936 157.195 73.926 157.169 73.926C157.143 73.926 157.118 73.936 157.099 73.9541L156.088 74.9651V73.8261C156.088 73.7996 156.078 73.7741 156.059 73.7554C156.04 73.7366 156.015 73.7261 155.988 73.7261C155.962 73.7261 155.936 73.7366 155.917 73.7554C155.899 73.7741 155.888 73.7996 155.888 73.8261V74.9651L154.879 73.9481C154.861 73.9301 154.836 73.92 154.81 73.92C154.784 73.92 154.759 73.9301 154.74 73.9481C154.722 73.9667 154.712 73.9916 154.712 74.0176C154.712 74.0435 154.722 74.0684 154.74 74.0871L155.751 75.0961H154.612C154.599 75.0961 154.586 75.0987 154.574 75.1037C154.562 75.1087 154.551 75.1161 154.541 75.1254C154.532 75.1347 154.525 75.1457 154.52 75.1578C154.515 75.1699 154.512 75.1829 154.512 75.1961C154.512 75.2092 154.515 75.2222 154.52 75.2343C154.525 75.2465 154.532 75.2575 154.541 75.2668C154.551 75.2761 154.562 75.2834 154.574 75.2885C154.586 75.2935 154.599 75.2961 154.612 75.2961H155.751L154.74 76.3071C154.722 76.3257 154.712 76.3507 154.712 76.3766C154.712 76.4025 154.722 76.4274 154.74 76.4461C154.759 76.4641 154.784 76.4742 154.81 76.4742C154.836 76.4742 154.861 76.4641 154.879 76.4461L155.888 75.4351V76.5721C155.888 76.5986 155.899 76.624 155.917 76.6428C155.936 76.6615 155.962 76.6721 155.988 76.6721C156.015 76.6721 156.04 76.6615 156.059 76.6428C156.078 76.624 156.088 76.5986 156.088 76.5721V75.4351L157.099 76.4461C157.118 76.4641 157.143 76.4742 157.169 76.4742C157.195 76.4742 157.22 76.4641 157.238 76.4461C157.256 76.4274 157.266 76.4025 157.266 76.3766C157.266 76.3507 157.256 76.3257 157.238 76.3071L156.227 75.2961H157.364C157.379 75.301 157.395 75.3023 157.411 75.2999C157.426 75.2975 157.441 75.2913 157.454 75.2821C157.467 75.2728 157.477 75.2606 157.484 75.2466C157.492 75.2325 157.495 75.2169 157.495 75.2011C157.495 75.1853 157.492 75.1697 157.484 75.1556C157.477 75.1415 157.467 75.1294 157.454 75.1201C157.441 75.1108 157.426 75.1047 157.411 75.1023C157.395 75.0998 157.379 75.1011 157.364 75.1061V75.1021Z" fill="#3B8EFF"/>
<path d="M149.116 75.0971H147.979L148.99 74.0881C149.008 74.0694 149.018 74.0445 149.018 74.0186C149.018 73.9927 149.008 73.9677 148.99 73.9491C148.971 73.931 148.947 73.921 148.921 73.921C148.895 73.921 148.87 73.931 148.851 73.9491L147.84 74.9601V73.8211C147.84 73.7946 147.83 73.7691 147.811 73.7504C147.792 73.7316 147.767 73.7211 147.74 73.7211C147.714 73.7211 147.688 73.7316 147.669 73.7504C147.651 73.7691 147.64 73.7946 147.64 73.8211V74.9601L146.631 73.9431C146.613 73.9251 146.588 73.915 146.562 73.915C146.536 73.915 146.511 73.9251 146.492 73.9431C146.474 73.9617 146.464 73.9866 146.464 74.0126C146.464 74.0385 146.474 74.0634 146.492 74.0821L147.503 75.0911H146.364C146.351 75.0911 146.338 75.0937 146.326 75.0987C146.314 75.1037 146.303 75.1111 146.293 75.1204C146.284 75.1296 146.277 75.1407 146.272 75.1528C146.267 75.1649 146.264 75.1779 146.264 75.1911C146.264 75.2042 146.267 75.2172 146.272 75.2293C146.277 75.2415 146.284 75.2525 146.293 75.2618C146.303 75.2711 146.314 75.2784 146.326 75.2834C146.338 75.2885 146.351 75.2911 146.364 75.2911H147.503L146.492 76.3021C146.474 76.3207 146.464 76.3456 146.464 76.3716C146.464 76.3975 146.474 76.4224 146.492 76.4411C146.511 76.4591 146.536 76.4692 146.562 76.4692C146.588 76.4692 146.613 76.4591 146.631 76.4411L147.64 75.4301V76.5671C147.64 76.5936 147.651 76.619 147.669 76.6378C147.688 76.6565 147.714 76.6671 147.74 76.6671C147.767 76.6671 147.792 76.6565 147.811 76.6378C147.83 76.619 147.84 76.5936 147.84 76.5671V75.4301L148.851 76.4411C148.87 76.4591 148.895 76.4692 148.921 76.4692C148.947 76.4692 148.971 76.4591 148.99 76.4411C149.008 76.4224 149.018 76.3975 149.018 76.3716C149.018 76.3456 149.008 76.3207 148.99 76.3021L147.979 75.2911H149.116C149.131 75.296 149.147 75.2973 149.163 75.2949C149.178 75.2925 149.193 75.2863 149.206 75.2771C149.219 75.2678 149.229 75.2556 149.236 75.2415C149.244 75.2275 149.247 75.2119 149.247 75.1961C149.247 75.1803 149.244 75.1647 149.236 75.1506C149.229 75.1365 149.219 75.1244 149.206 75.1151C149.193 75.1058 149.178 75.0997 149.163 75.0973C149.147 75.0948 149.131 75.0961 149.116 75.1011V75.0971Z" fill="#3B8EFF"/>
<path d="M161.488 75.1021H160.351L161.362 74.0931C161.38 74.0744 161.39 74.0495 161.39 74.0236C161.39 73.9977 161.38 73.9727 161.362 73.9541C161.344 73.936 161.319 73.926 161.293 73.926C161.267 73.926 161.242 73.936 161.223 73.9541L160.212 74.9651V73.8261C160.212 73.7996 160.202 73.7741 160.183 73.7554C160.164 73.7366 160.139 73.7261 160.112 73.7261C160.086 73.7261 160.06 73.7366 160.042 73.7554C160.023 73.7741 160.012 73.7996 160.012 73.8261V74.9651L159.003 73.9481C158.985 73.9301 158.96 73.92 158.934 73.92C158.908 73.92 158.883 73.9301 158.864 73.9481C158.846 73.9667 158.836 73.9916 158.836 74.0176C158.836 74.0435 158.846 74.0684 158.864 74.0871L159.875 75.0961H158.736C158.723 75.0961 158.71 75.0987 158.698 75.1037C158.686 75.1087 158.675 75.1161 158.665 75.1254C158.656 75.1347 158.649 75.1457 158.644 75.1578C158.639 75.1699 158.636 75.1829 158.636 75.1961C158.636 75.2092 158.639 75.2222 158.644 75.2343C158.649 75.2465 158.656 75.2575 158.665 75.2668C158.675 75.2761 158.686 75.2834 158.698 75.2885C158.71 75.2935 158.723 75.2961 158.736 75.2961H159.875L158.864 76.3071C158.846 76.3257 158.836 76.3507 158.836 76.3766C158.836 76.4025 158.846 76.4274 158.864 76.4461C158.883 76.4641 158.908 76.4742 158.934 76.4742C158.96 76.4742 158.985 76.4641 159.003 76.4461L160.012 75.4351V76.5721C160.012 76.5986 160.023 76.624 160.042 76.6428C160.06 76.6615 160.086 76.6721 160.112 76.6721C160.139 76.6721 160.164 76.6615 160.183 76.6428C160.202 76.624 160.212 76.5986 160.212 76.5721V75.4351L161.223 76.4461C161.242 76.4641 161.267 76.4742 161.293 76.4742C161.319 76.4742 161.344 76.4641 161.362 76.4461C161.38 76.4274 161.39 76.4025 161.39 76.3766C161.39 76.3507 161.38 76.3257 161.362 76.3071L160.351 75.2961H161.488C161.503 75.301 161.519 75.3023 161.535 75.2999C161.55 75.2975 161.565 75.2913 161.578 75.2821C161.591 75.2728 161.601 75.2606 161.609 75.2466C161.616 75.2325 161.619 75.2169 161.619 75.2011C161.619 75.1853 161.616 75.1697 161.609 75.1556C161.601 75.1415 161.591 75.1294 161.578 75.1201C161.565 75.1108 161.55 75.1047 161.535 75.1023C161.519 75.0998 161.503 75.1011 161.488 75.1061V75.1021Z" fill="#3B8EFF"/>
<path d="M180.729 98.985C180.723 98.7493 180.694 98.5148 180.641 98.285C180.582 97.9299 180.439 97.5939 180.225 97.3042C180.011 97.0146 179.732 96.7795 179.41 96.618C178.733 96.4106 178.079 96.1341 177.458 95.793C177.34 93.688 177.823 91.534 177.297 89.493C177.042 88.7669 176.839 88.0233 176.69 87.268C176.582 86.318 176.841 85.304 176.462 84.429C176.296 84.0907 176.064 83.7893 175.779 83.5429C175.494 83.2964 175.162 83.1101 174.803 82.995C174.085 82.7704 173.342 82.6384 172.59 82.602C171.647 82.525 168.596 82.164 167.532 83.002C167.457 83.0599 167.39 83.1271 167.332 83.202V83.202C167.309 83.2337 167.288 83.2671 167.269 83.302L167.259 83.318C167.238 83.3591 167.22 83.4019 167.206 83.446V83.446C167.192 83.4941 167.181 83.5433 167.173 83.593V83.946C167.187 84.123 167.212 84.299 167.212 84.474C167.214 84.5609 167.207 84.6478 167.189 84.733C167.124 84.9645 167.013 85.1807 166.863 85.369L166.828 85.42C166.806 85.451 166.785 85.481 166.765 85.512C166.745 85.543 166.73 85.567 166.714 85.594C166.698 85.621 166.683 85.639 166.669 85.665C166.65 85.6973 166.633 85.7307 166.618 85.765C166.618 85.785 166.596 85.802 166.589 85.822C166.565 85.8751 166.545 85.9303 166.53 85.987C166.484 86.1575 166.48 86.3366 166.518 86.509C166.571 86.7294 166.662 86.939 166.787 87.128C166.836 87.209 166.887 87.287 166.944 87.366L167.081 87.553C167.056 87.7353 167.042 87.919 167.04 88.103C167.04 88.7179 167.18 89.3248 167.449 89.8779C167.717 90.431 168.108 90.9159 168.591 91.296C168.669 92.1253 168.661 92.9605 168.566 93.788C168.548 93.961 168.527 94.136 168.503 94.308C168.479 94.48 168.462 94.595 168.438 94.738C168.151 94.779 167.858 94.7569 167.58 94.673C167.452 94.6159 167.321 94.5655 167.187 94.522C166.616 94.379 166.032 94.948 165.467 94.775C165.463 94.8027 165.455 94.8295 165.441 94.854C165.323 94.7806 165.187 94.7405 165.048 94.738C164.715 94.6806 164.414 94.5074 164.196 94.249L163.448 93.549C163.399 93.506 163.356 93.4573 163.318 93.404C163.278 93.3275 163.248 93.2462 163.228 93.162C163.07 92.7646 162.822 92.409 162.503 92.123C162.447 92.0528 162.373 91.9992 162.289 91.968C162.256 91.963 162.222 91.963 162.189 91.968C162.169 91.9404 162.147 91.914 162.124 91.889C162.073 91.8306 162.019 91.7755 161.961 91.724C161.604 91.394 161.568 91.111 161.261 90.742C160.991 90.3901 160.746 90.0195 160.527 89.633C160.501 89.427 160.466 89.215 160.427 89.001C160.328 88.5112 160.184 88.0315 159.997 87.568L159.604 86.698L159.559 86.743C159.274 86.319 158.97 86.087 158.697 86.143C158.239 86.237 158.014 87.125 158.086 88.285L158.243 89.463C158.247 89.4932 158.254 89.5227 158.265 89.551C158.237 89.6906 158.223 89.8326 158.222 89.975C158.222 90.14 158.375 90.262 158.456 90.409C158.586 90.6082 158.656 90.841 158.656 91.079C158.646 91.163 158.621 91.244 158.617 91.326C158.628 91.5107 158.692 91.6883 158.802 91.837L159.784 93.487L159.984 93.833L159.996 93.849C160.058 93.9687 160.149 94.0717 160.259 94.149C160.298 94.5621 160.407 94.9653 160.583 95.341C160.616 95.416 160.654 95.486 160.693 95.557C160.957 95.9897 161.268 96.3921 161.62 96.757L162.087 97.281C162.548 97.795 163.01 98.312 163.511 98.787C163.69 98.9777 163.907 99.1295 164.147 99.233C164.265 99.2807 164.393 99.2965 164.518 99.279C164.644 99.2614 164.762 99.2111 164.862 99.133V99.863C164.935 99.8674 165.006 99.8912 165.066 99.932C165.127 99.9728 165.176 100.029 165.207 100.095C165.239 100.161 165.252 100.234 165.246 100.307C165.24 100.38 165.214 100.449 165.172 100.509C164.797 101.582 164.31 102.613 163.719 103.584C164.16 103.845 164.568 104.157 164.936 104.513C165.175 104.778 165.387 105.065 165.57 105.371C165.588 105.516 165.601 105.66 165.609 105.803C165.754 108.144 164.849 110.467 164.038 112.698C163.761 113.313 163.602 113.976 163.569 114.65C163.415 114.745 163.268 114.85 163.129 114.966C163.246 115.37 163.273 115.795 163.21 116.211C163.204 116.48 163.149 116.747 163.047 116.996C162.962 117.167 162.867 117.334 162.764 117.496C162.319 118.432 162.073 119.449 162.041 120.485C161.98 121.104 162.22 121.86 161.941 122.413C161.413 123.343 161.078 124.37 160.959 125.433C160.957 125.669 160.926 125.904 160.869 126.133C160.808 126.333 160.7 126.496 160.645 126.689C160.589 126.947 160.575 127.213 160.606 127.475C160.644 128.416 160.504 129.356 160.194 130.246C159.873 130.922 159.76 131.678 159.87 132.418C159.396 132.916 159.104 133.558 159.039 134.242C159.034 134.417 159.013 134.591 158.976 134.762C158.916 134.937 158.837 135.104 158.74 135.262C158.345 135.982 158.16 136.798 158.206 137.618C157.647 138.447 157.285 139.393 157.148 140.383C156.973 141.363 156.897 142.36 156.673 143.329C156.264 144.6 155.948 145.898 155.728 147.215C155.432 147.449 155.187 147.742 155.009 148.076C154.831 148.409 154.724 148.776 154.695 149.153C154.642 149.907 154.489 150.651 154.241 151.366C154.08 151.723 153.848 152.044 153.695 152.409C153.588 152.701 153.508 153.002 153.459 153.309C153.335 153.79 153.314 154.292 153.398 154.782C153.232 154.958 153.038 155.106 152.823 155.22C152.854 155.098 152.88 154.976 152.901 154.853C152.394 155.313 151.475 155.153 151.071 155.703C150.95 155.881 150.903 156.1 150.941 156.312C150.978 156.524 151.097 156.714 151.271 156.84C151.398 156.917 151.534 156.976 151.677 157.015C152.627 157.404 153.655 157.563 154.677 157.478C154.797 157.465 154.912 157.428 155.017 157.37C155.148 157.273 155.256 157.149 155.333 157.005C155.484 156.765 155.633 156.526 155.785 156.286C156.146 156.394 156.514 156.48 156.885 156.543C156.922 156.857 156.95 157.171 156.964 157.486C157.164 157.525 157.423 157.537 157.516 157.354C157.544 157.285 157.555 157.21 157.549 157.136C157.549 156.996 157.569 156.812 157.58 156.623H157.619C158.218 156.647 158.814 156.527 159.357 156.272C159.316 154.515 159.687 152.773 160.441 151.186C161.075 149.454 161.619 147.686 162.167 145.927C162.56 144.686 162.994 143.484 163.379 142.241C163.863 140.67 164.35 139.099 164.838 137.528C165.05 136.837 165.264 136.153 165.508 135.466C166.021 134.075 166.629 132.722 167.328 131.415C167.528 131.044 167.721 130.677 167.882 130.292C168.082 129.823 168.218 129.332 168.375 128.847C168.718 127.853 169.13 126.884 169.608 125.947C169.622 125.921 169.632 125.898 169.645 125.874C169.804 126.524 169.963 127.184 170.069 127.838C170.213 128.64 170.224 129.46 170.102 130.265C169.962 130.803 169.877 131.355 169.851 131.911C169.981 132.668 170.197 133.408 170.493 134.116C170.624 134.67 170.697 135.236 170.713 135.805C170.768 136.689 171.247 137.68 170.913 138.499C169.862 141.093 170.371 144.023 169.772 146.746C169.464 148.146 168.519 149.458 168.594 150.887C168.647 151.902 168.736 152.914 168.861 153.923C168.892 154.242 168.975 154.553 169.107 154.844C169.186 154.997 169.276 155.144 169.376 155.284C169.29 155.317 169.217 155.406 169.154 155.592C169.07 155.838 169.067 156.104 169.145 156.351C169.224 156.599 169.38 156.815 169.59 156.967C169.768 157.063 169.96 157.131 170.158 157.167C170.425 157.243 170.702 157.281 170.979 157.281C171.065 157.276 171.151 157.266 171.236 157.25C171.54 157.378 171.85 157.489 172.165 157.584C172.169 157.665 172.177 157.746 172.19 157.826C172.19 157.868 172.199 157.909 172.217 157.948C172.234 157.986 172.259 158.02 172.29 158.048C172.339 158.071 172.393 158.081 172.447 158.076H173.513V157.801C173.635 157.814 173.758 157.801 173.875 157.763C173.992 157.725 174.099 157.663 174.19 157.581C174.286 157.461 174.354 157.322 174.39 157.173C174.681 156.187 174.97 155.201 175.256 154.214C175.6 153.123 175.743 151.978 175.678 150.836C175.299 147.217 176.132 143.586 175.861 139.957C175.698 137.776 175.81 135.583 176.195 133.43C176.283 132.943 176.395 132.448 176.431 131.963C176.517 131.048 176.411 130.123 176.476 129.214C176.498 128.896 176.541 128.58 176.576 128.264C176.845 126.302 176.986 124.324 176.998 122.343C176.992 121.687 176.951 121.031 176.876 120.379C177.081 120.327 177.267 120.218 177.412 120.065C177.545 119.807 177.59 119.512 177.54 119.226C177.6 118.532 177.778 117.853 178.068 117.219C178.371 116.314 178.618 115.392 178.81 114.458C179.013 113.705 179.124 112.931 179.14 112.151C179.14 112.072 179.136 111.994 179.128 111.915C179.203 111.863 179.265 111.794 179.309 111.715C179.36 111.6 179.392 111.477 179.403 111.352C179.474 110.852 179.546 110.352 179.617 109.846C179.669 109.486 179.721 109.127 179.772 108.768L180.396 104.411C180.449 104.032 180.504 103.655 180.557 103.278L180.72 102.151C180.738 102.017 180.757 101.884 180.771 101.758C181.238 100.964 180.78 99.896 180.729 98.985ZM175.519 115.299C175.249 114.772 175.114 114.185 175.126 113.593H175.104C175.156 113.41 175.147 113.216 175.078 113.039C175.017 112.896 174.911 112.774 174.846 112.631C174.777 112.456 174.741 112.269 174.74 112.081C174.691 110.887 174.786 109.691 175.021 108.519C175.047 108.382 175.074 108.242 175.1 108.105C175.183 108.057 175.258 107.998 175.324 107.93C175.427 107.812 175.513 107.68 175.577 107.537C175.799 107.091 176.001 106.637 176.188 106.176C176.249 106.027 176.337 105.854 176.488 105.817C176.584 106.951 176.454 108.092 176.107 109.175C176.017 109.342 175.95 109.52 175.907 109.705C175.864 109.998 175.986 110.294 175.942 110.585C175.92 110.736 175.856 110.876 175.83 111.025C175.811 111.098 175.811 111.175 175.831 111.248C175.851 111.321 175.89 111.388 175.944 111.441C175.97 111.459 175.998 111.474 176.028 111.484C176.016 111.563 176.006 111.643 175.999 111.72C175.983 111.881 175.975 112.032 175.966 112.126C175.921 112.606 175.903 113.089 175.913 113.571C175.913 114.091 175.933 114.612 175.925 115.142C175.932 115.294 175.907 115.446 175.85 115.588C175.812 115.662 175.761 115.73 175.701 115.788C175.649 115.623 175.589 115.46 175.52 115.301L175.519 115.299Z" fill="url(#paint0_linear_2_17818)"/>
<path d="M160.023 92.5159C160.622 92.3929 160.826 90.9172 160.478 89.2199C160.13 87.5226 159.362 86.2463 158.762 86.3693C158.162 86.4923 157.958 87.968 158.306 89.6653C158.654 91.3626 159.423 92.6389 160.023 92.5159Z" fill="#FBBEBE"/>
<path d="M169.17 155.631C169.086 155.875 169.082 156.139 169.161 156.384C169.24 156.63 169.396 156.843 169.606 156.992C169.783 157.088 169.973 157.155 170.17 157.192C170.437 157.267 170.712 157.305 170.989 157.304C171.329 157.288 171.655 157.155 171.994 157.104C172.034 157.094 172.075 157.1 172.11 157.12C172.127 157.138 172.14 157.16 172.147 157.184C172.155 157.208 172.157 157.233 172.153 157.258C172.157 157.451 172.171 157.644 172.196 157.835C172.196 157.877 172.205 157.918 172.223 157.957C172.24 157.995 172.265 158.029 172.296 158.057C172.345 158.08 172.399 158.089 172.453 158.084H173.52C173.546 157.149 173.445 156.215 173.22 155.307C173.206 155.236 173.179 155.169 173.141 155.107C173.051 155.007 172.933 154.937 172.801 154.907C172.541 154.799 172.26 154.75 171.978 154.764C171.642 154.847 171.327 155.001 171.055 155.216C170.906 155.325 170.737 155.403 170.557 155.447C170.377 155.49 170.191 155.498 170.008 155.469C169.649 155.381 169.352 155.085 169.17 155.631Z" fill="#3F3D56"/>
<path d="M153.542 154.769C153.243 155.09 152.876 155.339 152.468 155.5L152.287 155.586C152.262 155.596 152.241 155.613 152.226 155.635C152.223 155.65 152.223 155.666 152.226 155.681C152.23 155.697 152.237 155.711 152.246 155.723C152.397 155.955 152.619 156.132 152.879 156.227C153.139 156.321 153.423 156.328 153.687 156.247C153.804 156.218 153.912 156.161 154.003 156.082C154.153 155.905 154.239 155.682 154.247 155.45C154.306 155.211 154.296 154.959 154.218 154.725C153.945 154.111 153.844 154.39 153.542 154.769Z" fill="#FBBEBE"/>
<path d="M157.623 157.188C157.629 157.262 157.618 157.337 157.59 157.406C157.498 157.587 157.241 157.577 157.04 157.538C157.01 156.872 156.929 156.209 156.799 155.555C156.418 155.537 156.143 155.899 155.939 156.223L155.413 157.058C155.337 157.202 155.23 157.326 155.099 157.423C154.994 157.481 154.878 157.517 154.759 157.531C153.74 157.617 152.714 157.458 151.768 157.068C151.625 157.03 151.488 156.971 151.361 156.895C151.188 156.768 151.07 156.579 151.032 156.368C150.995 156.156 151.041 155.938 151.161 155.76C151.567 155.21 152.481 155.367 152.987 154.912C152.934 155.233 152.848 155.547 152.728 155.849C153.405 155.749 153.861 155.126 154.407 154.712C154.544 154.596 154.709 154.517 154.886 154.484C155.019 154.473 155.152 154.487 155.279 154.525C155.909 154.683 156.497 154.973 157.007 155.375C157.263 155.536 157.475 155.757 157.626 156.019C157.673 156.407 157.672 156.8 157.623 157.188Z" fill="#3F3D56"/>
<path d="M171.131 92.3981C173.372 92.3981 175.188 90.5817 175.188 88.3411C175.188 86.1004 173.372 84.2841 171.131 84.2841C168.891 84.2841 167.074 86.1004 167.074 88.3411C167.074 90.5817 168.891 92.3981 171.131 92.3981Z" fill="#FBBEBE"/>
<path d="M179.123 112.294C179.107 113.071 178.997 113.843 178.795 114.594C178.603 115.524 178.355 116.442 178.053 117.343C177.765 117.975 177.588 118.651 177.529 119.343C177.578 119.628 177.532 119.922 177.399 120.179C177.242 120.339 177.044 120.452 176.826 120.507C176.718 120.536 176.617 120.59 176.533 120.664C176.45 120.739 176.384 120.833 176.343 120.937C176.159 120.661 176.02 120.357 175.934 120.037C175.582 118.958 175.255 117.874 174.952 116.783C174.924 116.72 174.912 116.652 174.917 116.583C174.922 116.515 174.943 116.448 174.979 116.39C175.029 116.345 175.087 116.311 175.15 116.29C175.351 116.208 175.536 116.089 175.694 115.94C175.769 115.874 175.83 115.795 175.875 115.706C175.932 115.565 175.958 115.414 175.951 115.262C175.951 114.742 175.951 114.223 175.937 113.703C175.929 113.223 175.947 112.742 175.992 112.264C175.992 112.17 176.01 112.019 176.025 111.857C176.055 111.549 176.113 111.191 176.28 111.072C176.529 110.905 177.28 111.129 177.558 111.172C178.045 111.239 178.54 111.317 179.015 111.41C179.085 111.7 179.121 111.996 179.123 112.294V112.294Z" fill="#3F3D56"/>
<path d="M162.742 92.8831C162.585 93.1971 162.208 93.3481 161.917 93.5471L160.917 94.2301C160.85 94.2901 160.772 94.3359 160.688 94.365C160.603 94.394 160.513 94.4056 160.424 94.3991C160.343 94.3691 160.269 94.3232 160.206 94.2642C160.143 94.2051 160.092 94.134 160.057 94.0551C160.058 94.0498 160.058 94.0444 160.057 94.0391L159.851 93.6931L158.869 92.0471C158.76 91.8997 158.696 91.7234 158.686 91.5401C158.686 91.4561 158.715 91.3771 158.723 91.2931C158.725 91.0554 158.655 90.8227 158.523 90.6251C158.444 90.4781 158.287 90.3561 158.291 90.1911C158.284 89.9744 158.321 89.7586 158.401 89.5571C158.504 89.3708 158.652 89.2131 158.831 89.0981C158.923 89.0311 159.018 88.9681 159.116 88.8981C159.168 88.8623 159.226 88.8356 159.287 88.8191C159.45 88.7861 159.611 88.9191 159.776 88.9271C160.485 89.4021 160.758 90.3021 161.316 90.9501C161.63 91.3191 161.662 91.6021 162.016 91.9321C162.073 91.9831 162.128 92.0381 162.181 92.0951C162.251 92.1716 162.311 92.2574 162.358 92.3501C162.432 92.5241 162.822 92.7221 162.742 92.8831Z" fill="#3F3D56"/>
<path d="M169.706 92.4C170.035 93.0048 170.186 93.6901 170.142 94.377C170.125 94.5609 170.066 94.7387 169.971 94.897C169.796 95.0878 169.579 95.2355 169.338 95.3289C169.096 95.4222 168.837 95.4585 168.579 95.435C168.471 95.427 168.362 95.4406 168.259 95.4749C168.156 95.5092 168.061 95.5637 167.979 95.635C167.91 95.7353 167.876 95.8557 167.883 95.9773C167.889 96.0989 167.936 96.2149 168.016 96.307C168.182 96.4841 168.387 96.6189 168.616 96.7C169.416 97.106 170.305 97.3031 171.202 97.273C171.614 97.234 172.015 97.114 172.425 97.053C172.872 97.0044 173.322 96.9794 173.772 96.978C174.306 96.958 174.838 96.905 175.372 96.852L176.782 96.713C176.859 96.714 176.934 96.6866 176.992 96.636C177.092 96.514 176.963 96.336 176.833 96.243C176.085 95.689 175.133 95.308 174.706 94.476C174.545 94.0571 174.411 93.6282 174.306 93.192C174.125 92.789 173.969 92.3752 173.839 91.953C173.791 91.574 173.769 91.1921 173.774 90.81C173.779 90.4247 173.639 90.0516 173.381 89.765C173.077 89.5281 172.698 89.4063 172.313 89.421C171.845 89.3776 171.373 89.4301 170.926 89.5752C170.479 89.7203 170.066 89.955 169.713 90.265C169.534 90.444 169.381 90.658 169.197 90.819C169.013 90.98 168.761 91.027 168.883 91.239C169.005 91.451 169.244 91.583 169.374 91.769C169.501 91.9703 169.612 92.1813 169.706 92.4V92.4Z" fill="#FBBEBE"/>
<path d="M177.704 98.1121C177.457 99.6241 177.055 101.107 176.504 102.536C176.227 103.182 175.991 103.844 175.797 104.519C175.646 105.128 175.675 105.78 175.536 106.39C175.363 107.15 175.19 107.912 175.051 108.678C174.817 109.847 174.724 111.041 174.772 112.232C174.773 112.42 174.809 112.606 174.878 112.78C174.943 112.921 175.047 113.043 175.108 113.188C175.154 113.316 175.172 113.451 175.163 113.586C175.153 113.721 175.116 113.853 175.053 113.973C174.954 114.198 174.819 114.405 174.653 114.586C172.823 115.132 170.865 114.953 168.958 115.069C167.215 115.327 165.447 115.383 163.691 115.236C163.592 114.421 163.735 113.596 164.103 112.862C164.918 110.637 165.819 108.32 165.674 105.989C165.659 105.717 165.628 105.446 165.582 105.178C165.365 103.506 165.543 101.806 166.104 100.216C166.368 99.2052 166.444 98.1544 166.328 97.1161C166.293 96.7789 166.288 96.4392 166.314 96.1011C166.343 95.756 166.471 95.4266 166.683 95.1531C166.683 95.1391 166.701 95.1261 166.71 95.1121C166.758 95.0985 166.809 95.0985 166.857 95.1121C166.873 95.119 166.89 95.1225 166.907 95.1225C166.924 95.1225 166.941 95.119 166.957 95.1121L166.979 95.0981C166.987 95.0922 166.997 95.0889 167.008 95.0889C167.018 95.0889 167.028 95.0922 167.036 95.0981C167.081 95.1261 167.107 95.2201 167.205 95.2371C167.35 95.259 167.497 95.2727 167.643 95.2781C167.819 95.2834 167.995 95.3086 168.165 95.3531H168.189C168.445 95.3961 168.707 95.3738 168.951 95.2881C169.114 95.2474 169.271 95.1866 169.418 95.1071C169.461 95.0601 169.732 95.0171 169.787 94.9831C169.966 94.8751 169.926 94.3681 169.964 94.1601C169.985 93.9513 170.034 93.7463 170.111 93.5511C170.201 93.4072 170.324 93.2874 170.47 93.2021C170.617 93.1169 170.782 93.0688 170.951 93.0621C171.289 93.0539 171.627 93.0842 171.958 93.1521C172.69 93.2521 173.441 93.2381 174.158 93.4071C174.505 93.5463 174.889 93.5629 175.246 93.4541C175.336 93.4761 175.346 93.5541 175.346 93.6541C175.338 93.7455 175.319 93.8357 175.291 93.9231C175.165 94.4651 175.591 94.9641 175.984 95.3571C176.15 95.542 176.346 95.6979 176.563 95.8181C176.763 95.9081 176.956 95.9461 177.152 96.0441C177.311 96.1288 177.446 96.2523 177.545 96.4031C177.658 96.576 177.735 96.7704 177.769 96.9741C177.811 97.3541 177.789 97.7384 177.704 98.1111V98.1121Z" fill="#3F3D56"/>
<path opacity="0.1" d="M177.703 98.113C177.456 99.625 177.054 101.107 176.503 102.537C176.226 103.182 175.99 103.845 175.796 104.52C175.645 105.129 175.674 105.781 175.535 106.391C175.362 107.151 175.189 107.913 175.05 108.679C175.009 108.703 174.966 108.724 174.922 108.744C174.678 108.861 174.419 108.944 174.152 108.991C173.673 109.049 173.189 109.033 172.715 108.944L169.915 108.569C168.782 108.529 167.687 108.148 166.773 107.477C166.338 107.031 165.968 106.526 165.673 105.977C165.658 105.705 165.627 105.434 165.581 105.166C165.364 103.494 165.542 101.794 166.103 100.204C166.367 99.1932 166.443 98.1424 166.327 97.1041C166.292 96.7668 166.287 96.4271 166.313 96.0891C166.342 95.744 166.47 95.4146 166.682 95.1411C166.74 95.1244 166.798 95.1114 166.857 95.1021C166.897 95.094 166.937 95.0886 166.977 95.0861H167.034C167.101 95.0862 167.169 95.0942 167.234 95.11C167.368 95.1526 167.499 95.203 167.627 95.261H167.651C167.819 95.3167 167.996 95.3421 168.173 95.3361C168.432 95.3361 168.699 95.295 168.959 95.277C169.279 95.227 169.607 95.2858 169.89 95.444C170.073 95.5907 170.246 95.7487 170.408 95.9171C170.605 96.0712 170.826 96.1912 171.062 96.272C172.752 96.9171 174.627 96.8776 176.289 96.162C176.449 96.0711 176.63 96.0249 176.813 96.0281C176.949 96.0547 177.077 96.1095 177.19 96.189C177.308 96.258 177.424 96.324 177.543 96.389C177.656 96.5619 177.733 96.7563 177.767 96.96C177.811 97.3452 177.79 97.7351 177.703 98.113V98.113Z" fill="black"/>
<path d="M179.414 96.8131C178.632 96.5742 177.881 96.2447 177.175 95.8311C177.062 95.752 176.934 95.6971 176.798 95.6701C176.614 95.668 176.433 95.7142 176.272 95.8041C174.611 96.5195 172.737 96.559 171.047 95.9141C170.811 95.8325 170.59 95.7126 170.393 95.5591C170.23 95.3912 170.057 95.2333 169.875 95.0861C169.229 94.6681 168.336 95.1591 167.613 94.8861C167.485 94.8289 167.354 94.7785 167.22 94.7351C166.649 94.5921 166.067 95.1611 165.506 94.9881C165.297 95.5562 165.143 96.1428 165.045 96.7401C164.965 97.4259 164.922 98.1156 164.917 98.8061C164.917 99.2201 164.897 99.6351 164.917 100.049C164.99 100.053 165.06 100.077 165.121 100.117C165.182 100.158 165.231 100.214 165.262 100.28C165.294 100.345 165.307 100.418 165.301 100.491C165.295 100.564 165.269 100.634 165.227 100.693C164.853 101.763 164.368 102.79 163.778 103.758C164.217 104.019 164.624 104.331 164.992 104.685C165.679 105.412 166.017 106.431 166.759 107.102C167.674 107.771 168.768 108.151 169.901 108.192L172.701 108.567C173.176 108.656 173.661 108.672 174.14 108.616C174.406 108.568 174.664 108.484 174.908 108.367C175.067 108.301 175.213 108.205 175.336 108.084C175.44 107.966 175.525 107.834 175.589 107.691C175.811 107.247 176.013 106.791 176.2 106.334C176.265 106.171 176.363 105.981 176.54 105.967C177.581 105.028 178.563 104.067 179.603 103.127C180.021 102.781 180.396 102.385 180.72 101.949C181.236 101.185 180.767 100.103 180.72 99.1801C180.715 98.9444 180.685 98.7098 180.632 98.4801C180.577 98.1252 180.437 97.7887 180.226 97.4986C180.014 97.2086 179.735 96.9736 179.414 96.8131Z" fill="white"/>
<path opacity="0.1" d="M162.742 92.8831C162.585 93.1971 162.208 93.3481 161.917 93.5471L160.917 94.2301C160.851 94.2901 160.773 94.3359 160.688 94.365C160.603 94.394 160.513 94.4056 160.424 94.3991C160.343 94.3691 160.269 94.3232 160.206 94.2642C160.143 94.2051 160.092 94.134 160.057 94.0551V93.9141C160.05 93.7553 160.071 93.5964 160.12 93.4451C160.218 93.2229 160.369 93.0283 160.56 92.8791C160.93 92.5292 161.37 92.2616 161.85 92.0941C161.925 92.0648 162.007 92.0565 162.086 92.0701C162.117 92.078 162.146 92.0905 162.172 92.1071C162.243 92.1836 162.302 92.2694 162.349 92.3621C162.432 92.5241 162.823 92.7221 162.742 92.8831Z" fill="black"/>
<path d="M165.087 94.9571C164.755 94.8999 164.454 94.7274 164.237 94.4701L163.493 93.7791C163.443 93.737 163.399 93.6882 163.363 93.6341C163.323 93.5576 163.293 93.4763 163.273 93.3921C163.115 92.9953 162.868 92.6404 162.55 92.3551C162.495 92.2848 162.42 92.2317 162.336 92.2021C162.256 92.1875 162.174 92.1958 162.098 92.2261C161.617 92.3933 161.177 92.6609 160.808 93.0111C160.617 93.1605 160.466 93.3549 160.368 93.5771C160.319 93.7283 160.297 93.8872 160.305 94.0461C160.31 94.5649 160.426 95.0766 160.647 95.5461C160.68 95.6191 160.718 95.6911 160.757 95.7621C161.019 96.1952 161.329 96.5977 161.68 96.9621L162.147 97.4841C162.607 97.9981 163.066 98.5131 163.565 98.9841C163.744 99.1748 163.96 99.3261 164.201 99.4281C164.322 99.4775 164.454 99.4926 164.583 99.4717C164.712 99.4509 164.833 99.395 164.932 99.3101C165.026 99.2012 165.097 99.0743 165.14 98.9371C165.482 98.1619 165.687 97.3333 165.747 96.4881C165.751 96.1492 165.737 95.8104 165.704 95.4731C165.674 95.1141 165.421 94.9741 165.087 94.9571Z" fill="white"/>
<path d="M176.987 122.445C176.975 124.419 176.835 126.39 176.567 128.345C176.528 128.661 176.484 128.977 176.467 129.293C176.402 130.21 176.508 131.131 176.422 132.042C176.377 132.535 176.275 133.024 176.188 133.505C175.804 135.652 175.692 137.84 175.854 140.015C176.125 143.634 175.294 147.255 175.671 150.864C175.717 151.566 175.678 152.271 175.555 152.964C175.486 153.394 175.386 153.818 175.255 154.233C174.968 155.216 174.68 156.198 174.391 157.178C174.356 157.327 174.287 157.467 174.191 157.586C174.091 157.673 173.973 157.737 173.846 157.774C173.72 157.812 173.586 157.822 173.455 157.804C172.323 157.69 171.225 157.35 170.227 156.804C170.108 156.756 169.999 156.689 169.903 156.604C169.689 156.382 169.703 156.033 169.612 155.74C169.465 155.441 169.299 155.151 169.117 154.872C168.998 154.588 168.925 154.286 168.903 153.979C168.77 152.974 168.681 151.964 168.636 150.951C168.561 149.525 169.504 148.214 169.814 146.827C170.403 144.101 169.904 141.18 170.951 138.593C171.281 137.776 170.802 136.786 170.751 135.907C170.734 135.339 170.66 134.775 170.531 134.222C170.238 133.514 170.023 132.777 169.891 132.022C169.917 131.468 170.001 130.919 170.14 130.382C170.263 129.579 170.251 128.761 170.107 127.961C170.007 127.301 169.844 126.641 169.685 125.997L169.65 126.07C169.171 127.006 168.76 127.975 168.419 128.97C168.262 129.451 168.124 129.942 167.928 130.409C167.767 130.802 167.569 131.161 167.374 131.53C166.677 132.832 166.07 134.18 165.558 135.565C165.315 136.244 165.101 136.94 164.888 137.621L163.433 142.334C163.04 143.573 162.61 144.771 162.225 146.008C161.681 147.775 161.137 149.527 160.505 151.255C159.916 152.895 159.215 154.593 159.425 156.325C158.884 156.58 158.289 156.7 157.691 156.677C156.679 156.587 155.686 156.346 154.746 155.962C154.36 155.854 154.01 155.648 153.729 155.362C153.555 155.064 153.447 154.732 153.413 154.389C153.378 154.046 153.418 153.7 153.529 153.373C153.578 153.066 153.657 152.765 153.765 152.473C153.914 152.112 154.158 151.792 154.311 151.434C154.556 150.722 154.707 149.98 154.761 149.229C154.789 148.853 154.895 148.487 155.072 148.154C155.249 147.821 155.494 147.529 155.79 147.295C156.012 145.982 156.327 144.687 156.733 143.419C156.957 142.451 157.033 141.455 157.208 140.473C157.342 139.484 157.703 138.54 158.262 137.714C158.215 136.894 158.4 136.078 158.796 135.358C158.892 135.2 158.97 135.033 159.03 134.858C159.067 134.688 159.088 134.514 159.093 134.34C159.158 133.658 159.45 133.017 159.922 132.52C159.809 131.784 159.921 131.031 160.244 130.36C160.553 129.473 160.693 128.536 160.656 127.597C160.625 127.335 160.638 127.069 160.693 126.811C160.748 126.611 160.856 126.448 160.919 126.259C160.975 126.03 161.004 125.795 161.007 125.559C161.134 124.5 161.468 123.477 161.989 122.547C162.272 121.993 162.032 121.241 162.089 120.625C162.12 119.593 162.366 118.578 162.812 117.646C162.906 117.477 163.012 117.316 163.093 117.146C163.195 116.896 163.251 116.63 163.256 116.36C163.319 115.945 163.292 115.522 163.175 115.119C164.297 114.32 165.649 113.906 167.026 113.941C168.392 113.982 169.759 113.907 171.112 113.715C171.505 113.627 171.897 113.505 172.312 113.446C173.263 113.368 174.22 113.466 175.136 113.735C175.115 114.326 175.251 114.913 175.529 115.435C176.472 117.653 176.968 120.035 176.987 122.445V122.445Z" fill="#33313F"/>
<path opacity="0.1" d="M172.363 122.894L170.107 127.968C170.007 127.308 169.844 126.648 169.685 126.004L169.65 126.077V125.971L170.879 123.271L172.363 122.894Z" fill="black"/>
<path opacity="0.1" d="M179.123 112.295C178.993 112.393 178.837 112.45 178.675 112.462C178.427 112.471 178.178 112.437 177.941 112.362L176.174 111.92C176.119 111.906 176.065 111.887 176.013 111.863C176.042 111.555 176.101 111.197 176.268 111.077C176.517 110.91 177.268 111.134 177.546 111.177C178.033 111.244 178.528 111.322 179.003 111.415C179.077 111.703 179.117 111.998 179.123 112.295V112.295Z" fill="black"/>
<path d="M180.613 100.611C180.65 100.774 180.703 100.935 180.735 101.1C180.788 101.505 180.774 101.916 180.694 102.316L180.533 103.439L180.372 104.568L179.749 108.914L179.596 109.99L179.38 111.49C179.37 111.615 179.338 111.737 179.286 111.851C179.222 111.958 179.132 112.047 179.025 112.11C178.917 112.174 178.796 112.209 178.671 112.214C178.423 112.222 178.175 112.188 177.937 112.114L176.17 111.67C176.093 111.656 176.019 111.626 175.954 111.582C175.9 111.529 175.861 111.463 175.841 111.39C175.821 111.318 175.821 111.241 175.84 111.168C175.866 111.019 175.93 110.879 175.952 110.73C175.995 110.439 175.873 110.141 175.917 109.852C175.961 109.668 176.028 109.491 176.117 109.324C176.706 108.024 176.364 106.502 176.565 105.088C176.746 103.975 177.216 102.93 177.928 102.056C178.367 101.505 178.87 101.009 179.428 100.579C179.674 100.336 179.961 100.137 180.274 99.9901C180.634 99.9171 180.559 100.366 180.613 100.611Z" fill="white"/>
<path d="M167.243 83.6961C167.113 84.1081 167.316 84.5621 167.223 84.9821C167.123 85.4451 166.687 85.7681 166.563 86.2331C166.363 86.9421 166.963 87.5881 167.407 88.1771C169.037 90.3651 168.823 93.3931 168.265 96.0611C167.816 98.2022 167.196 100.304 166.409 102.345C166.204 102.994 165.863 103.592 165.409 104.099C166.29 103.758 167.248 103.665 168.178 103.83C169.325 104.148 170.314 105.262 171.478 105.008C172.178 104.853 172.668 104.232 173.296 103.889C174.474 103.255 175.896 103.653 177.208 103.858C177.491 103.925 177.787 103.91 178.062 103.815C178.272 103.702 178.45 103.538 178.58 103.338C179.166 102.586 179.517 101.677 179.589 100.726C179.62 100.253 179.55 99.778 179.384 99.3335C179.218 98.8891 178.959 98.485 178.625 98.1481C178.323 97.9157 178.046 97.6526 177.798 97.3631C177.59 97.0007 177.478 96.591 177.474 96.1731C177.319 94.0131 177.845 91.8081 177.303 89.7181C177.05 88.9939 176.849 88.2523 176.703 87.4991C176.595 86.5511 176.852 85.5351 176.475 84.6671C176.31 84.3291 176.079 84.0281 175.794 83.7823C175.51 83.5365 175.178 83.351 174.82 83.2371C174.104 83.0154 173.362 82.8834 172.613 82.8441C171.536 82.7531 167.693 82.2911 167.243 83.6961Z" fill="#33313F"/>
<g opacity="0.1">
<path opacity="0.1" d="M168.266 96.0581C167.82 98.1902 167.202 100.283 166.42 102.316C166.555 102.047 166.67 101.764 166.777 101.483C167.565 99.442 168.185 97.3404 168.633 95.1991C169.193 92.5281 169.407 89.5041 167.777 87.3151C167.311 86.8563 167.003 86.2608 166.897 85.6151C166.752 85.8005 166.639 86.0091 166.563 86.2321C166.363 86.9411 166.963 87.5871 167.407 88.1761C169.037 90.3641 168.82 93.3921 168.266 96.0581Z" fill="black"/>
<path opacity="0.1" d="M167.248 84.7841C167.406 84.5883 167.523 84.3634 167.594 84.1221C167.624 83.8303 167.616 83.5358 167.57 83.2461C167.419 83.36 167.305 83.5168 167.244 83.6961C167.194 84.0571 167.196 84.4234 167.248 84.7841V84.7841Z" fill="black"/>
<path opacity="0.1" d="M178.951 102.472C178.821 102.672 178.643 102.835 178.433 102.947C178.159 103.044 177.862 103.059 177.579 102.99C176.265 102.79 174.83 102.39 173.667 103.023C173.037 103.365 172.548 103.985 171.847 104.142C170.686 104.401 169.697 103.288 168.547 102.964C167.715 102.8 166.854 102.869 166.059 103.164C165.897 103.511 165.677 103.829 165.409 104.103C166.29 103.762 167.248 103.669 168.178 103.834C169.325 104.152 170.315 105.266 171.478 105.012C172.178 104.857 172.668 104.236 173.296 103.893C174.474 103.259 175.896 103.657 177.208 103.862C177.491 103.929 177.787 103.914 178.062 103.819C178.272 103.706 178.45 103.542 178.58 103.342C178.936 102.873 179.211 102.347 179.393 101.787C179.262 102.026 179.115 102.255 178.951 102.472Z" fill="black"/>
</g>
<defs>
<linearGradient id="paint0_linear_2_17818" x1="150.928" y1="120.268" x2="180.979" y2="120.268" gradientUnits="userSpaceOnUse">
<stop stop-color="#808080" stop-opacity="0.251"/>
<stop offset="0.54" stop-color="#808080" stop-opacity="0.122"/>
<stop offset="1" stop-color="#808080" stop-opacity="0.102"/>
</linearGradient>
</defs>
</svg>
