<svg width="219" height="192" viewBox="0 0 219 192" fill="none" xmlns="http://www.w3.org/2000/svg">
<g clip-path="url(#clip0_2_17306)">
<path d="M10.5691 65.4278L0.0134567 59.4701C-0.128986 53.0957 1.2841 46.7829 4.12999 41.0798C6.56332 52.1489 19.3769 57.4149 25.2882 67.0803C27.1089 70.1088 28.2259 73.5089 28.5565 77.0287C28.8871 80.5484 28.4228 84.0975 27.198 87.413L27.8927 95.995C22.4352 94.3575 17.3968 91.5543 13.1249 87.7784C8.85297 84.0025 5.44896 79.3438 3.14741 74.1232C1.88514 71.1816 0.997697 68.0924 0.506002 64.9285C5.42553 65.453 10.5691 65.4278 10.5691 65.4278Z" fill="#3B8EFF"/>
<path d="M200.394 173.818L200.718 166.525C204.094 164.717 207.859 163.763 211.686 163.743C206.418 168.058 207.077 176.373 203.506 182.175C202.378 183.976 200.86 185.499 199.065 186.633C197.269 187.766 195.242 188.48 193.134 188.722L188.726 191.426C188.121 188.048 188.255 184.579 189.117 181.258C189.979 177.937 191.55 174.842 193.721 172.188C194.954 170.71 196.367 169.395 197.928 168.271C198.984 171.06 200.394 173.818 200.394 173.818Z" fill="#F2F2F2"/>
<path d="M189.036 187.676H185.044L183.145 172.254H189.036V187.676Z" fill="#FFB6B6"/>
<path d="M190.058 191.549H177.185V191.386C177.185 190.056 177.712 188.779 178.652 187.838C179.591 186.897 180.865 186.368 182.194 186.368L184.543 184.581L188.93 186.368H190.058V191.549Z" fill="#2F2E41"/>
<path d="M170.493 187.676H166.501L164.604 172.251H170.495L170.493 187.676Z" fill="#FFB6B6"/>
<path d="M171.511 191.549H158.641V191.386C158.641 190.056 159.169 188.779 160.108 187.838C161.047 186.897 162.322 186.368 163.65 186.368L166 184.581L170.385 186.368H171.509L171.511 191.549Z" fill="#2F2E41"/>
<path d="M168.765 103.357L194.727 104.008C199.657 106.691 199.733 112.497 198.117 119.39C198.117 119.39 198.662 123.487 197.572 124.58C196.481 125.673 195.935 125.673 196.481 127.585C197.026 129.497 194.144 132.621 194.495 132.971C194.951 133.689 195.342 134.446 195.663 135.234L192.936 150.805C192.936 150.805 191.027 177.85 190.481 178.396C189.936 178.942 189.391 178.396 189.936 179.762C190.481 181.128 191.027 180.581 190.481 181.128C189.998 181.649 189.543 182.197 189.118 182.767H182.524C182.524 182.767 182.028 180.035 182.028 179.762C182.028 179.489 181.482 177.85 181.482 177.576C181.482 177.303 181.965 176.82 181.965 176.82C182.131 176.264 182.243 175.694 182.3 175.117C182.3 174.571 183.936 153.536 183.936 153.536L180.664 126.218L172.756 152.99C172.756 152.99 172.756 176.483 172.21 177.029C171.665 177.575 171.665 177.302 171.938 178.395C172.21 179.488 173.301 179.215 172.483 180.034C171.665 180.854 171.392 179.488 171.665 180.854L171.938 182.219L163.757 182.337C163.757 182.337 162.666 180.034 163.211 179.215C163.757 178.397 163.724 178.619 163.059 177.282C162.393 175.945 162.12 175.667 162.393 175.394C162.666 175.121 162.666 173.668 162.666 173.668L164.029 147.527C164.029 147.527 164.302 119.936 164.302 119.117C164.323 118.695 164.245 118.274 164.075 117.888V116.78L165.12 112.839L168.765 103.357Z" fill="#2F2E41"/>
<path d="M184.361 49.2793C188.816 49.2793 192.428 45.6613 192.428 41.1983C192.428 36.7353 188.816 33.1173 184.361 33.1173C179.906 33.1173 176.294 36.7353 176.294 41.1983C176.294 45.6613 179.906 49.2793 184.361 49.2793Z" fill="#FFB6B6"/>
<path d="M180.328 54.6168C178.645 55.7728 177.444 57.5077 176.954 59.4919C175.849 63.0745 175.184 66.7786 174.974 70.5224L174.343 81.7302L166.54 105.595C173.306 111.33 198.736 106.899 198.736 106.899C198.736 106.899 199.518 106.638 198.736 105.856C197.955 105.075 197.196 105.767 197.976 104.985C198.756 104.204 198.219 105.075 197.959 104.293C197.698 103.511 197.959 104.032 198.219 103.772C198.479 103.511 196.205 101.166 196.205 101.166L198.287 87.4652L200.888 59.8349C197.766 55.9247 191.485 53.6199 191.485 53.6199L189.862 50.694L181.749 51.3446L180.328 54.6168Z" fill="#E6E6E6"/>
<path d="M179.222 36.456C179.533 36.4587 179.843 36.4996 180.145 36.5778C180.74 36.7214 181.345 36.823 181.955 36.8821C183.823 37.0583 185.577 37.8561 186.939 39.1483C188.301 40.4404 189.191 42.1524 189.468 44.0108C189.937 43.6014 191.003 42.8483 191.878 43.5484C191.891 43.5594 191.898 43.5653 191.93 43.5484C192.51 43.2727 193.541 39.8761 193.572 36.8863C193.589 35.2994 193.339 33.272 192.062 32.6307L191.994 32.597L191.977 32.5239C191.893 32.1667 190.934 31.5573 189.272 31.0832C186.251 30.2208 181.748 28.5422 179.212 31.0134C179.02 31.8464 178.396 33.6292 177.766 33.8309C177.068 34.0545 176.464 34.2512 176.37 35.106C176.29 36.3271 176.296 37.5523 176.387 38.7725C176.624 38.0258 177.089 37.3723 177.715 36.904C178.16 36.6045 178.686 36.4482 179.222 36.456Z" fill="#2F2E41"/>
<path d="M164.207 81.1048L177.381 72.6514L170.745 63.814L164.191 71.8891L143.772 73.1431C143.235 72.6112 142.555 72.2473 141.815 72.0957C141.075 71.9442 140.307 72.0116 139.605 72.2898C138.903 72.5679 138.296 73.0448 137.86 73.6622C137.423 74.2796 137.176 75.0109 137.147 75.7669C137.118 76.523 137.31 77.271 137.698 77.9199C138.087 78.5687 138.655 79.0904 139.334 79.4212C140.013 79.752 140.774 79.8777 141.523 79.7829C142.273 79.6881 142.978 79.377 143.554 78.8874L164.207 81.1048Z" fill="#FFB6B6"/>
<path d="M189.615 60.8519C190.379 65.4884 175.938 74.3418 175.938 74.3418C175.938 73.2533 167.318 81.4688 166.928 80.5669C165.823 78.0015 165.046 71.9261 163.5 70.9536C162.616 70.3971 168.822 65.1732 168.822 65.1732C168.822 65.1732 172.07 61.8951 176.334 57.7596C177.517 56.5682 178.982 55.696 180.593 55.2244C182.203 54.7528 183.906 54.697 185.544 55.0623C185.544 55.0623 188.849 56.218 189.615 60.8519Z" fill="#E6E6E6"/>
<path d="M216.774 83.3237L208.058 70.3063L199.378 77.1399L207.577 83.5322L209.261 103.957C208.741 104.507 208.393 105.195 208.257 105.939C208.122 106.684 208.206 107.451 208.498 108.149C208.791 108.846 209.279 109.443 209.905 109.867C210.53 110.291 211.265 110.524 212.02 110.537C212.776 110.549 213.518 110.342 214.157 109.939C214.797 109.536 215.305 108.956 215.621 108.269C215.937 107.582 216.046 106.817 215.936 106.069C215.825 105.32 215.5 104.62 214.999 104.054L216.774 83.3237Z" fill="#FFB6B6"/>
<path d="M196.022 58.3076C200.637 57.4435 209.775 71.7201 209.775 71.7201C208.69 71.7437 217.071 80.202 216.178 80.6114C213.642 81.773 207.595 82.6808 206.656 84.2484C206.12 85.1453 200.774 79.0371 200.774 79.0371C200.774 79.0371 197.434 75.8531 193.217 71.6714C192.003 70.5113 191.101 69.0623 190.597 67.4593C190.092 65.8564 190 64.1516 190.33 62.5036C190.33 62.5036 191.411 59.1717 196.022 58.3076Z" fill="#E6E6E6"/>
<path d="M219.001 191.613C219.001 191.664 218.991 191.714 218.972 191.761C218.952 191.808 218.924 191.851 218.888 191.887C218.852 191.923 218.81 191.951 218.763 191.971C218.716 191.99 218.666 192 218.615 192H127.653C127.55 192 127.452 191.959 127.38 191.887C127.307 191.814 127.266 191.716 127.266 191.613C127.266 191.51 127.307 191.412 127.38 191.339C127.452 191.267 127.55 191.226 127.653 191.226H218.614C218.665 191.226 218.715 191.236 218.762 191.255C218.809 191.274 218.851 191.303 218.887 191.339C218.923 191.375 218.952 191.417 218.971 191.464C218.99 191.511 219 191.562 219 191.613L219.001 191.613Z" fill="#CCCCCC"/>
<path d="M134.734 74.3796H24.3391C22.6144 74.3816 20.9609 75.0688 19.7413 76.2905C18.5218 77.5122 17.8357 79.1686 17.8337 80.8964V149.748C17.8357 151.475 18.5218 153.132 19.7413 154.353C20.9609 155.575 22.6144 156.262 24.3391 156.264H134.734C136.458 156.262 138.112 155.575 139.331 154.353C140.551 153.132 141.237 151.475 141.239 149.748V80.8964C141.237 79.1688 140.551 77.5125 139.332 76.2908C138.112 75.0692 136.459 74.3819 134.734 74.3796Z" fill="#3B8EFF"/>
<path d="M134.734 74.3796H24.3391C22.6144 74.3816 20.9609 75.0688 19.7413 76.2905C18.5218 77.5122 17.8357 79.1686 17.8337 80.8964V149.748C17.8357 151.475 18.5218 153.132 19.7413 154.353C20.9609 155.575 22.6144 156.262 24.3391 156.264H134.734C136.458 156.262 138.112 155.575 139.331 154.353C140.551 153.132 141.237 151.475 141.239 149.748V80.8964C141.237 79.1688 140.551 77.5125 139.332 76.2908C138.112 75.0692 136.459 74.3819 134.734 74.3796ZM136.869 123.836C136.843 130.846 134.075 137.565 129.159 142.554C124.244 147.543 117.573 150.403 110.576 150.521C99.3748 150.667 116.774 150.724 103.264 150.724C72.3715 150.724 40.1583 150.428 28.1393 150.236C26.5581 150.203 25.0522 149.553 23.9432 148.423C22.8342 147.294 22.2099 145.774 22.2037 144.19V80.8972C22.2043 80.3298 22.4293 79.7858 22.8293 79.3841C23.2294 78.9824 23.7719 78.7558 24.3383 78.7538H134.729C135.296 78.7545 135.839 78.9797 136.24 79.3802C136.641 79.7808 136.867 80.3241 136.869 80.8913V123.836Z" fill="#0042A3"/>
<path d="M121.145 34.7321H37.0353C36.2911 34.7331 35.5653 34.9642 34.9571 35.3939C34.3489 35.8235 33.8878 36.4308 33.637 37.1327L20.6472 73.6408C20.4534 74.1857 20.393 74.7693 20.4711 75.3424C20.5492 75.9156 20.7635 76.4616 21.096 76.9346C21.4285 77.4076 21.8694 77.7937 22.3818 78.0605C22.8942 78.3274 23.463 78.4671 24.0405 78.468L136.845 78.6689H136.85C137.447 78.6688 138.034 78.5203 138.56 78.2368C139.086 77.9533 139.533 77.5435 139.861 77.0443C140.19 76.5451 140.39 75.972 140.443 75.3764C140.496 74.7807 140.401 74.1812 140.166 73.6315L139.969 73.7156L140.166 73.6315L124.461 36.9225C124.183 36.2721 123.721 35.7176 123.131 35.3282C122.542 34.9388 121.851 34.7314 121.145 34.7321Z" fill="#0042A3"/>
<path d="M140.46 74.4241C140.46 74.9136 140.361 75.398 140.168 75.848L124.464 104.105C124.184 104.754 123.721 105.306 123.132 105.695C122.542 106.083 121.853 106.29 121.147 106.291H37.037C36.2927 106.29 35.5666 106.059 34.958 105.63C34.3494 105.201 33.8878 104.594 33.6362 103.892L20.6481 75.8379C20.489 75.3908 20.4194 74.9167 20.4433 74.4426C20.4671 73.9686 20.584 73.5039 20.7871 73.0751C20.9902 72.6463 21.2757 72.2617 21.6271 71.9434C21.9786 71.6251 22.3892 71.3793 22.8356 71.2199C23.2217 71.0804 23.6291 71.009 24.0397 71.009L37.819 70.9829L43.4409 70.9728L117.448 70.8425L123.075 70.8325L136.845 70.8064C137.802 70.8064 138.719 71.1872 139.396 71.865C140.073 72.5428 140.453 73.4622 140.453 74.4207L140.46 74.4241Z" fill="#0042A3"/>
<path d="M32.6152 126.025C34.2832 126.025 57.1868 127.427 57.1868 129.098C57.1868 130.769 34.2799 132.075 32.6152 132.075C31.814 132.075 31.0457 131.756 30.4792 131.189C29.9127 130.621 29.5945 129.852 29.5945 129.049C29.5945 128.247 29.9127 127.477 30.4792 126.91C31.0457 126.342 31.814 126.023 32.6152 126.023V126.025Z" fill="#3F3D56"/>
<path d="M115.907 12.5223H44.9874C43.0868 12.5246 41.2646 13.2819 39.9206 14.6282C38.5766 15.9746 37.8206 17.7999 37.8184 19.7039V106.292H121.144C121.828 106.294 122.498 106.099 123.074 105.73V19.7039C123.072 17.8002 122.316 15.9751 120.972 14.6288C119.629 13.2826 117.807 12.525 115.907 12.5223Z" fill="#E6E6E6"/>
<path d="M88.8386 18.3448H49.9724C48.2417 18.3466 46.5824 19.0359 45.3583 20.2615C44.1342 21.4871 43.4453 23.1489 43.4426 24.8826V106.292H117.45V47.0057C117.441 39.407 114.424 32.1221 109.06 26.749C103.696 21.3759 96.424 18.3535 88.8386 18.3448Z" fill="white"/>
<path d="M104.841 99.063H56.0514C55.6497 99.0922 55.2739 99.2728 54.9996 99.5683C54.7253 99.8638 54.5728 100.252 54.5728 100.656C54.5728 101.059 54.7253 101.448 54.9996 101.743C55.2739 102.039 55.6497 102.219 56.0514 102.249H104.841C105.242 102.219 105.618 102.039 105.892 101.743C106.167 101.448 106.319 101.059 106.319 100.656C106.319 100.252 106.167 99.8638 105.892 99.5683C105.618 99.2728 105.242 99.0922 104.841 99.063Z" fill="#E4E4E4"/>
<path d="M104.841 92.7623H56.0515C55.8349 92.7501 55.6182 92.7823 55.4145 92.8569C55.2107 92.9315 55.0244 93.047 54.8668 93.1963C54.7091 93.3455 54.5836 93.5254 54.4978 93.725C54.4119 93.9245 54.3677 94.1395 54.3677 94.3568C54.3677 94.5741 54.4119 94.7891 54.4978 94.9886C54.5836 95.1882 54.7091 95.3681 54.8668 95.5174C55.0244 95.6666 55.2107 95.7821 55.4145 95.8567C55.6182 95.9313 55.8349 95.9635 56.0515 95.9513H104.841C105.058 95.9635 105.275 95.9313 105.479 95.8567C105.682 95.7821 105.869 95.6666 106.026 95.5174C106.184 95.3681 106.309 95.1882 106.395 94.9886C106.481 94.7891 106.525 94.5741 106.525 94.3568C106.525 94.1395 106.481 93.9245 106.395 93.725C106.309 93.5254 106.184 93.3455 106.026 93.1963C105.869 93.047 105.682 92.9315 105.479 92.8569C105.275 92.7823 105.058 92.7501 104.841 92.7623H104.841Z" fill="#E4E4E4"/>
<path d="M77.2013 86.4648H56.0514C55.6497 86.4941 55.2739 86.6746 54.9996 86.9701C54.7253 87.2656 54.5728 87.6542 54.5728 88.0577C54.5728 88.4612 54.7253 88.8498 54.9996 89.1453C55.2739 89.4407 55.6497 89.6213 56.0514 89.6505H77.2013C77.603 89.6213 77.9789 89.4407 78.2532 89.1453C78.5275 88.8498 78.68 88.4612 78.68 88.0577C78.68 87.6542 78.5275 87.2656 78.2532 86.9701C77.9789 86.6746 77.603 86.4941 77.2013 86.4648Z" fill="#E4E4E4"/>
<path d="M104.841 73.2725H56.0515C55.8349 73.2603 55.6182 73.2925 55.4145 73.3671C55.2107 73.4418 55.0244 73.5572 54.8668 73.7065C54.7091 73.8557 54.5836 74.0357 54.4978 74.2352C54.4119 74.4348 54.3677 74.6498 54.3677 74.867C54.3677 75.0843 54.4119 75.2993 54.4978 75.4989C54.5836 75.6984 54.7091 75.8783 54.8668 76.0276C55.0244 76.1768 55.2107 76.2923 55.4145 76.3669C55.6182 76.4416 55.8349 76.4738 56.0515 76.4616H104.841C105.248 76.4386 105.631 76.2606 105.91 75.9641C106.19 75.6676 106.346 75.2751 106.346 74.867C106.346 74.459 106.19 74.0665 105.91 73.7699C105.631 73.4734 105.248 73.2955 104.841 73.2725H104.841Z" fill="#E4E4E4"/>
<path d="M104.841 66.9761H56.0514C55.6497 67.0053 55.2739 67.1858 54.9996 67.4813C54.7253 67.7768 54.5728 68.1654 54.5728 68.5689C54.5728 68.9724 54.7253 69.361 54.9996 69.6565C55.2739 69.952 55.6497 70.1325 56.0514 70.1617H104.841C105.242 70.1325 105.618 69.952 105.892 69.6565C106.167 69.361 106.319 68.9724 106.319 68.5689C106.319 68.1654 106.167 67.7768 105.892 67.4813C105.618 67.1858 105.242 67.0053 104.841 66.9761Z" fill="#E4E4E4"/>
<path d="M77.2039 60.6754H56.0516C55.6449 60.6983 55.2624 60.8763 54.9826 61.1728C54.7028 61.4693 54.5469 61.8619 54.5469 62.2699C54.5469 62.678 54.7028 63.0705 54.9826 63.367C55.2624 63.6635 55.6449 63.8415 56.0516 63.8644H77.2039C77.6106 63.8415 77.9931 63.6635 78.2729 63.367C78.5527 63.0705 78.7086 62.678 78.7086 62.2699C78.7086 61.8619 78.5527 61.4693 78.2729 61.1728C77.9931 60.8763 77.6106 60.6983 77.2039 60.6754Z" fill="#E4E4E4"/>
<path d="M104.841 47.4831H56.0515C55.8349 47.4709 55.6182 47.5031 55.4145 47.5777C55.2107 47.6523 55.0244 47.7678 54.8668 47.9171C54.7091 48.0663 54.5836 48.2463 54.4978 48.4458C54.4119 48.6454 54.3677 48.8603 54.3677 49.0776C54.3677 49.2949 54.4119 49.5099 54.4978 49.7095C54.5836 49.909 54.7091 50.0889 54.8668 50.2382C55.0244 50.3875 55.2107 50.5029 55.4145 50.5775C55.6182 50.6521 55.8349 50.6843 56.0515 50.6721H104.841C105.058 50.6843 105.275 50.6521 105.479 50.5775C105.682 50.5029 105.869 50.3875 106.026 50.2382C106.184 50.0889 106.309 49.909 106.395 49.7095C106.481 49.5099 106.525 49.2949 106.525 49.0776C106.525 48.8603 106.481 48.6454 106.395 48.4458C106.309 48.2463 106.184 48.0663 106.026 47.9171C105.869 47.7678 105.682 47.6523 105.479 47.5777C105.275 47.5031 105.058 47.4709 104.841 47.4831H104.841Z" fill="#FBAE29"/>
<path d="M104.841 41.1866H56.0515C55.8349 41.1744 55.6182 41.2066 55.4145 41.2812C55.2107 41.3558 55.0244 41.4713 54.8668 41.6206C54.7091 41.7698 54.5836 41.9497 54.4978 42.1493C54.4119 42.3489 54.3677 42.5638 54.3677 42.7811C54.3677 42.9984 54.4119 43.2134 54.4978 43.413C54.5836 43.6125 54.7091 43.7924 54.8668 43.9417C55.0244 44.0909 55.2107 44.2064 55.4145 44.281C55.6182 44.3556 55.8349 44.3878 56.0515 44.3756H104.841C105.058 44.3878 105.275 44.3556 105.479 44.281C105.682 44.2064 105.869 44.0909 106.026 43.9417C106.184 43.7924 106.309 43.6125 106.395 43.413C106.481 43.2134 106.525 42.9984 106.525 42.7811C106.525 42.5638 106.481 42.3489 106.395 42.1493C106.309 41.9497 106.184 41.7698 106.026 41.6206C105.869 41.4713 105.682 41.3558 105.479 41.2812C105.275 41.2066 105.058 41.1744 104.841 41.1866H104.841Z" fill="#FBAE29"/>
<path d="M77.2039 34.8859H56.0516C55.6449 34.9088 55.2624 35.0868 54.9826 35.3833C54.7028 35.6798 54.5469 36.0723 54.5469 36.4804C54.5469 36.8884 54.7028 37.281 54.9826 37.5775C55.2624 37.874 55.6449 38.052 56.0516 38.0749H77.2039C77.6106 38.052 77.9931 37.874 78.2729 37.5775C78.5527 37.281 78.7086 36.8884 78.7086 36.4804C78.7086 36.0723 78.5527 35.6798 78.2729 35.3833C77.9931 35.0868 77.6106 34.9088 77.2039 34.8859Z" fill="#FBAE29"/>
<path d="M120.417 24.8128C127.257 24.8128 132.802 19.2583 132.802 12.4064C132.802 5.55454 127.257 0 120.417 0C113.577 0 108.032 5.55454 108.032 12.4064C108.032 19.2583 113.577 24.8128 120.417 24.8128Z" fill="#FBAE29"/>
<path d="M118.727 18.8634C118.513 18.8635 118.302 18.8136 118.111 18.7177C117.92 18.6219 117.753 18.4827 117.625 18.3112L114.246 13.7983C114.134 13.6536 114.052 13.488 114.004 13.3112C113.957 13.1344 113.945 12.95 113.97 12.7686C113.994 12.5871 114.054 12.4124 114.147 12.2545C114.239 12.0967 114.362 11.9588 114.508 11.849C114.655 11.7391 114.821 11.6596 114.998 11.6148C115.176 11.5701 115.36 11.5611 115.541 11.5884C115.721 11.6157 115.895 11.6788 116.051 11.7739C116.207 11.869 116.343 11.9943 116.45 12.1425L118.66 15.0944L124.337 6.56378C124.437 6.41095 124.566 6.27941 124.716 6.17675C124.867 6.07409 125.036 6.00234 125.215 5.96567C125.393 5.92899 125.577 5.92813 125.756 5.9631C125.934 5.99807 126.104 6.0682 126.256 6.16943C126.407 6.27065 126.537 6.40097 126.638 6.55284C126.739 6.70471 126.809 6.87511 126.844 7.0542C126.879 7.23329 126.878 7.41751 126.841 7.5962C126.804 7.77489 126.732 7.94452 126.63 8.09525L119.872 18.249C119.75 18.4327 119.585 18.5844 119.392 18.6913C119.199 18.7982 118.984 18.8572 118.763 18.8634H118.727Z" fill="white"/>
</g>
<defs>
<clipPath id="clip0_2_17306">
<rect width="219" height="192" fill="white"/>
</clipPath>
</defs>
</svg>
