<svg width="247" height="184" viewBox="0 0 247 184" fill="none" xmlns="http://www.w3.org/2000/svg">
<path d="M247 161.626H0.309814V161.749H247V161.626Z" fill="#EBEBEB"/>
<path d="M222.282 169.564H205.941V169.688H222.282V169.564Z" fill="#EBEBEB"/>
<path d="M163.727 170.906H159.44V171.03H163.727V170.906Z" fill="#EBEBEB"/>
<path d="M205.447 164.986H195.979V165.109H205.447V164.986Z" fill="#EBEBEB"/>
<path d="M47.5017 165.814H26.1926V165.938H47.5017V165.814Z" fill="#EBEBEB"/>
<path d="M55.0208 165.814H51.8977V165.938H55.0208V165.814Z" fill="#EBEBEB"/>
<path d="M111.394 167.897H65.1746V168.02H111.394V167.897Z" fill="#EBEBEB"/>
<path d="M117.241 139.621H21.9741C21.2278 139.62 20.5125 139.322 19.9853 138.794C19.458 138.266 19.1619 137.55 19.1619 136.804V2.88555C19.1684 2.14352 19.4674 1.43401 19.9939 0.91115C20.5205 0.388285 21.2321 0.0942887 21.9741 0.0930176H117.241C117.988 0.0930176 118.705 0.389829 119.233 0.918157C119.761 1.44648 120.058 2.16305 120.058 2.91022V136.804C120.058 137.551 119.761 138.268 119.233 138.796C118.705 139.324 117.988 139.621 117.241 139.621ZM21.9741 0.191694C21.2605 0.193001 20.5766 0.477393 20.0725 0.982447C19.5683 1.4875 19.2852 2.17195 19.2852 2.88555V136.804C19.2852 137.517 19.5683 138.202 20.0725 138.707C20.5766 139.212 21.2605 139.496 21.9741 139.498H117.241C117.955 139.496 118.639 139.212 119.144 138.707C119.649 138.202 119.933 137.518 119.935 136.804V2.88555C119.933 2.1715 119.649 1.48706 119.144 0.982146C118.639 0.477233 117.955 0.192998 117.241 0.191694H21.9741Z" fill="#EBEBEB"/>
<path d="M223.964 139.621H128.692C127.945 139.62 127.23 139.322 126.702 138.794C126.174 138.266 125.876 137.551 125.875 136.804V2.88555C125.883 2.14307 126.183 1.43357 126.71 0.910841C127.238 0.388113 127.95 0.0942749 128.692 0.0930176H223.964C224.705 0.0955854 225.415 0.390155 225.941 0.912881C226.466 1.43561 226.765 2.14437 226.771 2.88555V136.804C226.771 137.549 226.476 138.264 225.95 138.792C225.423 139.32 224.709 139.618 223.964 139.621ZM128.692 0.191694C127.978 0.192998 127.294 0.477233 126.789 0.982146C126.284 1.48706 126 2.1715 125.998 2.88555V136.804C126 137.518 126.284 138.202 126.789 138.707C127.294 139.212 127.978 139.496 128.692 139.498H223.964C224.678 139.496 225.362 139.212 225.867 138.707C226.372 138.202 226.656 137.518 226.658 136.804V2.88555C226.656 2.1715 226.372 1.48706 225.867 0.982146C225.362 0.477233 224.678 0.192998 223.964 0.191694H128.692Z" fill="#EBEBEB"/>
<path d="M88.6939 92.6956L203.005 92.6956V16.6805L88.6939 16.6805L88.6939 92.6956Z" fill="#E6E6E6"/>
<path d="M86.9229 92.6956L201.234 92.6956V16.6805L86.9229 16.6805L86.9229 92.6956Z" fill="#F5F5F5"/>
<path d="M198.057 89.1235V20.2427L90.0952 20.2427V89.1235H198.057Z" fill="white"/>
<path d="M91.4373 89.1286V20.2478H90.1002V89.1286H91.4373Z" fill="#E6E6E6"/>
<path d="M88.2351 72.5015L199.922 72.5015V67.7107L88.2351 67.7107V72.5015Z" fill="#F5F5F5"/>
<g opacity="0.4">
<path opacity="0.4" d="M94.1655 12.926H83.3752V77.2332H94.1655V12.926Z" fill="#E6E6E6"/>
<path opacity="0.4" d="M94.1703 72.0674H99.5186L99.5186 12.9259H94.1703V72.0674Z" fill="#F5F5F5"/>
<path opacity="0.4" d="M110.309 12.926H99.5186V77.2332H110.309V12.926Z" fill="#E6E6E6"/>
<path opacity="0.4" d="M110.314 72.0674H115.662L115.662 12.9259H110.314V72.0674Z" fill="#F5F5F5"/>
<path opacity="0.4" d="M126.452 12.926H115.662V77.2332H126.452V12.926Z" fill="#E6E6E6"/>
<path opacity="0.4" d="M126.457 72.0674H131.805V12.9259H126.457V72.0674Z" fill="#F5F5F5"/>
<path opacity="0.4" d="M142.596 12.926H131.805V77.2332H142.596V12.926Z" fill="#E6E6E6"/>
<path opacity="0.4" d="M142.6 72.0674H147.949V12.9259H142.6V72.0674Z" fill="#F5F5F5"/>
<path opacity="0.4" d="M158.739 12.926H147.949V77.2332H158.739V12.926Z" fill="#E6E6E6"/>
<path opacity="0.4" d="M158.739 72.0674H164.087V12.9259H158.739V72.0674Z" fill="#F5F5F5"/>
<path opacity="0.4" d="M174.878 12.926H164.087V77.2332H174.878V12.926Z" fill="#E6E6E6"/>
<path opacity="0.4" d="M174.882 72.0674H180.231V12.9259H174.882V72.0674Z" fill="#F5F5F5"/>
<path opacity="0.4" d="M191.021 12.926H180.231V77.2332H191.021V12.926Z" fill="#E6E6E6"/>
<path opacity="0.4" d="M191.026 72.0674H196.374V12.9259H191.026V72.0674Z" fill="#F5F5F5"/>
<path opacity="0.4" d="M207.164 12.926H196.374V77.2332H207.164V12.926Z" fill="#E6E6E6"/>
</g>
<path d="M41.1569 161.626H66.4624V109.623H41.1569L41.1569 161.626Z" fill="#EBEBEB"/>
<path d="M45.9623 161.626H41.1567V151.033H51.0046L45.9623 161.626Z" fill="#F5F5F5"/>
<path d="M185.54 161.626H210.845V109.623H185.54V161.626Z" fill="#EBEBEB"/>
<path d="M41.1569 155.128L189.733 155.128V109.623L41.1569 109.623V155.128Z" fill="#F5F5F5"/>
<path d="M184.795 142.29H140.751C140.643 142.29 140.54 142.247 140.464 142.172C140.389 142.096 140.346 141.993 140.346 141.886V113.077C140.346 112.97 140.389 112.867 140.464 112.791C140.54 112.715 140.643 112.672 140.751 112.672H148.881C148.969 112.671 149.054 112.698 149.123 112.751C150.332 113.635 151.672 114.323 153.095 114.789C154.81 115.357 156.606 115.644 158.414 115.638H167.127C170.46 115.696 173.724 114.69 176.447 112.766C176.514 112.714 176.598 112.686 176.683 112.687H184.819C184.927 112.687 185.029 112.73 185.105 112.806C185.181 112.882 185.224 112.985 185.224 113.092V141.886C185.224 141.941 185.213 141.995 185.191 142.046C185.169 142.097 185.137 142.143 185.097 142.181C185.057 142.219 185.009 142.248 184.957 142.267C184.905 142.285 184.85 142.293 184.795 142.29ZM141.155 141.481H184.39V113.496H176.792C173.959 115.47 170.579 116.506 167.127 116.457H158.414C156.519 116.463 154.636 116.161 152.838 115.564C151.379 115.085 150.002 114.386 148.753 113.491H141.155V141.481Z" fill="#E6E6E6"/>
<path d="M137.469 142.29H93.4204C93.3131 142.29 93.2102 142.247 93.1344 142.172C93.0585 142.096 93.0159 141.993 93.0159 141.886V113.077C93.0159 112.97 93.0585 112.867 93.1344 112.791C93.2102 112.715 93.3131 112.672 93.4204 112.672H101.112C101.199 112.671 101.285 112.698 101.354 112.751C102.554 113.634 103.886 114.322 105.301 114.789C107.017 115.357 108.813 115.644 110.62 115.638H119.333C122.654 115.687 125.905 114.676 128.613 112.751C128.683 112.7 128.768 112.672 128.855 112.672H137.469C137.523 112.672 137.576 112.682 137.625 112.702C137.674 112.722 137.719 112.752 137.757 112.789C137.795 112.827 137.824 112.872 137.845 112.921C137.865 112.971 137.875 113.024 137.874 113.077V141.871C137.876 141.925 137.867 141.979 137.848 142.03C137.828 142.081 137.799 142.127 137.761 142.166C137.723 142.206 137.678 142.237 137.628 142.258C137.578 142.279 137.524 142.29 137.469 142.29ZM93.83 141.481H137.065V113.496H129.013C126.184 115.47 122.806 116.505 119.357 116.457H110.644C108.75 116.463 106.867 116.161 105.069 115.564C103.607 115.088 102.227 114.389 100.979 113.491H93.825L93.83 141.481Z" fill="#E6E6E6"/>
<path d="M90.1396 142.29H46.0955C45.9882 142.29 45.8853 142.247 45.8094 142.172C45.7336 142.096 45.6909 141.993 45.6909 141.886V113.077C45.6903 113.024 45.7003 112.971 45.7204 112.921C45.7405 112.872 45.7703 112.827 45.808 112.789C45.8457 112.752 45.8905 112.722 45.9399 112.702C45.9893 112.682 46.0422 112.672 46.0955 112.672H53.7873C53.8729 112.671 53.9563 112.699 54.0241 112.751C55.2253 113.633 56.5571 114.32 57.9712 114.789C59.6884 115.357 61.4861 115.644 63.2948 115.638H72.0079C75.3325 115.686 78.5862 114.675 81.2982 112.751C81.3675 112.698 81.4528 112.671 81.54 112.672H90.1149C90.2222 112.672 90.3251 112.715 90.401 112.791C90.4768 112.867 90.5195 112.97 90.5195 113.077V141.871C90.5235 141.976 90.486 142.079 90.415 142.158C90.344 142.236 90.2452 142.284 90.1396 142.29ZM46.5001 141.481H89.735V113.496H81.7176C78.8866 115.47 75.5078 116.505 72.0572 116.457H63.3194C61.4249 116.464 59.5419 116.162 57.7442 115.564C56.2822 115.088 54.9025 114.389 53.6541 113.491H46.5001V141.481Z" fill="#E6E6E6"/>
<path d="M184.928 161.626H189.733V151.033H179.89L184.928 161.626Z" fill="#F5F5F5"/>
<path d="M71.3271 100.911H67.3357C67.3653 98.1476 67.3357 91.1317 67.0544 75.0623C66.561 45.9529 65.6384 44.157 65.6384 44.157L70.3699 58.5341C71.4934 61.9153 72.1475 65.4347 72.3139 68.9937C72.8368 80.2033 70.8633 89.1533 71.3271 100.911Z" fill="#E6E6E6"/>
<path d="M74.3614 54.1972C79.6849 46.1403 90.3124 41.9367 101.177 37.9798C105.439 36.4256 93.47 55.702 84.7668 64.4447C78.0074 71.2336 71.4455 71.0807 69.5065 77.766C69.1315 70.0002 69.7729 61.1391 74.3614 54.1972Z" fill="#E6E6E6"/>
<path d="M68.263 49.0266C64.089 39.603 53.5455 27.382 41.6945 18.7725C37.0419 15.3928 48.5229 44.4283 56.6192 56.299C62.9246 65.5548 68.8057 71.1892 69.7234 77.7906C73.7001 69.5314 72.4321 58.4452 68.263 49.0266Z" fill="#E6E6E6"/>
<path d="M68.6579 109.624C70.9142 109.624 73.0851 108.76 74.7254 107.211C76.3656 105.661 77.351 103.543 77.4795 101.291L78.264 93.3027H59.0518L59.8313 101.291C59.961 103.544 60.9475 105.662 62.5885 107.211C64.2296 108.761 66.401 109.624 68.6579 109.624Z" fill="#F0F0F0"/>
<path d="M57.8084 93.3469H79.5073L80.129 90.51H57.1868L57.8084 93.3469Z" fill="#F0F0F0"/>
<path d="M58.8791 98.2117H78.4367L78.9992 95.3748H58.3167L58.8791 98.2117Z" fill="#F0F0F0"/>
<path d="M123.655 183.907C176.487 183.907 219.316 181.406 219.316 178.322C219.316 175.237 176.487 172.737 123.655 172.737C70.8225 172.737 27.9934 175.237 27.9934 178.322C27.9934 181.406 70.8225 183.907 123.655 183.907Z" fill="#F5F5F5"/>
<path d="M200.267 130.015H47.0378V147.362H200.267V130.015Z" fill="#407BFF"/>
<path opacity="0.3" d="M200.272 130.015H167.403V147.362H200.272V130.015Z" fill="black"/>
<path d="M63.9559 147.362H47.0378V178.322H63.9559V147.362Z" fill="#407BFF"/>
<path opacity="0.3" d="M47.0427 147.362V149.094L59.022 152.71V178.322H63.9558V147.362H47.0427Z" fill="black"/>
<path d="M200.272 147.362H183.354V178.322H200.272V147.362Z" fill="#407BFF"/>
<path opacity="0.2" d="M200.272 147.362H183.354V178.322H200.272V147.362Z" fill="black"/>
<path opacity="0.3" d="M183.354 147.362V149.094L195.338 152.71V178.322H200.272V147.362H183.354Z" fill="black"/>
<path d="M167.403 147.362H150.485V178.322H167.403V147.362Z" fill="#407BFF"/>
<path opacity="0.3" d="M150.485 147.362V149.094L162.469 152.71V178.322H167.403V147.362H150.485Z" fill="black"/>
<path d="M96.8247 147.362H79.9067V178.322H96.8247V147.362Z" fill="#407BFF"/>
<path opacity="0.2" d="M96.8247 147.362H79.9067V178.322H96.8247V147.362Z" fill="black"/>
<path opacity="0.3" d="M79.9067 147.362V149.094L91.8909 152.71V178.322H96.8247V147.362H79.9067Z" fill="black"/>
<path d="M179.15 126.606H85.4673C85.1754 126.608 84.8861 126.55 84.6179 126.434C84.3497 126.319 84.1082 126.149 83.9089 125.936C83.7095 125.723 83.5565 125.471 83.4596 125.195C83.3627 124.92 83.3239 124.627 83.3458 124.336L87.204 63.1126C87.2529 62.5024 87.5269 61.9322 87.9727 61.5127C88.4186 61.0933 89.0046 60.8546 89.6166 60.8431H183.295C183.587 60.8409 183.876 60.8993 184.144 61.0145C184.412 61.1298 184.654 61.2994 184.853 61.5127C185.053 61.7259 185.205 61.9782 185.302 62.2536C185.399 62.529 185.438 62.8215 185.416 63.1126L181.558 124.336C181.509 124.946 181.236 125.515 180.791 125.934C180.346 126.354 179.762 126.593 179.15 126.606Z" fill="#263238"/>
<path opacity="0.6" d="M179.15 126.606H85.4673C85.1754 126.608 84.8861 126.55 84.6179 126.434C84.3497 126.319 84.1082 126.149 83.9089 125.936C83.7095 125.723 83.5565 125.471 83.4596 125.195C83.3627 124.92 83.3239 124.627 83.3458 124.336L87.204 63.1126C87.2529 62.5024 87.5269 61.9322 87.9727 61.5127C88.4186 61.0933 89.0046 60.8546 89.6166 60.8431H183.295C183.587 60.8409 183.876 60.8993 184.144 61.0145C184.412 61.1298 184.654 61.2994 184.853 61.5127C185.053 61.7259 185.205 61.9782 185.302 62.2536C185.399 62.529 185.438 62.8215 185.416 63.1126L181.558 124.336C181.509 124.946 181.236 125.515 180.791 125.934C180.346 126.354 179.762 126.593 179.15 126.606Z" fill="black"/>
<path d="M178.45 126.606H84.7715C84.4792 126.609 84.1894 126.551 83.9206 126.436C83.6518 126.321 83.4098 126.151 83.2099 125.938C83.01 125.725 82.8566 125.472 82.7593 125.196C82.6621 124.921 82.6232 124.628 82.6451 124.336L86.5033 63.1127C86.5522 62.5025 86.8262 61.9322 87.2721 61.5128C87.718 61.0933 88.3039 60.8546 88.9159 60.8431H182.594C182.886 60.8402 183.176 60.8981 183.444 61.0131C183.713 61.1281 183.955 61.2977 184.154 61.5111C184.354 61.7245 184.507 61.9771 184.603 62.2529C184.7 62.5286 184.738 62.8214 184.716 63.1127L180.857 124.336C180.809 124.946 180.535 125.515 180.09 125.935C179.646 126.354 179.061 126.593 178.45 126.606Z" fill="#263238"/>
<path d="M178.331 127.385H66.8619C66.3488 127.38 65.8448 127.521 65.4082 127.791C64.9717 128.061 64.6204 128.449 64.395 128.91C64.3379 129.029 64.3123 129.162 64.3206 129.294C64.3289 129.426 64.3709 129.555 64.4425 129.666C64.5142 129.778 64.6131 129.869 64.73 129.932C64.8468 129.995 64.9778 130.027 65.1104 130.025H180.058C180.191 130.027 180.322 129.995 180.439 129.932C180.555 129.869 180.654 129.778 180.726 129.666C180.798 129.555 180.84 129.426 180.848 129.294C180.856 129.162 180.831 129.029 180.774 128.91C180.551 128.452 180.204 128.066 179.772 127.796C179.34 127.526 178.841 127.384 178.331 127.385Z" fill="#263238"/>
<path opacity="0.6" d="M178.331 127.385H162.479C161.969 127.384 161.47 127.526 161.038 127.795C160.606 128.065 160.259 128.451 160.037 128.91C159.98 129.029 159.954 129.161 159.962 129.293C159.97 129.425 160.012 129.553 160.083 129.664C160.154 129.776 160.252 129.867 160.368 129.93C160.485 129.994 160.615 130.026 160.747 130.025H180.058C180.191 130.027 180.322 129.995 180.438 129.932C180.555 129.87 180.654 129.778 180.726 129.666C180.798 129.555 180.839 129.427 180.848 129.294C180.856 129.162 180.83 129.03 180.773 128.91C180.551 128.452 180.204 128.066 179.772 127.796C179.34 127.527 178.84 127.384 178.331 127.385Z" fill="black"/>
<path d="M168.503 129.31H164.408C164.313 129.308 164.223 129.27 164.156 129.202C164.09 129.135 164.053 129.044 164.053 128.95C164.053 128.855 164.09 128.764 164.156 128.697C164.223 128.629 164.313 128.591 164.408 128.589H168.503C168.55 128.589 168.597 128.599 168.641 128.617C168.685 128.635 168.724 128.661 168.758 128.695C168.791 128.728 168.818 128.768 168.836 128.812C168.854 128.855 168.863 128.902 168.863 128.95C168.863 128.997 168.854 129.044 168.836 129.087C168.818 129.131 168.791 129.171 168.758 129.204C168.724 129.238 168.685 129.264 168.641 129.282C168.597 129.3 168.55 129.31 168.503 129.31Z" fill="#407BFF"/>
<path opacity="0.7" d="M115.845 129.31H111.754C111.659 129.31 111.567 129.272 111.5 129.204C111.432 129.137 111.394 129.045 111.394 128.95C111.394 128.902 111.404 128.855 111.422 128.812C111.44 128.768 111.466 128.728 111.5 128.695C111.533 128.661 111.573 128.635 111.617 128.617C111.66 128.599 111.707 128.589 111.754 128.589H115.845C115.892 128.589 115.939 128.599 115.982 128.617C116.026 128.635 116.066 128.661 116.099 128.695C116.133 128.728 116.159 128.768 116.177 128.812C116.195 128.855 116.205 128.902 116.205 128.95C116.205 129.045 116.167 129.137 116.099 129.204C116.032 129.272 115.94 129.31 115.845 129.31Z" fill="white"/>
<path d="M172.741 128.589H170.062C169.899 128.589 169.766 128.722 169.766 128.885V129.014C169.766 129.177 169.899 129.31 170.062 129.31H172.741C172.905 129.31 173.037 129.177 173.037 129.014V128.885C173.037 128.722 172.905 128.589 172.741 128.589Z" fill="#407BFF"/>
<path d="M84.7567 122.126L88.3386 65.3229C88.3571 65.0859 88.4635 64.8644 88.6369 64.7019C88.8104 64.5394 89.0384 64.4477 89.276 64.4447H181.78C181.893 64.4429 182.006 64.4649 182.11 64.5092C182.214 64.5534 182.308 64.619 182.386 64.7017C182.464 64.7843 182.523 64.8823 182.561 64.9893C182.598 65.0962 182.613 65.2099 182.604 65.3229L179.027 122.126C179.007 122.363 178.9 122.585 178.725 122.747C178.551 122.91 178.323 123.001 178.084 123.004H85.5855C85.4722 123.005 85.3599 122.982 85.2556 122.938C85.1514 122.894 85.0574 122.828 84.9796 122.746C84.9018 122.663 84.8419 122.566 84.8035 122.459C84.7651 122.352 84.7492 122.239 84.7567 122.126Z" fill="white"/>
<path opacity="0.1" d="M137.381 62.6934L106.569 121.258H83.839C83.725 121.259 83.6119 121.237 83.5069 121.193C83.4019 121.148 83.3074 121.082 83.2294 120.999C83.1514 120.916 83.0916 120.818 83.0538 120.71C83.016 120.602 83.0011 120.488 83.0101 120.374L86.592 63.5765C86.6104 63.3391 86.7167 63.117 86.89 62.9537C87.0633 62.7904 87.2913 62.6976 87.5295 62.6934H137.381Z" fill="#407BFF"/>
<path opacity="0.1" d="M164.364 62.6934L133.552 121.258H126.368L157.18 62.6934H164.364Z" fill="#407BFF"/>
<path opacity="0.1" d="M180.857 63.5766L177.275 120.374C177.258 120.612 177.152 120.835 176.979 120.999C176.805 121.162 176.576 121.255 176.338 121.258H141.308L172.119 62.6934H180.014C180.129 62.6903 180.243 62.7114 180.349 62.7553C180.456 62.7991 180.552 62.8647 180.631 62.9479C180.711 63.0311 180.772 63.13 180.811 63.2383C180.85 63.3466 180.866 63.4618 180.857 63.5766Z" fill="#407BFF"/>
<path opacity="0.4" d="M136.3 62.7523C136.287 62.9312 136.207 63.0987 136.076 63.2219C135.946 63.3451 135.774 63.4152 135.595 63.4184C135.509 63.4193 135.424 63.4024 135.345 63.3687C135.266 63.3349 135.195 63.2851 135.137 63.2225C135.078 63.1598 135.034 63.0856 135.005 63.0047C134.977 62.9237 134.966 62.8377 134.973 62.7523C134.985 62.5729 135.065 62.4048 135.196 62.2814C135.326 62.1579 135.499 62.0883 135.678 62.0862C135.764 62.0853 135.849 62.1022 135.928 62.1359C136.007 62.1696 136.078 62.2194 136.136 62.2821C136.195 62.3448 136.24 62.419 136.268 62.4999C136.296 62.5809 136.307 62.6668 136.3 62.7523Z" fill="white"/>
<path d="M121.015 49.1299C118.316 52.2185 116.757 61.6864 118.756 66.344C120.754 71.0015 97.5698 75.6639 116.698 83.2324C135.827 90.8008 151.126 82.0236 145.591 74.1838C140.055 66.344 146.188 53.2891 139.779 50.0081C133.986 47.0182 126.423 42.938 121.015 49.1299Z" fill="#263238"/>
<path d="M115.297 87.2537C114.286 90.7074 113.21 94.161 112.095 97.6147C110.98 101.068 109.821 104.483 108.592 107.912L108.123 109.204L107.886 109.851L107.812 110.043L107.694 110.334C107.62 110.522 107.507 110.724 107.408 110.916C106.926 111.797 106.206 112.525 105.331 113.018C104.536 113.449 103.649 113.683 102.745 113.699C101.478 113.705 100.221 113.458 99.0501 112.974C98.0912 112.585 97.1627 112.124 96.2723 111.597C93.0375 109.608 90.0725 107.21 87.4507 104.463L89.5772 101.956C90.2926 102.415 91.0573 102.904 91.7974 103.363C92.5374 103.821 93.312 104.265 94.062 104.705C95.5315 105.565 97.0486 106.34 98.606 107.028C99.3157 107.341 100.048 107.6 100.797 107.803C101.314 107.975 101.862 108.039 102.405 107.99C102.543 107.99 102.519 107.912 102.405 107.956C102.292 108 102.168 108.129 102.163 108.114C102.158 108.099 102.163 108.114 102.163 108.084C102.166 108.074 102.166 108.064 102.163 108.055L102.203 107.931L102.39 107.295L102.77 106.012L105.785 95.651C106.811 92.1974 107.867 88.7437 108.952 85.29L115.297 87.2537Z" fill="#B65B52"/>
<path d="M89.424 101.878L83.6909 99.7561L85.9654 105.815C85.9654 105.815 90.0111 106.397 91.5801 104.271L90.3022 102.558C90.0807 102.252 89.7759 102.016 89.424 101.878Z" fill="#B55B52"/>
<path d="M78.6338 101.517L80.8145 106.486L85.9901 105.805L83.7107 99.7461L78.6338 101.517Z" fill="#B55B52"/>
<path d="M111.113 78.3186C108.488 78.9847 106.673 89.7749 106.673 89.7749L113.901 94.7087C113.901 94.7087 120.808 83.8247 118.81 80.9434C116.688 77.919 114.937 77.3466 111.113 78.3186Z" fill="#407BFF"/>
<path opacity="0.5" d="M111.113 78.3186C108.488 78.9847 106.673 89.7749 106.673 89.7749L113.901 94.7087C113.901 94.7087 120.808 83.8247 118.81 80.9434C116.688 77.919 114.937 77.3466 111.113 78.3186Z" fill="white"/>
<path opacity="0.2" d="M110.876 82.241L116.486 83.5386L117.024 89.0299C116.073 90.9686 115.024 92.8574 113.881 94.6889L109.495 91.7287C109.687 89.1878 110.161 83.9678 110.876 82.241Z" fill="black"/>
<path d="M111.113 78.3185C111.113 78.3185 108.079 79.3842 114.152 116.713H139.986C139.552 106.199 139.542 99.7114 144.564 78.1359C140.948 77.3882 137.283 76.9051 133.597 76.6903C129.25 76.4782 125.702 76.34 121.864 76.6903C116.827 77.1492 111.113 78.3185 111.113 78.3185Z" fill="#407BFF"/>
<path opacity="0.5" d="M111.113 78.3185C111.113 78.3185 108.079 79.3842 114.152 116.713H139.986C139.552 106.199 139.542 99.7114 144.564 78.1359C140.948 77.3882 137.283 76.9051 133.597 76.6903C129.25 76.4782 125.702 76.34 121.864 76.6903C116.827 77.1492 111.113 78.3185 111.113 78.3185Z" fill="white"/>
<path opacity="0.2" d="M138.486 88.1516L141.821 90.9935C141.111 94.7678 140.632 97.9008 140.341 100.708C139.705 97.9057 138.116 90.2978 138.486 88.1516Z" fill="black"/>
<path d="M132.432 63.4778C131.692 67.2521 130.952 74.1693 133.596 76.6905C133.596 76.6905 131.13 82.3446 124.592 82.3446C118.055 82.3446 121.864 76.6905 121.864 76.6905C126.072 75.7037 125.964 72.5609 125.234 69.6302L132.432 63.4778Z" fill="#B55B52"/>
<path d="M132.758 75.2793C132.136 76.5374 130.133 79.4138 124.538 80.4401C124.383 80.4686 124.222 80.4369 124.089 80.3512C123.043 79.621 122.392 78.0768 122.851 76.2858C122.881 76.1758 122.88 76.0594 122.848 75.9499C122.816 75.8404 122.753 75.7421 122.668 75.6661C122.583 75.5901 122.478 75.5395 122.366 75.52C122.253 75.5005 122.137 75.5128 122.032 75.5556C121.602 75.7354 121.189 75.9534 120.798 76.2069C120.712 76.2638 120.643 76.342 120.596 76.4338C120.186 77.2035 118.529 80.9729 123.532 83.2967C123.611 83.3309 123.696 83.3509 123.783 83.3559C126.743 83.4151 131.919 82.8329 135.19 76.942C135.249 76.8356 135.274 76.7144 135.265 76.5934C135.255 76.4724 135.21 76.3569 135.136 76.2611C134.696 75.7799 134.185 75.3689 133.621 75.0425C133.55 74.9968 133.47 74.9667 133.387 74.9539C133.303 74.9412 133.218 74.9461 133.137 74.9685C133.055 74.9908 132.979 75.03 132.914 75.0836C132.849 75.1371 132.796 75.2038 132.758 75.2793Z" fill="#FAFAFA"/>
<path d="M134.129 90.8112L127.469 90.6187C127.399 90.6192 127.33 90.6048 127.267 90.5767C127.203 90.5486 127.146 90.5073 127.099 90.4556C127.053 90.4039 127.017 90.3429 126.996 90.2766C126.975 90.2103 126.968 90.1403 126.975 90.0711L127.04 89.2471C127.059 89.1086 127.128 88.9818 127.235 88.8909C127.341 88.8 127.477 88.7512 127.617 88.7538L134.277 88.9462C134.348 88.9457 134.417 88.9601 134.481 88.9885C134.545 89.0169 134.602 89.0587 134.649 89.1109C134.696 89.1632 134.731 89.2249 134.752 89.2917C134.773 89.3586 134.779 89.4292 134.771 89.4988L134.707 90.3178C134.687 90.4564 134.618 90.5831 134.512 90.674C134.405 90.7649 134.269 90.8137 134.129 90.8112Z" fill="#FAFAFA"/>
<path opacity="0.2" d="M129.496 65.989L125.234 69.6252C125.417 70.3071 125.539 71.0039 125.599 71.7073C127.202 71.4754 129.413 69.7091 129.585 68.0267C129.68 67.3477 129.65 66.6572 129.496 65.989Z" fill="black"/>
<path d="M137.405 56.3386C136.216 62.5404 135.846 65.1898 132.274 67.9873C126.901 72.2008 119.545 69.3786 118.864 62.9499C118.248 57.1625 120.295 47.9955 126.758 46.2983C128.175 45.9219 129.664 45.9133 131.084 46.2733C132.505 46.6332 133.81 47.3499 134.876 48.3553C135.942 49.3607 136.734 50.6216 137.177 52.0187C137.62 53.4157 137.698 54.9026 137.405 56.3386Z" fill="#B55B52"/>
<path d="M133.877 51.7499C133.108 55.6328 132.925 60.7788 136.483 60.7788C140.04 60.7788 142.827 54.725 139.759 49.9836C136.69 45.2422 134.326 49.4606 133.877 51.7499Z" fill="#263238"/>
<path d="M140.025 52.2285C140.025 56.4518 134.707 54.3648 132.353 52.5442C130 50.7237 129.886 50.921 125.525 50.9161C121.163 50.9111 120.29 50.6102 119.002 48.5281C117.715 46.4461 117.833 45.0745 120.734 45.5136C123.635 45.9527 121.198 42.9924 123.359 41.3494C125.52 39.7065 128.08 40.1209 131.036 43.8706C133.991 47.6203 140.025 44.9116 140.025 52.2285Z" fill="#263238"/>
<path d="M138.464 61.8567C139.023 59.9479 138.474 58.1065 137.237 57.7439C136.001 57.3813 134.544 58.6348 133.985 60.5436C133.425 62.4524 133.974 64.2937 135.211 64.6563C136.448 65.0189 137.904 63.7655 138.464 61.8567Z" fill="white"/>
<path d="M128.589 66.6305C127.443 66.6303 126.31 66.3969 125.258 65.9447C125.236 65.9355 125.215 65.9219 125.198 65.9048C125.181 65.8876 125.167 65.8671 125.158 65.8446C125.149 65.8221 125.144 65.7979 125.145 65.7736C125.145 65.7493 125.15 65.7252 125.16 65.7029C125.18 65.6579 125.217 65.6226 125.263 65.6042C125.309 65.5858 125.36 65.5858 125.406 65.6043C126.398 66.0297 127.464 66.252 128.543 66.2579C129.622 66.2638 130.691 66.0533 131.687 65.6388C132.656 65.2424 133.535 64.6562 134.274 63.9149C135.013 63.1735 135.596 62.2918 135.989 61.3217C137.469 57.0836 138.979 51.7945 137.233 48.4938C136.881 47.8514 136.395 47.2926 135.807 46.8557C135.22 46.4188 134.545 46.1142 133.828 45.9628C133.781 45.95 133.74 45.9191 133.715 45.8766C133.69 45.8341 133.683 45.7836 133.695 45.7358C133.708 45.6883 133.739 45.6476 133.781 45.6227C133.824 45.5978 133.874 45.5906 133.922 45.6026C134.687 45.7673 135.408 46.0949 136.036 46.5632C136.663 47.0314 137.183 47.6293 137.558 48.3162C139.374 51.7255 137.859 57.1181 136.335 61.4352C135.921 62.454 135.308 63.3796 134.531 64.1575C133.754 64.9354 132.829 65.5498 131.81 65.9644C130.79 66.3933 129.696 66.6195 128.589 66.6305Z" fill="white"/>
<path opacity="0.6" d="M138.284 61.8743C137.844 63.3545 136.838 64.3955 136.034 64.1636C135.23 63.9317 134.934 62.5207 135.373 61.0208C135.812 59.5209 136.818 58.4947 137.622 58.7315C138.427 58.9683 138.723 60.3744 138.284 61.8743Z" fill="#407BFF"/>
<path d="M125.771 65.1283L123.838 64.7554C123.498 64.6899 123.169 64.9122 123.104 65.252L123.082 65.3634C123.017 65.7032 123.239 66.0318 123.579 66.0973L125.512 66.4703C125.851 66.5358 126.18 66.3135 126.246 65.9737L126.267 65.8623C126.333 65.5225 126.11 65.1939 125.771 65.1283Z" fill="white"/>
<path d="M123.245 56.8567C123.245 56.8567 122.101 58.9338 121.015 59.8663C121.603 60.5817 122.787 60.4436 122.787 60.4436L123.245 56.8567Z" fill="#A02724"/>
<path d="M124.336 63.0978H124.38C125.499 63.1861 126.609 62.8477 127.489 62.1505C127.507 62.1321 127.517 62.1073 127.517 62.0815C127.517 62.0556 127.507 62.0308 127.489 62.0124C127.48 62.0036 127.469 61.9966 127.458 61.9918C127.447 61.9871 127.434 61.9846 127.422 61.9846C127.41 61.9846 127.397 61.9871 127.386 61.9918C127.374 61.9966 127.364 62.0036 127.355 62.0124C126.516 62.6723 125.46 62.9944 124.395 62.9153C124.382 62.9132 124.369 62.9138 124.357 62.9169C124.344 62.9201 124.333 62.9257 124.322 62.9336C124.312 62.9415 124.304 62.9514 124.298 62.9626C124.291 62.9739 124.288 62.9863 124.286 62.9992C124.284 63.0187 124.287 63.0385 124.296 63.056C124.305 63.0736 124.319 63.0882 124.336 63.0978Z" fill="#263238"/>
<path d="M129.98 54.4142C130.008 54.4298 130.039 54.4379 130.071 54.4379C130.103 54.4379 130.135 54.4298 130.163 54.4142C130.205 54.386 130.235 54.3425 130.246 54.2929C130.257 54.2432 130.248 54.1913 130.222 54.1478C129.986 53.7527 129.659 53.4195 129.269 53.1758C128.878 52.9321 128.436 52.785 127.977 52.7466C127.925 52.7466 127.876 52.7667 127.839 52.8026C127.802 52.8386 127.781 52.8875 127.78 52.939C127.78 52.9892 127.799 53.0374 127.834 53.0733C127.869 53.1093 127.917 53.1301 127.967 53.1314C128.362 53.1691 128.743 53.2996 129.078 53.5122C129.413 53.7248 129.694 54.0136 129.896 54.355C129.918 54.382 129.947 54.4024 129.98 54.4142Z" fill="#263238"/>
<path d="M127.153 56.9406C127.069 57.434 126.729 57.8139 126.393 57.7596C126.058 57.7053 125.865 57.2662 125.949 56.7334C126.033 56.2005 126.378 55.8601 126.709 55.9144C127.039 55.9686 127.242 56.4324 127.153 56.9406Z" fill="#263238"/>
<path d="M121.4 55.9636C121.316 56.457 120.976 56.8369 120.64 56.7826C120.305 56.7283 120.112 56.2646 120.196 55.7564C120.28 55.2482 120.626 54.8782 120.956 54.9374C121.287 54.9966 121.489 55.4505 121.4 55.9636Z" fill="#263238"/>
<path d="M121.099 54.9917L119.935 54.4292C119.935 54.4292 120.398 55.49 121.099 54.9917Z" fill="#263238"/>
<path d="M126.852 55.9684L125.688 55.4109C125.688 55.4109 126.151 56.4717 126.852 55.9684Z" fill="#263238"/>
<path d="M119.446 52.5248C119.476 52.5426 119.51 52.552 119.545 52.552C119.58 52.552 119.614 52.5426 119.644 52.5248C119.948 52.2689 120.31 52.0904 120.698 52.0045C121.086 51.9186 121.49 51.9278 121.874 52.0314C121.922 52.0484 121.975 52.0455 122.022 52.0233C122.068 52.0011 122.103 51.9614 122.12 51.913C122.137 51.8646 122.134 51.8114 122.112 51.7651C122.09 51.7189 122.05 51.6833 122.002 51.6663C121.559 51.5402 121.093 51.5228 120.642 51.6156C120.191 51.7083 119.769 51.9085 119.412 52.1992C119.391 52.2137 119.374 52.2324 119.361 52.254C119.348 52.2757 119.339 52.2998 119.336 52.3248C119.333 52.3498 119.335 52.3753 119.342 52.3995C119.349 52.4237 119.361 52.4462 119.377 52.4656C119.394 52.4919 119.418 52.5125 119.446 52.5248Z" fill="#263238"/>
<path d="M113.171 123.004C113.171 123.004 113.102 119.471 114.157 116.713H139.986C139.986 116.713 142.31 120.463 142.912 123.004H113.171Z" fill="#407BFF"/>
<path d="M140.375 115.199L140.578 117.508C140.671 117.69 140.459 117.873 140.158 117.873H114.009C113.777 117.873 113.585 117.759 113.57 117.611L113.333 115.297C113.333 115.139 113.521 115.001 113.777 115.001H139.926C140.012 114.992 140.098 115.006 140.177 115.04C140.256 115.075 140.324 115.129 140.375 115.199Z" fill="#407BFF"/>
<path opacity="0.3" d="M140.375 115.199L140.578 117.508C140.671 117.69 140.459 117.873 140.158 117.873H114.009C113.777 117.873 113.585 117.759 113.57 117.611L113.333 115.297C113.333 115.139 113.521 115.001 113.777 115.001H139.926C140.012 114.992 140.098 115.006 140.177 115.04C140.256 115.075 140.324 115.129 140.375 115.199Z" fill="#FAFAFA"/>
<path d="M136.858 118.12H137.558C137.701 118.12 137.805 118.05 137.795 117.962L137.469 114.957C137.469 114.868 137.336 114.799 137.198 114.799H136.483C136.34 114.799 136.236 114.868 136.246 114.957L136.571 117.962C136.596 118.05 136.719 118.12 136.858 118.12Z" fill="#407BFF"/>
<path d="M115.993 118.12H116.693C116.831 118.12 116.94 118.05 116.93 117.962L116.6 114.957C116.6 114.868 116.471 114.799 116.328 114.799H115.628C115.489 114.799 115.381 114.868 115.391 114.957L115.721 117.962C115.731 118.05 115.855 118.12 115.993 118.12Z" fill="#407BFF"/>
<path d="M126.427 118.12H127.108C127.246 118.12 127.355 118.05 127.345 117.962L127.015 114.957C127.015 114.868 126.881 114.799 126.743 114.799H126.043C125.904 114.799 125.796 114.868 125.806 114.957L126.136 117.962C126.166 118.05 126.284 118.12 126.427 118.12Z" fill="#407BFF"/>
<path d="M146.775 85.448C147.909 89.1319 149 92.8355 150.046 96.5589L151.62 102.114L152.404 104.877L152.601 105.558L152.7 105.899L152.725 105.978L152.646 105.854C152.521 105.676 152.368 105.519 152.192 105.39C151.806 105.11 151.346 104.947 150.87 104.922C150.509 104.905 150.15 104.976 149.824 105.129C149.468 105.321 149.503 105.366 149.533 105.331C149.616 105.259 149.692 105.178 149.76 105.089C149.992 104.799 150.206 104.494 150.401 104.177C150.835 103.466 151.264 102.667 151.669 101.848C152.508 100.21 153.263 98.4732 154.027 96.7267C154.792 94.9801 155.507 93.2138 156.247 91.4327C156.988 89.6516 157.693 87.8606 158.423 86.0943L161.576 87.0318C160.757 90.8801 159.8 94.6594 158.616 98.4239C158.033 100.314 157.387 102.183 156.642 104.078C156.257 105.025 155.848 105.973 155.34 106.954C155.069 107.486 154.766 108 154.432 108.494C154.224 108.804 153.994 109.097 153.741 109.372C153.341 109.826 152.854 110.197 152.31 110.462C151.767 110.726 151.167 110.852 150.564 110.827C149.848 110.788 149.161 110.535 148.59 110.102C148.226 109.828 147.911 109.494 147.658 109.115C147.497 108.872 147.357 108.617 147.238 108.351C147.194 108.242 147.145 108.129 147.11 108.03L147.016 107.788L146.888 107.438L146.631 106.742C146.296 105.82 145.956 104.897 145.645 103.974C145.013 102.129 144.382 100.289 143.79 98.4387C142.579 94.7416 141.451 91.0265 140.405 87.2932L146.775 85.448Z" fill="#B65B52"/>
<path d="M144.564 78.1362C147.155 78.9207 151.117 89.0794 151.117 89.0794L141.076 96.2581C141.076 96.2581 136.562 87.5746 137.647 84.2295C138.782 80.7462 141.614 77.2383 144.564 78.1362Z" fill="#407BFF"/>
<path opacity="0.5" d="M144.564 78.1362C147.155 78.9207 151.117 89.0794 151.117 89.0794L141.076 96.2581C141.076 96.2581 136.562 87.5746 137.647 84.2295C138.782 80.7462 141.614 77.2383 144.564 78.1362Z" fill="white"/>
<path d="M158.537 87.446L157.16 81.3774L162.883 84.3969C162.883 84.3969 162.952 88.4821 160.643 89.7698L158.537 87.446Z" fill="#B55B52"/>
<path d="M159.558 76.5623L163.209 79.1525L162.883 84.3971L157.16 81.3776L159.558 76.5623Z" fill="#B55B52"/>
<path d="M57.0487 46.022H97.0125C97.7756 46.0145 98.5318 46.1654 99.2336 46.4651C99.9353 46.7648 100.567 47.2069 101.089 47.7633C101.611 48.3198 102.012 48.9785 102.267 49.6979C102.522 50.4172 102.624 51.1816 102.568 51.9426L101.453 70.0299C101.33 71.6221 100.618 73.1114 99.4557 74.2063C98.2932 75.3013 96.764 75.9232 95.1673 75.9504H90.5394L92.429 82.1621L83.3903 75.9504H55.2183C54.4553 75.958 53.699 75.8071 52.9973 75.5074C52.2955 75.2076 51.6636 74.7656 51.1415 74.2091C50.6194 73.6527 50.2184 72.9939 49.9638 72.2746C49.7093 71.5552 49.6068 70.7909 49.6628 70.0299L50.768 51.9426C50.8905 50.3511 51.602 48.8626 52.7635 47.7677C53.9249 46.6729 55.4529 46.0504 57.0487 46.022Z" fill="#407BFF"/>
<path d="M93.3517 55.4946H59.5551C59.4116 55.4939 59.2699 55.4633 59.1388 55.4048C59.0078 55.3464 58.8903 55.2614 58.7938 55.1552C58.6973 55.049 58.624 54.9239 58.5784 54.7878C58.5328 54.6517 58.5159 54.5077 58.5289 54.3648C58.551 54.0654 58.6842 53.785 58.9024 53.5787C59.1205 53.3724 59.4079 53.2551 59.7081 53.2498H93.5096C93.6523 53.2501 93.7935 53.2797 93.9243 53.3369C94.0551 53.3941 94.1727 53.4776 94.2699 53.5821C94.3671 53.6867 94.4417 53.8102 94.4891 53.9448C94.5366 54.0794 94.5558 54.2224 94.5457 54.3648C94.5281 54.6698 94.3947 54.9566 94.1728 55.1666C93.9509 55.3765 93.6572 55.4939 93.3517 55.4946Z" fill="white"/>
<path d="M73.3304 62.101H59.1507C59.0071 62.102 58.8648 62.0734 58.7329 62.0168C58.6009 61.9602 58.4821 61.8769 58.3838 61.7722C58.2856 61.6675 58.2101 61.5436 58.162 61.4083C58.114 61.273 58.0945 61.1292 58.1047 60.986C58.1269 60.6857 58.2608 60.4046 58.48 60.1982C58.6992 59.9918 58.9877 59.875 59.2888 59.8709H73.4833C73.6273 59.8692 73.7701 59.8974 73.9027 59.9536C74.0352 60.0099 74.1547 60.0931 74.2534 60.1979C74.3522 60.3027 74.4282 60.4268 74.4765 60.5625C74.5248 60.6981 74.5445 60.8423 74.5343 60.986C74.5107 61.2892 74.3736 61.5724 74.1505 61.779C73.9274 61.9857 73.6345 62.1007 73.3304 62.101Z" fill="white"/>
<path d="M85.4821 68.7075H58.7459C58.6023 68.7085 58.46 68.6798 58.3281 68.6232C58.1961 68.5667 58.0773 68.4834 57.979 68.3787C57.8808 68.274 57.8053 68.15 57.7573 68.0147C57.7092 67.8794 57.6897 67.7356 57.6999 67.5924C57.721 67.2917 57.8545 67.01 58.074 66.8034C58.2934 66.5968 58.5826 66.4804 58.884 66.4774H85.6203C85.7641 66.4756 85.9067 66.5037 86.039 66.5601C86.1713 66.6164 86.2905 66.6997 86.3888 66.8045C86.4872 66.9094 86.5627 67.0336 86.6105 67.1693C86.6582 67.3049 86.6772 67.449 86.6663 67.5924C86.6441 67.8927 86.5102 68.1737 86.291 68.3801C86.0718 68.5866 85.7832 68.7033 85.4821 68.7075Z" fill="white"/>
<path d="M83.7455 62.101H78.1555C78.012 62.102 77.8697 62.0734 77.7377 62.0168C77.6058 61.9602 77.4869 61.877 77.3887 61.7722C77.2905 61.6675 77.215 61.5436 77.1669 61.4083C77.1189 61.273 77.0994 61.1292 77.1096 60.986C77.1328 60.6861 77.2671 60.4057 77.486 60.1995C77.705 59.9933 77.993 59.8762 78.2937 59.8709H83.8787C84.0225 59.8691 84.1651 59.8973 84.2974 59.9536C84.4298 60.01 84.5489 60.0932 84.6473 60.1981C84.7457 60.303 84.8212 60.4272 84.8689 60.5628C84.9167 60.6985 84.9357 60.8426 84.9247 60.986C84.9026 61.2854 84.7694 61.5658 84.5513 61.7721C84.3331 61.9783 84.0457 62.0957 83.7455 62.101Z" fill="white"/>
<path d="M112.697 13.508H90.9093C89.6669 13.5267 88.4763 14.0093 87.5716 14.8611C86.6669 15.7128 86.1134 16.8722 86.0199 18.1112L85.1713 32.1923C85.129 32.7843 85.2099 33.3787 85.4087 33.938C85.6075 34.4972 85.92 35.0092 86.3265 35.4417C86.7331 35.8741 87.2248 36.2177 87.7706 36.4507C88.3165 36.6837 88.9048 36.8011 89.4983 36.7956H93.0654L91.0031 41.6307L98.6307 36.7956H111.271C112.514 36.7769 113.704 36.2943 114.609 35.4425C115.514 34.5907 116.067 33.4314 116.161 32.1923L117.024 18.1112C117.066 17.5192 116.985 16.9248 116.787 16.3656C116.588 15.8064 116.275 15.2944 115.869 14.8619C115.462 14.4294 114.971 14.0859 114.425 13.8528C113.879 13.6198 113.291 13.5024 112.697 13.508Z" fill="#407BFF"/>
<g opacity="0.5">
<path opacity="0.5" d="M112.697 13.508H90.9093C89.6669 13.5267 88.4763 14.0093 87.5716 14.8611C86.6669 15.7128 86.1134 16.8722 86.0199 18.1112L85.1713 32.1923C85.129 32.7843 85.2099 33.3787 85.4087 33.938C85.6075 34.4972 85.92 35.0092 86.3265 35.4417C86.7331 35.8741 87.2248 36.2177 87.7706 36.4507C88.3165 36.6837 88.9048 36.8011 89.4983 36.7956H93.0654L91.0031 41.6307L98.6307 36.7956H111.271C112.514 36.7769 113.704 36.2943 114.609 35.4425C115.514 34.5907 116.067 33.4314 116.161 32.1923L117.024 18.1112C117.066 17.5192 116.985 16.9248 116.787 16.3656C116.588 15.8064 116.275 15.2944 115.869 14.8619C115.462 14.4294 114.971 14.0859 114.425 13.8528C113.879 13.6198 113.291 13.5024 112.697 13.508Z" fill="#FAFAFA"/>
</g>
<path d="M102.193 27.4557C102.118 27.7658 101.941 28.0418 101.691 28.2394C101.44 28.4371 101.131 28.5451 100.812 28.5461H99.5239C99.5239 28.181 99.5535 27.9589 99.5584 27.88C99.5771 27.1688 99.7594 26.4716 100.091 25.8423C100.557 25.1409 101.15 24.532 101.838 24.0464C102.387 23.6487 102.905 23.21 103.387 22.734C103.643 22.4311 103.795 22.0542 103.821 21.6585C103.841 21.3963 103.8 21.1332 103.701 20.8894C103.603 20.6456 103.45 20.4276 103.254 20.2523C102.775 19.8423 102.156 19.6336 101.527 19.6701C100.865 19.6521 100.219 19.8688 99.7015 20.2819C99.3942 20.5355 99.1423 20.8495 98.9614 21.2046C98.8282 21.4639 98.6213 21.6781 98.3668 21.8203C98.1122 21.9625 97.8213 22.0263 97.5306 22.0038C97.3215 21.9779 97.1222 21.8997 96.9513 21.7764C96.7804 21.653 96.6433 21.4886 96.5528 21.2982C96.4623 21.1079 96.4213 20.8978 96.4335 20.6874C96.4457 20.477 96.5109 20.273 96.6228 20.0945C96.9205 19.5948 97.3028 19.1507 97.7527 18.7821C98.8219 17.9225 100.166 17.4791 101.537 17.5338C103.15 17.5338 104.403 17.9532 105.306 18.7969C105.729 19.1603 106.062 19.6167 106.278 20.1303C106.495 20.644 106.589 21.2008 106.555 21.7571C106.509 22.3895 106.291 22.9972 105.923 23.5136C105.23 24.3669 104.429 25.1265 103.54 25.7733C103.079 26.0948 102.682 26.4978 102.366 26.9623C102.286 27.1179 102.227 27.284 102.193 27.4557ZM99.3759 30.9982V30.8403C99.4018 30.4837 99.5608 30.1499 99.8212 29.9051C100.082 29.6602 100.425 29.522 100.782 29.518H100.96C101.131 29.5155 101.3 29.5486 101.458 29.6152C101.615 29.6817 101.757 29.7803 101.875 29.9046C101.992 30.029 102.082 30.1763 102.14 30.3374C102.197 30.4985 102.22 30.6697 102.208 30.8403V30.9982C102.182 31.3552 102.023 31.6895 101.763 31.9352C101.503 32.1809 101.16 32.3201 100.802 32.3254H100.644C100.471 32.3307 100.299 32.2996 100.138 32.234C99.9781 32.1683 99.8335 32.0697 99.7139 31.9446C99.5943 31.8194 99.5024 31.6704 99.4441 31.5073C99.3859 31.3443 99.3626 31.1708 99.3759 30.9982Z" fill="white"/>
</svg>
