<svg width="312" height="232" viewBox="0 0 312 232" fill="none" xmlns="http://www.w3.org/2000/svg">
<path d="M53.568 38.1049C70.9469 1.09989 132.657 6.32231 156.466 32.341C180.275 58.3596 188.025 75.0415 209.506 65.3311C230.987 55.6208 258.381 58.2102 259.925 89.0841C261.468 119.958 236.352 156.465 196.403 167.265C156.454 178.064 156.466 216.289 103.595 208.577C74.7688 204.375 74.1153 173.184 78.1861 147.39C82.257 121.595 33.4128 81.017 53.568 38.1049Z" fill="#407BFF"/>
<path opacity="0.9" d="M53.568 38.1049C70.9469 1.09989 132.657 6.32231 156.466 32.341C180.275 58.3596 188.025 75.0415 209.506 65.3311C230.987 55.6208 258.381 58.2102 259.925 89.0841C261.468 119.958 236.352 156.465 196.403 167.265C156.454 178.064 156.466 216.289 103.595 208.577C74.7688 204.375 74.1153 173.184 78.1861 147.39C82.257 121.595 33.4128 81.017 53.568 38.1049Z" fill="white"/>
<path d="M156.385 232C223.039 232 277.073 228.845 277.073 224.954C277.073 221.062 223.039 217.908 156.385 217.908C89.7311 217.908 35.6973 221.062 35.6973 224.954C35.6973 228.845 89.7311 232 156.385 232Z" fill="#F5F5F5"/>
<path d="M250.937 209.386C250.937 209.386 253.894 202.938 250.514 196.576C247.134 190.215 246.157 188.721 248.311 187.413C250.464 186.106 251.454 192.505 251.454 192.505C252.519 189.616 252.628 186.461 251.765 183.504C250.271 178.904 249.331 171.41 251.373 170.607C253.415 169.804 251.765 179.944 253.545 183.417C254.448 180.986 255.032 178.448 255.282 175.867C255.525 172.17 255.145 166.269 256.757 164.756C258.37 163.243 259.409 164.289 257.822 172.443C256.868 177.318 256.341 182.267 256.247 187.233C256.247 187.233 259.751 176.533 262.11 176.222C264.47 175.91 264.463 179.371 262.447 182.378C260.43 185.384 256.54 190.768 255.905 193.538C255.905 193.538 259.758 185.484 263.218 187.936C266.679 190.389 260.206 195.263 257.318 197.024C254.429 198.786 252.425 209.791 252.425 209.791L250.937 209.386Z" fill="#407BFF"/>
<path opacity="0.2" d="M250.937 209.386C250.937 209.386 253.894 202.938 250.514 196.576C247.134 190.215 246.157 188.721 248.311 187.413C250.464 186.106 251.454 192.505 251.454 192.505C252.519 189.616 252.628 186.461 251.765 183.504C250.271 178.904 249.331 171.41 251.373 170.607C253.415 169.804 251.765 179.944 253.545 183.417C254.448 180.986 255.032 178.448 255.282 175.867C255.525 172.17 255.145 166.269 256.757 164.756C258.37 163.243 259.409 164.289 257.822 172.443C256.868 177.318 256.341 182.267 256.247 187.233C256.247 187.233 259.751 176.533 262.11 176.222C264.47 175.91 264.463 179.371 262.447 182.378C260.43 185.384 256.54 190.768 255.905 193.538C255.905 193.538 259.758 185.484 263.218 187.936C266.679 190.389 260.206 195.263 257.318 197.024C254.429 198.786 252.425 209.791 252.425 209.791L250.937 209.386Z" fill="black"/>
<path d="M253.271 212.032C253.271 212.032 250.389 205.539 253.844 199.228C257.299 192.916 258.295 191.435 256.16 190.103C254.025 188.77 252.954 195.144 252.954 195.144C251.922 192.244 251.85 189.088 252.748 186.144C254.298 181.562 255.332 174.081 253.296 173.246C251.261 172.412 252.792 182.583 250.974 186.025C250.1 183.582 249.545 181.036 249.325 178.45C249.126 174.753 249.58 168.858 247.98 167.321C246.381 165.783 245.335 166.816 246.829 174.996C247.724 179.88 248.19 184.832 248.223 189.798C248.223 189.798 244.843 179.048 242.497 178.705C240.15 178.363 240.106 181.818 242.086 184.855C244.065 187.893 247.887 193.333 248.51 196.109C248.51 196.109 244.775 188.017 241.264 190.42C237.753 192.823 244.19 197.79 247.053 199.595C249.916 201.4 251.796 212.436 251.796 212.436L253.271 212.032Z" fill="#407BFF"/>
<path d="M239.988 207.401H263.772L261.848 224.425H241.911L239.988 207.401Z" fill="#263238"/>
<path d="M151.78 221.692V223.927C151.78 223.993 151.767 224.059 151.742 224.12C151.717 224.181 151.679 224.237 151.633 224.283C151.586 224.33 151.53 224.367 151.469 224.393C151.408 224.418 151.342 224.431 151.276 224.431H88.1466C87.6082 224.431 87.0779 224.299 86.6024 224.047C86.1268 223.794 85.7204 223.429 85.4187 222.983C85.1171 222.537 84.9294 222.024 84.8722 221.488C84.8149 220.953 84.8899 220.412 85.0904 219.912L105.096 170.365L137.426 170.582L136.325 177.012L129.191 218.624C129.138 218.939 129.154 219.262 129.238 219.571C129.322 219.879 129.473 220.166 129.679 220.411C129.885 220.655 130.142 220.852 130.432 220.987C130.722 221.123 131.038 221.193 131.358 221.194H151.276C151.342 221.193 151.407 221.206 151.469 221.23C151.53 221.255 151.585 221.292 151.632 221.338C151.679 221.384 151.716 221.439 151.742 221.5C151.767 221.561 151.78 221.626 151.78 221.692Z" fill="#263238"/>
<path opacity="0.5" d="M151.78 221.692V223.927C151.78 223.993 151.767 224.059 151.742 224.12C151.717 224.181 151.679 224.237 151.633 224.283C151.586 224.33 151.53 224.367 151.469 224.393C151.408 224.418 151.342 224.431 151.276 224.431H88.1466C87.6082 224.431 87.0779 224.299 86.6024 224.047C86.1268 223.794 85.7204 223.429 85.4187 222.983C85.1171 222.537 84.9294 222.024 84.8722 221.488C84.8149 220.953 84.8899 220.412 85.0904 219.912L97.4959 189.194L105.096 170.365L137.426 170.582L136.325 177.012L133.212 195.107L129.185 218.624C129.132 218.939 129.148 219.262 129.232 219.571C129.316 219.879 129.467 220.166 129.673 220.411C129.879 220.655 130.136 220.852 130.426 220.987C130.716 221.123 131.031 221.193 131.351 221.194H151.27C151.336 221.193 151.402 221.204 151.464 221.229C151.526 221.253 151.583 221.289 151.63 221.336C151.678 221.382 151.715 221.437 151.741 221.499C151.767 221.56 151.78 221.626 151.78 221.692Z" fill="white"/>
<path opacity="0.2" d="M131.357 221.188H90.2749C90.0382 221.187 89.8054 221.128 89.5968 221.017C89.3882 220.905 89.2102 220.743 89.0787 220.547C88.9471 220.35 88.8659 220.124 88.8422 219.888C88.8185 219.653 88.8531 219.415 88.9429 219.196L106.484 177.006H136.318L129.185 218.617C129.131 218.933 129.147 219.257 129.232 219.566C129.317 219.875 129.467 220.162 129.674 220.407C129.881 220.651 130.139 220.848 130.429 220.983C130.72 221.118 131.037 221.188 131.357 221.188Z" fill="black"/>
<path opacity="0.1" d="M137.426 170.576L136.324 177.006L133.218 195.101L97.4956 189.194L105.096 170.358L137.426 170.576Z" fill="black"/>
<path d="M200.288 78.2161H50.6181C50.1154 78.2161 49.6176 78.3151 49.1532 78.5075C48.6887 78.6998 48.2667 78.9818 47.9113 79.3373C47.5558 79.6928 47.2738 80.1148 47.0814 80.5792C46.8891 81.0437 46.79 81.5415 46.79 82.0442V183.374C46.79 184.389 47.1934 185.363 47.9113 186.081C48.6292 186.799 49.6029 187.202 50.6181 187.202H200.288C201.304 187.202 202.278 186.799 202.997 186.081C203.716 185.363 204.12 184.39 204.122 183.374V82.0442C204.12 81.0283 203.716 80.0546 202.997 79.3369C202.278 78.6192 201.304 78.2161 200.288 78.2161Z" fill="#263238"/>
<path opacity="0.6" d="M200.288 78.2161H50.6181C50.1154 78.2161 49.6176 78.3151 49.1532 78.5075C48.6887 78.6998 48.2667 78.9818 47.9113 79.3373C47.5558 79.6928 47.2738 80.1148 47.0814 80.5792C46.8891 81.0437 46.79 81.5415 46.79 82.0442V183.374C46.79 184.389 47.1934 185.363 47.9113 186.081C48.6292 186.799 49.6029 187.202 50.6181 187.202H200.288C201.304 187.202 202.278 186.799 202.997 186.081C203.716 185.363 204.12 184.39 204.122 183.374V82.0442C204.12 81.0283 203.716 80.0546 202.997 79.3369C202.278 78.6192 201.304 78.2161 200.288 78.2161Z" fill="white"/>
<path opacity="0.2" d="M53.7927 187.196H50.6182C49.604 187.196 48.6312 186.793 47.9135 186.077C47.1957 185.36 46.7917 184.388 46.79 183.374V82.0503C46.7892 81.5471 46.8876 81.0486 47.0797 80.5835C47.2717 80.1183 47.5535 79.6955 47.9091 79.3394C48.2646 78.9833 48.6869 78.7008 49.1518 78.508C49.6166 78.3152 50.1149 78.216 50.6182 78.216H53.7927C53.2879 78.2135 52.7876 78.3109 52.3205 78.5026C51.8535 78.6943 51.429 78.9764 51.0715 79.3328C50.714 79.6892 50.4305 80.1127 50.2373 80.5791C50.0441 81.0455 49.9451 81.5455 49.9459 82.0503V183.374C49.9459 183.878 50.0456 184.377 50.2392 184.842C50.4328 185.307 50.7166 185.73 51.0741 186.085C51.4316 186.44 51.8559 186.721 52.3225 186.912C52.789 187.102 53.2887 187.199 53.7927 187.196Z" fill="black"/>
<path d="M200.673 81.5088H53.4189V179.216H200.673V81.5088Z" fill="#407BFF"/>
<path opacity="0.4" d="M125.014 118.7C132.075 118.7 137.799 112.976 137.799 105.915C137.799 98.8542 132.075 93.13 125.014 93.13C117.953 93.13 112.229 98.8542 112.229 105.915C112.229 112.976 117.953 118.7 125.014 118.7Z" fill="white"/>
<path d="M121.964 103.973V102.803C121.964 102.245 122.186 101.71 122.58 101.315C122.975 100.921 123.51 100.699 124.068 100.699H125.936C126.214 100.696 126.49 100.748 126.748 100.852C127.006 100.956 127.241 101.111 127.439 101.306C127.637 101.502 127.795 101.735 127.902 101.992C128.009 102.249 128.064 102.525 128.064 102.803V103.998H129.428V102.803C129.426 101.884 129.06 101.003 128.41 100.353C127.76 99.7033 126.879 99.3375 125.96 99.3358H124.093C123.174 99.3375 122.293 99.7033 121.643 100.353C120.993 101.003 120.628 101.884 120.626 102.803V103.998L121.964 103.973Z" fill="white"/>
<path d="M118.883 105.548V111.829C118.883 111.92 118.901 112.011 118.936 112.095C118.971 112.18 119.022 112.257 119.087 112.322C119.152 112.386 119.229 112.438 119.313 112.473C119.398 112.508 119.488 112.526 119.58 112.526H130.448C130.54 112.526 130.63 112.508 130.715 112.473C130.799 112.438 130.876 112.386 130.941 112.322C131.006 112.257 131.057 112.18 131.092 112.095C131.127 112.011 131.145 111.92 131.145 111.829V105.548C131.145 105.363 131.072 105.186 130.941 105.055C130.81 104.924 130.633 104.851 130.448 104.851H119.58C119.488 104.851 119.398 104.869 119.313 104.904C119.229 104.939 119.152 104.99 119.087 105.055C119.022 105.12 118.971 105.197 118.936 105.281C118.901 105.366 118.883 105.456 118.883 105.548ZM125.406 109.102V110.347H124.641V109.102C124.529 109.04 124.434 108.95 124.367 108.841C124.299 108.732 124.261 108.608 124.255 108.48C124.255 108.273 124.337 108.075 124.482 107.93C124.628 107.784 124.826 107.702 125.033 107.702C125.239 107.702 125.437 107.784 125.583 107.93C125.729 108.075 125.811 108.273 125.811 108.48C125.803 108.61 125.761 108.735 125.69 108.844C125.62 108.953 125.522 109.042 125.406 109.102Z" fill="white"/>
<path d="M93.8229 129.288H81.7472C81.0287 129.288 80.4463 129.871 80.4463 130.589V142.665C80.4463 143.383 81.0287 143.966 81.7472 143.966H93.8229C94.5414 143.966 95.1238 143.383 95.1238 142.665V130.589C95.1238 129.871 94.5414 129.288 93.8229 129.288Z" fill="white"/>
<path d="M112.441 129.27H100.365C99.6464 129.27 99.064 129.852 99.064 130.571V142.646C99.064 143.365 99.6464 143.947 100.365 143.947H112.441C113.159 143.947 113.741 143.365 113.741 142.646V130.571C113.741 129.852 113.159 129.27 112.441 129.27Z" fill="white"/>
<path d="M131.052 129.251H118.976C118.258 129.251 117.675 129.834 117.675 130.552V142.628C117.675 143.346 118.258 143.929 118.976 143.929H131.052C131.77 143.929 132.353 143.346 132.353 142.628V130.552C132.353 129.834 131.77 129.251 131.052 129.251Z" fill="white"/>
<path d="M149.664 129.226H137.588C136.87 129.226 136.287 129.809 136.287 130.527V142.603C136.287 143.322 136.87 143.904 137.588 143.904H149.664C150.382 143.904 150.965 143.322 150.965 142.603V130.527C150.965 129.809 150.382 129.226 149.664 129.226Z" fill="white"/>
<path d="M168.275 129.208H156.199C155.481 129.208 154.898 129.79 154.898 130.508V142.584C154.898 143.303 155.481 143.885 156.199 143.885H168.275C168.994 143.885 169.576 143.303 169.576 142.584V130.508C169.576 129.79 168.994 129.208 168.275 129.208Z" fill="white"/>
<path d="M159.006 136.833C159.006 134.25 160.388 132.781 162.243 132.781C164.098 132.781 165.473 134.25 165.473 136.833C165.473 139.416 164.091 140.885 162.243 140.885C160.394 140.885 159.006 139.416 159.006 136.833ZM164.34 136.833C164.34 134.804 163.475 133.789 162.243 133.789C161.01 133.789 160.139 134.804 160.139 136.833C160.139 138.862 160.998 139.877 162.243 139.877C163.488 139.877 164.34 138.856 164.34 136.833Z" fill="#263238"/>
<path d="M90.7348 136.733C90.7348 139.435 89.2036 140.885 87.0001 140.885C86.3124 140.909 85.6307 140.748 85.0269 140.418L85.4253 139.528C85.8876 139.795 86.4167 139.925 86.9503 139.901C88.5562 139.901 89.5771 138.893 89.5771 136.907V136.627C89.3114 136.975 88.9637 137.251 88.565 137.432C88.1664 137.612 87.7292 137.691 87.2926 137.661C85.7178 137.661 84.585 136.721 84.585 135.264C84.585 133.808 85.8299 132.774 87.3798 132.774C89.5335 132.781 90.7348 134.206 90.7348 136.733ZM89.3405 135.227C89.3405 134.411 88.7181 133.696 87.4732 133.696C87.2553 133.669 87.0342 133.689 86.8246 133.754C86.615 133.82 86.4216 133.928 86.257 134.073C86.0924 134.219 85.9603 134.397 85.8696 134.597C85.7788 134.797 85.7313 135.014 85.7303 135.233C85.7303 136.167 86.4212 136.764 87.5354 136.764C88.6496 136.764 89.3405 136.098 89.3405 135.227Z" fill="#263238"/>
<path d="M103.166 136.833C103.166 134.25 104.547 132.781 106.402 132.781C108.257 132.781 109.633 134.25 109.633 136.833C109.633 139.416 108.251 140.885 106.402 140.885C104.554 140.885 103.166 139.416 103.166 136.833ZM108.5 136.833C108.5 134.804 107.641 133.789 106.402 133.789C105.164 133.789 104.298 134.804 104.298 136.833C104.298 138.862 105.157 139.877 106.402 139.877C107.647 139.877 108.5 138.862 108.5 136.833Z" fill="#263238"/>
<path d="M127.878 139.808V140.773H122.182V140.026L125.407 136.914C126.247 136.098 126.403 135.6 126.403 135.102C126.403 134.287 125.83 133.789 124.716 133.789C124.335 133.768 123.955 133.834 123.604 133.983C123.254 134.132 122.942 134.359 122.693 134.648L121.921 133.982C122.285 133.579 122.734 133.262 123.236 133.054C123.738 132.847 124.279 132.753 124.822 132.78C126.471 132.78 127.535 133.627 127.535 134.984C127.535 135.756 127.311 136.447 126.235 137.474L123.813 139.802L127.878 139.808Z" fill="#263238"/>
<path d="M144.56 132.868V140.773H143.44V133.857H141.647V132.868H144.56Z" fill="#263238"/>
<g opacity="0.6">
<path opacity="0.6" d="M111.09 125.703V125.983H108.93V122.927H111.022V123.207H109.254V124.296H110.829V124.589H109.254V125.722L111.09 125.703Z" fill="white"/>
<path opacity="0.6" d="M113.89 124.651V125.983H113.579V124.682C113.598 124.586 113.593 124.486 113.566 124.392C113.538 124.297 113.489 124.21 113.421 124.139C113.354 124.067 113.27 124.012 113.178 123.979C113.085 123.946 112.986 123.935 112.888 123.948C112.779 123.94 112.669 123.956 112.566 123.996C112.463 124.035 112.37 124.096 112.294 124.175C112.217 124.254 112.159 124.348 112.123 124.452C112.087 124.556 112.074 124.666 112.085 124.776V125.983H111.78V123.687H112.073V124.11C112.166 123.966 112.296 123.85 112.45 123.774C112.603 123.697 112.773 123.663 112.944 123.674C113.074 123.663 113.205 123.681 113.327 123.727C113.448 123.772 113.559 123.845 113.649 123.938C113.74 124.032 113.809 124.144 113.85 124.268C113.892 124.391 113.906 124.522 113.89 124.651Z" fill="white"/>
<path opacity="0.6" d="M115.927 125.834C115.79 125.945 115.617 126.002 115.441 125.996C115.351 126.003 115.261 125.991 115.177 125.96C115.092 125.93 115.015 125.881 114.951 125.818C114.888 125.754 114.838 125.678 114.807 125.594C114.775 125.509 114.762 125.419 114.769 125.33V123.967H114.358V123.705H114.769V123.207H115.08V123.705H115.777V123.967H115.08V125.336C115.08 125.61 115.217 125.753 115.472 125.753C115.596 125.757 115.717 125.717 115.814 125.641L115.927 125.834Z" fill="white"/>
<path opacity="0.6" d="M118.417 124.931H116.5C116.514 125.156 116.617 125.367 116.786 125.516C116.955 125.665 117.177 125.742 117.402 125.728C117.534 125.732 117.665 125.708 117.787 125.656C117.908 125.605 118.017 125.527 118.105 125.429L118.28 125.628C118.11 125.788 117.899 125.896 117.67 125.942C117.442 125.987 117.205 125.968 116.988 125.885C116.77 125.803 116.579 125.661 116.438 125.476C116.297 125.291 116.21 125.07 116.188 124.838C116.18 124.686 116.202 124.535 116.255 124.393C116.308 124.25 116.389 124.121 116.495 124.011C116.6 123.902 116.726 123.816 116.866 123.758C117.006 123.7 117.157 123.671 117.309 123.674C117.46 123.671 117.61 123.7 117.749 123.758C117.889 123.816 118.015 123.902 118.119 124.012C118.223 124.121 118.303 124.251 118.355 124.394C118.406 124.536 118.427 124.687 118.417 124.838C118.417 124.838 118.417 124.894 118.417 124.931ZM116.5 124.701H118.124C118.106 124.498 118.013 124.309 117.863 124.171C117.712 124.033 117.516 123.957 117.312 123.957C117.108 123.957 116.911 124.033 116.761 124.171C116.611 124.309 116.517 124.498 116.5 124.701Z" fill="white"/>
<path opacity="0.6" d="M120.204 123.674V123.967H120.129C120.019 123.961 119.91 123.979 119.809 124.021C119.707 124.063 119.616 124.126 119.543 124.207C119.469 124.288 119.414 124.385 119.382 124.489C119.35 124.594 119.341 124.705 119.357 124.813V125.983H119.04V123.687H119.338V124.135C119.418 123.979 119.544 123.851 119.699 123.769C119.853 123.687 120.03 123.653 120.204 123.674Z" fill="white"/>
<path opacity="0.6" d="M123.863 123.686L122.718 126.257C122.525 126.705 122.282 126.848 121.952 126.848C121.85 126.852 121.749 126.835 121.653 126.799C121.558 126.763 121.471 126.707 121.398 126.637L121.541 126.407C121.594 126.464 121.659 126.509 121.731 126.539C121.803 126.569 121.88 126.583 121.958 126.581C122.164 126.581 122.301 126.487 122.431 126.201L122.531 125.977L121.529 123.686H121.852L122.711 125.635L123.577 123.686H123.863Z" fill="white"/>
<path opacity="0.6" d="M124.019 124.838C124.017 124.606 124.085 124.379 124.213 124.186C124.341 123.993 124.523 123.842 124.737 123.752C124.95 123.663 125.186 123.639 125.413 123.683C125.641 123.728 125.85 123.839 126.014 124.002C126.178 124.165 126.291 124.374 126.336 124.601C126.382 124.828 126.359 125.064 126.271 125.278C126.182 125.492 126.032 125.675 125.84 125.804C125.647 125.933 125.421 126.002 125.189 126.002C125.034 126.008 124.88 125.982 124.735 125.926C124.591 125.869 124.46 125.784 124.35 125.675C124.24 125.566 124.154 125.435 124.097 125.291C124.04 125.147 124.013 124.993 124.019 124.838ZM126.035 124.838C126.028 124.671 125.972 124.509 125.873 124.374C125.775 124.239 125.639 124.135 125.483 124.077C125.326 124.018 125.155 124.007 124.992 124.044C124.829 124.082 124.681 124.166 124.566 124.288C124.45 124.409 124.373 124.561 124.344 124.726C124.315 124.891 124.334 125.06 124.401 125.214C124.467 125.367 124.577 125.498 124.718 125.589C124.858 125.681 125.022 125.729 125.189 125.728C125.303 125.727 125.415 125.703 125.52 125.658C125.624 125.612 125.718 125.545 125.795 125.462C125.873 125.379 125.933 125.28 125.971 125.173C126.009 125.065 126.024 124.951 126.017 124.838H126.035Z" fill="white"/>
<path opacity="0.6" d="M129.029 123.686V125.983H128.737V125.56C128.652 125.702 128.53 125.817 128.384 125.895C128.238 125.973 128.074 126.01 127.909 126.002C127.777 126.015 127.645 125.998 127.52 125.953C127.396 125.908 127.283 125.836 127.191 125.741C127.098 125.647 127.028 125.533 126.985 125.408C126.943 125.283 126.929 125.15 126.944 125.018V123.686H127.249V124.987C127.231 125.084 127.235 125.184 127.263 125.278C127.29 125.373 127.34 125.459 127.407 125.531C127.474 125.603 127.558 125.657 127.651 125.69C127.743 125.724 127.842 125.734 127.94 125.722C128.048 125.728 128.156 125.71 128.257 125.67C128.358 125.63 128.448 125.569 128.522 125.49C128.597 125.411 128.653 125.316 128.686 125.214C128.72 125.111 128.731 125.002 128.718 124.894V123.686H129.029Z" fill="white"/>
<path opacity="0.6" d="M131.052 123.674V123.967H130.978C130.868 123.961 130.759 123.979 130.657 124.021C130.556 124.063 130.465 124.126 130.391 124.207C130.318 124.288 130.263 124.385 130.231 124.489C130.198 124.594 130.19 124.705 130.206 124.813V125.983H129.895V123.686H130.193V124.135C130.273 123.98 130.398 123.853 130.551 123.771C130.705 123.688 130.879 123.655 131.052 123.674Z" fill="white"/>
<path opacity="0.6" d="M132.578 124.458C132.566 124.138 132.651 123.823 132.821 123.551C132.99 123.28 133.237 123.065 133.529 122.935C133.821 122.805 134.146 122.765 134.461 122.821C134.776 122.876 135.068 123.024 135.298 123.247C135.528 123.469 135.687 123.755 135.753 124.068C135.82 124.381 135.792 124.706 135.672 125.003C135.552 125.3 135.347 125.554 135.081 125.733C134.816 125.912 134.504 126.008 134.184 126.008C133.975 126.017 133.767 125.983 133.572 125.908C133.377 125.834 133.199 125.721 133.049 125.576C132.899 125.432 132.78 125.258 132.699 125.066C132.618 124.873 132.577 124.667 132.578 124.458ZM135.46 124.458C135.467 124.202 135.397 123.949 135.259 123.732C135.121 123.516 134.921 123.346 134.686 123.244C134.45 123.142 134.189 123.114 133.937 123.162C133.685 123.21 133.453 123.333 133.271 123.515C133.09 123.696 132.967 123.928 132.918 124.18C132.87 124.432 132.899 124.693 133 124.929C133.102 125.165 133.272 125.365 133.489 125.503C133.705 125.641 133.958 125.711 134.215 125.703C134.545 125.703 134.862 125.572 135.095 125.339C135.328 125.105 135.46 124.788 135.46 124.458Z" fill="white"/>
<path opacity="0.6" d="M137.053 123.207H135.982V122.927H138.472V123.207H137.395V125.983H137.071L137.053 123.207Z" fill="white"/>
<path opacity="0.6" d="M141.353 123.967C141.353 124.589 140.88 125.006 140.108 125.006H139.293V125.971H138.957V122.915H140.096C140.88 122.927 141.353 123.344 141.353 123.967ZM141.029 123.967C141.029 123.475 140.706 123.195 140.096 123.195H139.286V124.72H140.096C140.706 124.732 141.029 124.458 141.029 123.967Z" fill="white"/>
</g>
<g opacity="0.6">
<path opacity="0.6" d="M112.908 151.909L113.032 151.666C113.312 151.908 113.671 152.039 114.041 152.033C114.607 152.033 114.856 151.797 114.856 151.492C114.856 150.658 112.989 151.168 112.989 150.041C112.989 149.593 113.337 149.207 114.109 149.207C114.444 149.203 114.772 149.296 115.055 149.475L114.949 149.73C114.698 149.57 114.407 149.484 114.109 149.481C113.555 149.481 113.306 149.73 113.306 150.035C113.306 150.869 115.173 150.365 115.173 151.473C115.173 151.927 114.819 152.307 114.041 152.307C113.626 152.323 113.221 152.18 112.908 151.909Z" fill="white"/>
<path opacity="0.6" d="M117.794 151.23H115.877C115.891 151.455 115.994 151.666 116.163 151.815C116.332 151.964 116.554 152.04 116.779 152.027C116.911 152.031 117.042 152.007 117.164 151.955C117.285 151.903 117.394 151.826 117.483 151.728L117.657 151.927C117.547 152.053 117.411 152.152 117.258 152.217C117.105 152.283 116.939 152.314 116.773 152.307C116.615 152.317 116.457 152.293 116.309 152.238C116.16 152.183 116.025 152.098 115.911 151.988C115.798 151.878 115.708 151.745 115.649 151.599C115.589 151.452 115.561 151.295 115.565 151.137C115.558 150.986 115.581 150.834 115.634 150.693C115.687 150.551 115.769 150.421 115.874 150.312C115.979 150.203 116.105 150.117 116.245 150.058C116.384 150 116.534 149.971 116.686 149.973C116.837 149.969 116.988 149.997 117.128 150.055C117.269 150.112 117.395 150.199 117.5 150.308C117.605 150.418 117.686 150.548 117.738 150.691C117.789 150.834 117.81 150.985 117.8 151.137C117.8 151.137 117.794 151.199 117.794 151.23ZM115.877 151H117.501C117.483 150.797 117.39 150.608 117.24 150.47C117.089 150.332 116.893 150.256 116.689 150.256C116.485 150.256 116.288 150.332 116.138 150.47C115.988 150.608 115.894 150.797 115.877 151Z" fill="white"/>
<path opacity="0.6" d="M120.552 150.95V152.282H120.247V150.981C120.264 150.885 120.258 150.786 120.23 150.692C120.202 150.599 120.153 150.513 120.086 150.442C120.018 150.371 119.935 150.317 119.843 150.284C119.751 150.251 119.653 150.241 119.556 150.253C119.446 150.245 119.336 150.261 119.233 150.301C119.131 150.34 119.038 150.401 118.961 150.48C118.885 150.559 118.826 150.653 118.79 150.757C118.754 150.861 118.741 150.972 118.753 151.081V152.282H118.417V149.992H118.715V150.415C118.808 150.27 118.938 150.153 119.091 150.075C119.244 149.998 119.415 149.962 119.587 149.973C119.718 149.959 119.851 149.975 119.975 150.019C120.099 150.063 120.212 150.135 120.305 150.229C120.397 150.323 120.468 150.436 120.51 150.561C120.553 150.686 120.567 150.819 120.552 150.95Z" fill="white"/>
<path opacity="0.6" d="M123.496 149.045V152.282H123.197V151.828C123.106 151.979 122.976 152.104 122.821 152.188C122.665 152.272 122.49 152.313 122.313 152.307C122.019 152.286 121.743 152.153 121.542 151.937C121.34 151.72 121.229 151.436 121.229 151.14C121.229 150.844 121.34 150.56 121.542 150.343C121.743 150.127 122.019 149.994 122.313 149.973C122.486 149.967 122.656 150.005 122.809 150.085C122.962 150.165 123.091 150.283 123.185 150.427V149.045H123.496ZM123.191 151.137C123.184 150.97 123.128 150.809 123.03 150.674C122.932 150.538 122.796 150.435 122.64 150.376C122.483 150.317 122.313 150.306 122.15 150.343C121.987 150.38 121.839 150.464 121.723 150.584C121.608 150.705 121.53 150.857 121.5 151.021C121.47 151.185 121.489 151.355 121.555 151.509C121.62 151.662 121.729 151.793 121.869 151.885C122.008 151.978 122.171 152.027 122.338 152.027C122.454 152.029 122.569 152.007 122.676 151.962C122.783 151.918 122.879 151.852 122.959 151.768C123.039 151.685 123.101 151.585 123.141 151.477C123.181 151.368 123.198 151.252 123.191 151.137Z" fill="white"/>
<path opacity="0.6" d="M127.231 150.863V152.282H126.932V151.927C126.846 152.055 126.727 152.157 126.588 152.224C126.449 152.29 126.295 152.319 126.142 152.307C125.625 152.307 125.308 152.033 125.308 151.635C125.308 151.236 125.532 151.012 126.192 151.012H126.92V150.875C126.929 150.791 126.919 150.707 126.89 150.627C126.862 150.548 126.817 150.475 126.757 150.416C126.697 150.356 126.625 150.31 126.546 150.282C126.466 150.254 126.381 150.244 126.297 150.253C126.017 150.249 125.745 150.346 125.532 150.527L125.395 150.296C125.658 150.087 125.986 149.976 126.322 149.985C126.442 149.971 126.564 149.984 126.679 150.022C126.793 150.061 126.898 150.124 126.985 150.208C127.072 150.292 127.139 150.395 127.182 150.508C127.224 150.621 127.241 150.742 127.231 150.863ZM126.92 151.591V151.218H126.198C125.756 151.218 125.613 151.392 125.613 151.628C125.613 151.865 125.824 152.058 126.192 152.058C126.347 152.068 126.501 152.028 126.632 151.944C126.764 151.86 126.864 151.737 126.92 151.591Z" fill="white"/>
<path opacity="0.6" d="M130.199 149.992V151.977C130.224 152.133 130.211 152.293 130.162 152.443C130.113 152.593 130.029 152.73 129.918 152.841C129.806 152.953 129.67 153.037 129.519 153.085C129.369 153.134 129.21 153.147 129.054 153.123C128.667 153.138 128.287 153.014 127.983 152.774L128.139 152.537C128.394 152.744 128.713 152.854 129.041 152.849C129.626 152.849 129.888 152.587 129.888 152.021V151.728C129.789 151.872 129.656 151.988 129.5 152.065C129.344 152.142 129.171 152.178 128.998 152.17C128.845 152.182 128.691 152.161 128.546 152.111C128.402 152.06 128.269 151.98 128.157 151.876C128.044 151.772 127.955 151.645 127.893 151.505C127.832 151.364 127.8 151.212 127.8 151.059C127.8 150.906 127.832 150.754 127.893 150.614C127.955 150.473 128.044 150.347 128.157 150.242C128.269 150.138 128.402 150.058 128.546 150.007C128.691 149.957 128.845 149.937 128.998 149.948C129.175 149.94 129.351 149.977 129.509 150.057C129.667 150.136 129.802 150.255 129.9 150.402V149.967L130.199 149.992ZM129.9 151.081C129.906 150.907 129.861 150.736 129.769 150.589C129.677 150.441 129.543 150.325 129.384 150.254C129.226 150.183 129.05 150.161 128.879 150.191C128.708 150.222 128.549 150.302 128.424 150.423C128.299 150.543 128.213 150.698 128.177 150.868C128.141 151.038 128.156 151.215 128.221 151.376C128.286 151.537 128.398 151.675 128.542 151.772C128.686 151.869 128.855 151.921 129.029 151.921C129.142 151.928 129.256 151.911 129.363 151.872C129.47 151.833 129.567 151.772 129.649 151.693C129.731 151.614 129.796 151.518 129.839 151.413C129.882 151.308 129.903 151.195 129.9 151.081Z" fill="white"/>
<path opacity="0.6" d="M132.795 150.863V152.282H132.502V151.927C132.416 152.054 132.297 152.156 132.158 152.223C132.019 152.29 131.865 152.319 131.712 152.307C131.189 152.307 130.872 152.033 130.872 151.635C130.872 151.236 131.102 151.012 131.762 151.012H132.484V150.875C132.484 150.483 132.266 150.253 131.861 150.253C131.583 150.25 131.314 150.347 131.102 150.527L130.959 150.296C131.224 150.087 131.554 149.976 131.892 149.985C132.012 149.972 132.133 149.985 132.247 150.024C132.361 150.063 132.465 150.127 132.551 150.211C132.637 150.295 132.704 150.397 132.746 150.51C132.788 150.622 132.805 150.743 132.795 150.863ZM132.484 151.591V151.218H131.768C131.32 151.218 131.177 151.392 131.177 151.628C131.177 151.865 131.394 152.058 131.762 152.058C131.916 152.069 132.07 152.029 132.201 151.945C132.331 151.861 132.43 151.737 132.484 151.591Z" fill="white"/>
<path opacity="0.6" d="M133.567 149.263C133.576 149.209 133.604 149.161 133.645 149.125C133.687 149.09 133.74 149.071 133.794 149.071C133.849 149.071 133.901 149.09 133.943 149.125C133.985 149.161 134.012 149.209 134.021 149.263C134.012 149.317 133.985 149.366 133.943 149.401C133.901 149.436 133.849 149.456 133.794 149.456C133.74 149.456 133.687 149.436 133.645 149.401C133.604 149.366 133.576 149.317 133.567 149.263ZM133.635 149.992H133.947V152.282H133.635V149.992Z" fill="white"/>
<path opacity="0.6" d="M136.915 150.95V152.282H136.61V150.981C136.628 150.885 136.622 150.786 136.594 150.692C136.566 150.599 136.517 150.513 136.449 150.442C136.382 150.371 136.299 150.317 136.207 150.284C136.115 150.251 136.016 150.241 135.919 150.253C135.81 150.245 135.7 150.261 135.597 150.301C135.495 150.34 135.402 150.401 135.325 150.48C135.249 150.559 135.19 150.653 135.154 150.757C135.118 150.861 135.105 150.972 135.117 151.081V152.282H134.812V149.992H135.104V150.415C135.197 150.27 135.327 150.153 135.48 150.075C135.633 149.998 135.804 149.962 135.976 149.973C136.105 149.963 136.235 149.981 136.356 150.028C136.477 150.074 136.586 150.146 136.676 150.239C136.766 150.333 136.834 150.445 136.876 150.568C136.917 150.691 136.931 150.821 136.915 150.95Z" fill="white"/>
</g>
<path opacity="0.4" d="M142.356 167.844H107.667C106.296 167.842 104.982 167.296 104.013 166.326C103.045 165.356 102.5 164.042 102.5 162.671C102.5 161.3 103.045 159.985 104.013 159.016C104.982 158.046 106.296 157.5 107.667 157.498H142.356C143.728 157.498 145.044 158.043 146.014 159.013C146.984 159.983 147.529 161.299 147.529 162.671C147.529 164.043 146.984 165.358 146.014 166.328C145.044 167.299 143.728 167.844 142.356 167.844Z" fill="white"/>
<path d="M111.483 162.409C111.48 162.167 111.527 161.927 111.62 161.703C111.714 161.48 111.853 161.278 112.028 161.11C112.203 160.943 112.411 160.813 112.638 160.729C112.866 160.645 113.108 160.609 113.35 160.623C113.597 160.614 113.844 160.658 114.072 160.753C114.301 160.847 114.507 160.99 114.676 161.171L114.352 161.482C114.227 161.347 114.074 161.241 113.905 161.17C113.735 161.099 113.552 161.065 113.369 161.071C113.148 161.073 112.931 161.13 112.737 161.236C112.543 161.343 112.379 161.496 112.259 161.681C112.138 161.867 112.066 162.079 112.048 162.299C112.029 162.519 112.066 162.741 112.154 162.943C112.243 163.146 112.38 163.324 112.553 163.46C112.727 163.597 112.932 163.689 113.149 163.727C113.367 163.766 113.591 163.749 113.801 163.68C114.01 163.611 114.2 163.491 114.352 163.331L114.676 163.642C114.506 163.823 114.299 163.966 114.069 164.06C113.839 164.155 113.592 164.199 113.344 164.19C113.103 164.203 112.861 164.167 112.635 164.084C112.408 164 112.201 163.871 112.026 163.704C111.852 163.537 111.713 163.336 111.62 163.113C111.526 162.89 111.48 162.651 111.483 162.409Z" fill="white"/>
<path d="M115.011 162.41C114.993 162.037 115.088 161.668 115.282 161.349C115.477 161.031 115.762 160.778 116.101 160.624C116.44 160.469 116.818 160.419 117.186 160.481C117.554 160.543 117.895 160.714 118.165 160.971C118.435 161.228 118.621 161.56 118.701 161.925C118.78 162.289 118.749 162.669 118.61 163.015C118.472 163.362 118.233 163.659 117.924 163.868C117.615 164.077 117.251 164.189 116.878 164.19C116.637 164.203 116.396 164.166 116.169 164.082C115.943 163.998 115.736 163.869 115.561 163.702C115.386 163.536 115.247 163.335 115.152 163.113C115.058 162.89 115.01 162.651 115.011 162.41ZM118.216 162.41C118.22 162.14 118.144 161.876 117.996 161.65C117.849 161.424 117.638 161.247 117.39 161.142C117.142 161.037 116.869 161.008 116.604 161.058C116.34 161.109 116.096 161.237 115.905 161.427C115.713 161.617 115.583 161.859 115.529 162.123C115.476 162.387 115.503 162.661 115.606 162.91C115.709 163.159 115.884 163.372 116.108 163.521C116.333 163.67 116.596 163.749 116.866 163.748C117.044 163.754 117.221 163.723 117.387 163.658C117.553 163.593 117.703 163.495 117.83 163.37C117.956 163.245 118.056 163.095 118.122 162.93C118.189 162.765 118.221 162.588 118.216 162.41Z" fill="white"/>
<path d="M122.475 160.691V164.177H122.064L119.973 161.575V164.177H119.475V160.691H119.885L121.977 163.287V160.691H122.475Z" fill="white"/>
<path d="M124.212 161.096H123.017V160.691H125.886V161.121H124.703V164.177H124.212V161.096Z" fill="white"/>
<path d="M126.439 160.691H126.937V164.177H126.439V160.691Z" fill="white"/>
<path d="M130.983 160.691V164.177H130.572L128.481 161.575V164.177H127.983V160.691H128.375L130.467 163.287V160.691H130.983Z" fill="white"/>
<path d="M131.998 162.646V160.691H132.496V162.652C132.496 163.424 132.851 163.773 133.479 163.773C134.108 163.773 134.463 163.424 134.463 162.652V160.691H134.948V162.671C134.948 163.062 134.793 163.437 134.516 163.714C134.24 163.991 133.865 164.146 133.473 164.146C133.082 164.146 132.707 163.991 132.43 163.714C132.153 163.437 131.998 163.062 131.998 162.671V162.646Z" fill="white"/>
<path d="M138.497 163.717V164.152H135.97V160.691H138.46V161.121H136.468V162.192H138.211V162.615H136.468V163.741L138.497 163.717Z" fill="white"/>
<path opacity="0.1" d="M185.324 81.9633C164.963 102.361 112.671 147.763 53.4189 144.402V81.9633H185.324Z" fill="white"/>
<path opacity="0.1" d="M200.667 119.454V179.676H112.017C115.416 167.514 122.213 150.857 135.397 138.955C159.112 117.543 186.637 117.605 200.667 119.454Z" fill="white"/>
<path d="M219.398 72.3586L221.464 81.4839L223.531 72.3586H219.398Z" fill="#407BFF"/>
<path opacity="0.7" d="M219.398 72.3586L221.464 81.4839L223.531 72.3586H219.398Z" fill="white"/>
<path d="M244.595 46.5205H198.34C195.387 46.5205 192.993 48.9144 192.993 51.8674V69.0347C192.993 71.9878 195.387 74.3816 198.34 74.3816H244.595C247.548 74.3816 249.942 71.9878 249.942 69.0347V51.8674C249.942 48.9144 247.548 46.5205 244.595 46.5205Z" fill="#407BFF"/>
<path opacity="0.7" d="M244.595 46.5205H198.34C195.387 46.5205 192.993 48.9144 192.993 51.8674V69.0347C192.993 71.9878 195.387 74.3816 198.34 74.3816H244.595C247.548 74.3816 249.942 71.9878 249.942 69.0347V51.8674C249.942 48.9144 247.548 46.5205 244.595 46.5205Z" fill="white"/>
<g opacity="0.5">
<path opacity="0.5" d="M204.365 56.7412V57.9425H203.874V56.7412L202.492 54.4755H203.027L204.141 56.3428L205.262 54.4755H205.753L204.365 56.7412Z" fill="#263238"/>
<path opacity="0.5" d="M205.641 56.6291C205.636 56.356 205.713 56.0876 205.861 55.8581C206.009 55.6287 206.222 55.4485 206.473 55.3405C206.724 55.2326 207.001 55.2018 207.27 55.252C207.538 55.3022 207.786 55.4312 207.98 55.6226C208.175 55.8139 208.309 56.059 208.364 56.3265C208.419 56.594 208.393 56.8718 208.29 57.1247C208.187 57.3775 208.01 57.5938 207.784 57.7461C207.557 57.8984 207.29 57.9797 207.017 57.9798C206.836 57.9884 206.655 57.9596 206.486 57.8951C206.317 57.8306 206.163 57.7319 206.034 57.605C205.905 57.4782 205.803 57.326 205.736 57.1581C205.668 56.9901 205.636 56.81 205.641 56.6291ZM207.901 56.6291C207.911 56.5063 207.896 56.3828 207.856 56.2663C207.816 56.1498 207.752 56.0428 207.669 55.9521C207.586 55.8615 207.484 55.7891 207.371 55.7396C207.259 55.6901 207.137 55.6646 207.014 55.6646C206.891 55.6646 206.769 55.6901 206.656 55.7396C206.543 55.7891 206.442 55.8615 206.359 55.9521C206.275 56.0428 206.212 56.1498 206.172 56.2663C206.132 56.3828 206.116 56.5063 206.127 56.6291C206.116 56.7518 206.132 56.8753 206.172 56.9918C206.212 57.1083 206.275 57.2153 206.359 57.3059C206.442 57.3966 206.543 57.469 206.656 57.5185C206.769 57.568 206.891 57.5935 207.014 57.5935C207.137 57.5935 207.259 57.568 207.371 57.5185C207.484 57.469 207.586 57.3966 207.669 57.3059C207.752 57.2153 207.816 57.1083 207.856 56.9918C207.896 56.8753 207.911 56.7518 207.901 56.6291Z" fill="#263238"/>
<path opacity="0.5" d="M211.505 55.3094V57.9487H211.057V57.5503C210.953 57.689 210.818 57.8006 210.661 57.8754C210.505 57.9502 210.333 57.986 210.16 57.9798C210.006 57.9957 209.85 57.9767 209.703 57.9243C209.557 57.8718 209.424 57.7872 209.315 57.6768C209.206 57.5663 209.123 57.4327 209.072 57.2859C209.021 57.139 209.004 56.9826 209.021 56.8282V55.3094H209.501V56.7784C209.501 57.2951 209.762 57.5503 210.216 57.5503C210.33 57.5577 210.444 57.5398 210.551 57.4978C210.657 57.4558 210.752 57.3908 210.83 57.3074C210.908 57.2241 210.967 57.1245 211.002 57.0158C211.037 56.9071 211.047 56.792 211.032 56.6788V55.3094H211.505Z" fill="#263238"/>
<path opacity="0.5" d="M213.839 55.2847V55.7515H213.727C213.611 55.7439 213.495 55.7623 213.387 55.8053C213.279 55.8483 213.181 55.9148 213.102 56C213.023 56.0852 212.963 56.187 212.928 56.298C212.893 56.409 212.884 56.5263 212.899 56.6416V57.955H212.408V55.3096H212.868V55.7577C212.968 55.5944 213.113 55.463 213.285 55.3792C213.457 55.2953 213.649 55.2626 213.839 55.2847Z" fill="#263238"/>
<path opacity="0.5" d="M215.588 56.2059C215.572 55.8335 215.668 55.4648 215.863 55.1473C216.058 54.8298 216.344 54.5779 216.683 54.424C217.023 54.2702 217.4 54.2215 217.768 54.2841C218.135 54.3468 218.475 54.518 218.745 54.7756C219.014 55.0332 219.2 55.3656 219.279 55.7298C219.358 56.0941 219.326 56.4736 219.187 56.8196C219.049 57.1656 218.81 57.4621 218.501 57.6711C218.192 57.8801 217.828 57.992 217.456 57.9923C217.214 58.006 216.971 57.9697 216.744 57.8859C216.517 57.802 216.309 57.6723 216.134 57.5047C215.959 57.3372 215.82 57.1354 215.726 56.912C215.632 56.6885 215.585 56.4482 215.588 56.2059ZM218.794 56.2059C218.798 55.9364 218.721 55.672 218.574 55.4463C218.427 55.2206 218.216 55.0438 217.968 54.9384C217.72 54.833 217.446 54.8038 217.181 54.8545C216.917 54.9053 216.673 55.0336 216.482 55.2233C216.291 55.4129 216.16 55.6552 216.107 55.9193C216.054 56.1835 216.08 56.4575 216.183 56.7064C216.286 56.9553 216.461 57.1679 216.686 57.3171C216.91 57.4663 217.174 57.5453 217.443 57.5441C217.621 57.5501 217.798 57.5197 217.964 57.4547C218.13 57.3898 218.281 57.2916 218.407 57.1663C218.534 57.041 218.633 56.8912 218.7 56.726C218.766 56.5608 218.798 56.3838 218.794 56.2059Z" fill="#263238"/>
<path opacity="0.5" d="M220.699 54.8737H219.503V54.4442H222.367V54.8737H221.172V57.9237H220.68L220.699 54.8737Z" fill="#263238"/>
<path opacity="0.5" d="M225.74 55.6829C225.74 56.4361 225.192 56.8967 224.284 56.8967H223.425V57.9486H222.927V54.4691H224.284C225.192 54.4691 225.74 54.9235 225.74 55.6829ZM225.242 55.6829C225.242 55.1849 224.906 54.8986 224.271 54.8986H223.425V56.461H224.271C224.906 56.461 225.242 56.1809 225.242 55.6829Z" fill="#263238"/>
<path opacity="0.5" d="M227.577 56.2059C227.593 55.8456 227.714 55.498 227.924 55.2049C228.134 54.9118 228.425 54.6857 228.76 54.5541C229.096 54.4224 229.463 54.3908 229.816 54.463C230.169 54.5352 230.494 54.7081 230.751 54.9609L230.428 55.2784C230.303 55.1429 230.15 55.0356 229.981 54.9637C229.811 54.8918 229.628 54.8569 229.444 54.8614C229.089 54.8614 228.749 55.0024 228.498 55.2533C228.247 55.5043 228.106 55.8447 228.106 56.1996C228.106 56.5546 228.247 56.895 228.498 57.1459C228.749 57.3969 229.089 57.5379 229.444 57.5379C229.628 57.5424 229.811 57.5075 229.981 57.4356C230.15 57.3636 230.303 57.2564 230.428 57.1209L230.751 57.4383C230.494 57.6911 230.169 57.8641 229.816 57.9363C229.463 58.0085 229.096 57.9769 228.76 57.8452C228.425 57.7135 228.134 57.4875 227.924 57.1944C227.714 56.9013 227.593 56.5536 227.577 56.1934V56.2059Z" fill="#263238"/>
<path opacity="0.5" d="M231.038 56.6291C231.033 56.356 231.11 56.0876 231.258 55.8581C231.406 55.6287 231.619 55.4485 231.87 55.3405C232.121 55.2326 232.398 55.2018 232.667 55.252C232.935 55.3022 233.182 55.4312 233.377 55.6226C233.572 55.8139 233.706 56.059 233.761 56.3265C233.816 56.594 233.79 56.8718 233.687 57.1247C233.584 57.3775 233.407 57.5938 233.181 57.7461C232.954 57.8984 232.687 57.9797 232.414 57.9798C232.233 57.9884 232.052 57.9596 231.883 57.8951C231.714 57.8306 231.56 57.7319 231.431 57.605C231.302 57.4782 231.2 57.326 231.133 57.1581C231.065 56.9901 231.033 56.81 231.038 56.6291ZM233.298 56.6291C233.308 56.5063 233.293 56.3828 233.253 56.2663C233.213 56.1498 233.149 56.0428 233.066 55.9521C232.982 55.8615 232.881 55.7891 232.768 55.7396C232.656 55.6901 232.534 55.6646 232.411 55.6646C232.288 55.6646 232.166 55.6901 232.053 55.7396C231.94 55.7891 231.839 55.8615 231.756 55.9521C231.672 56.0428 231.608 56.1498 231.569 56.2663C231.529 56.3828 231.513 56.5063 231.524 56.6291C231.513 56.7518 231.529 56.8753 231.569 56.9918C231.608 57.1083 231.672 57.2153 231.756 57.3059C231.839 57.3966 231.94 57.469 232.053 57.5185C232.166 57.568 232.288 57.5935 232.411 57.5935C232.534 57.5935 232.656 57.568 232.768 57.5185C232.881 57.469 232.982 57.3966 233.066 57.3059C233.149 57.2153 233.213 57.1083 233.253 56.9918C233.293 56.8753 233.308 56.7518 233.298 56.6291Z" fill="#263238"/>
<path opacity="0.5" d="M236.932 54.2512V57.9424H236.478V57.5253C236.369 57.6705 236.227 57.7872 236.063 57.8652C235.899 57.9433 235.719 57.9805 235.538 57.9735C235.196 57.9503 234.876 57.7982 234.643 57.548C234.409 57.2979 234.279 56.9683 234.279 56.6259C234.279 56.2835 234.409 55.9539 234.643 55.7037C234.876 55.4536 235.196 55.3015 235.538 55.2783C235.714 55.2729 235.888 55.3083 236.048 55.3818C236.208 55.4552 236.349 55.5647 236.459 55.7015V54.2512H236.932ZM236.459 56.6228C236.451 56.4486 236.391 56.2807 236.288 56.1401C236.185 55.9994 236.043 55.8921 235.879 55.8316C235.715 55.7711 235.538 55.7599 235.368 55.7995C235.198 55.8391 235.044 55.9278 234.924 56.0544C234.804 56.1811 234.724 56.3402 234.693 56.512C234.663 56.6837 234.684 56.8606 234.753 57.0206C234.823 57.1806 234.938 57.3167 235.084 57.412C235.23 57.5072 235.401 57.5575 235.575 57.5565C235.696 57.5594 235.816 57.537 235.927 57.4909C236.039 57.4447 236.139 57.3758 236.223 57.2884C236.306 57.2011 236.37 57.0973 236.411 56.9837C236.451 56.8702 236.468 56.7493 236.459 56.629V56.6228Z" fill="#263238"/>
<path opacity="0.5" d="M240.212 56.7907H238.077C238.107 57.0169 238.222 57.2231 238.4 57.3667C238.577 57.5103 238.802 57.5804 239.03 57.5626C239.172 57.5676 239.313 57.5419 239.444 57.4871C239.575 57.4323 239.693 57.3497 239.789 57.2451L240.057 57.5501C239.862 57.7478 239.614 57.8847 239.343 57.9445C239.071 58.0042 238.789 57.9841 238.529 57.8867C238.269 57.7893 238.043 57.6187 237.877 57.3955C237.712 57.1723 237.615 56.906 237.598 56.6289C237.591 56.4521 237.621 56.2757 237.685 56.1107C237.749 55.9457 237.846 55.7956 237.97 55.6696C238.094 55.5436 238.243 55.4444 238.407 55.3782C238.571 55.3119 238.747 55.28 238.924 55.2844C239.103 55.2755 239.281 55.3052 239.447 55.3714C239.613 55.4377 239.763 55.5389 239.886 55.6683C240.01 55.7976 240.104 55.952 240.162 56.121C240.221 56.29 240.242 56.4696 240.225 56.6476C240.224 56.6955 240.219 56.7433 240.212 56.7907ZM238.077 56.4484H239.795C239.777 56.2372 239.681 56.0405 239.524 55.8972C239.368 55.7539 239.164 55.6743 238.952 55.6743C238.74 55.6743 238.536 55.7539 238.38 55.8972C238.223 56.0405 238.127 56.2372 238.109 56.4484H238.077Z" fill="#263238"/>
</g>
<g opacity="0.5">
<path opacity="0.5" d="M214.275 63.4013C214.275 65.3621 213.173 66.4078 211.561 66.4078C211.064 66.4254 210.572 66.3093 210.135 66.0717L210.447 65.4492C210.783 65.6409 211.167 65.7336 211.555 65.7169C212.719 65.7169 213.459 64.9886 213.459 63.5507V63.3515C213.267 63.6039 213.015 63.8048 212.726 63.9362C212.437 64.0676 212.12 64.1255 211.804 64.1047C211.558 64.1317 211.31 64.107 211.075 64.0323C210.84 63.9575 210.623 63.8344 210.438 63.6708C210.254 63.5073 210.105 63.3069 210.003 63.0825C209.9 62.8581 209.846 62.6147 209.843 62.3681C209.849 62.1134 209.907 61.8626 210.013 61.6312C210.119 61.3997 210.272 61.1925 210.462 61.0223C210.651 60.852 210.873 60.7223 211.115 60.6412C211.356 60.5601 211.612 60.5292 211.866 60.5505C213.403 60.538 214.275 61.5713 214.275 63.4013ZM213.26 62.3432C213.26 61.7518 212.787 61.2352 211.891 61.2352C211.734 61.2187 211.576 61.2351 211.426 61.2835C211.276 61.3319 211.138 61.4111 211.021 61.5161C210.904 61.6211 210.81 61.7495 210.745 61.893C210.68 62.0365 210.647 62.192 210.646 62.3494C210.646 63.0216 211.144 63.4574 211.947 63.4574C212.107 63.4736 212.268 63.4574 212.422 63.4096C212.575 63.3619 212.718 63.2837 212.84 63.1797C212.963 63.0757 213.063 62.9479 213.136 62.8042C213.208 62.6605 213.25 62.5037 213.26 62.3432Z" fill="#263238"/>
<path opacity="0.5" d="M215.059 63.4761C215.059 61.6087 216.061 60.5381 217.406 60.5381C218.75 60.5381 219.74 61.6087 219.74 63.4761C219.74 65.3434 218.738 66.4078 217.406 66.4078C216.074 66.4078 215.059 65.3434 215.059 63.4761ZM218.918 63.4761C218.918 62.0071 218.296 61.2726 217.406 61.2726C216.516 61.2726 215.881 62.0071 215.881 63.4761C215.881 64.9451 216.503 65.6796 217.406 65.6796C218.308 65.6796 218.918 64.9451 218.918 63.4761Z" fill="#263238"/>
<path opacity="0.5" d="M224.539 65.6299V66.3457H220.412V65.7855L222.752 63.5322C223.375 62.9409 223.468 62.5799 223.468 62.2188C223.468 61.6337 223.051 61.2727 222.223 61.2727C221.948 61.2565 221.673 61.3043 221.419 61.4122C221.165 61.5202 220.94 61.6855 220.76 61.8952L220.2 61.4096C220.463 61.1181 220.788 60.8886 221.151 60.7379C221.514 60.5872 221.906 60.519 222.298 60.5382C223.493 60.5382 224.265 61.1607 224.265 62.1379C224.256 62.4904 224.166 62.8362 224.003 63.1489C223.84 63.4617 223.608 63.7333 223.325 63.943L221.57 65.6299H224.539Z" fill="#263238"/>
<path opacity="0.5" d="M226.992 60.6066V66.3456H226.177V61.3224H224.857V60.6066H226.992Z" fill="#263238"/>
<path opacity="0.5" d="M228.243 63.4761C228.243 61.6087 229.245 60.5381 230.589 60.5381C231.934 60.5381 232.924 61.6087 232.924 63.4761C232.924 65.3434 231.928 66.4078 230.589 66.4078C229.251 66.4078 228.243 65.3434 228.243 63.4761ZM232.108 63.4761C232.108 62.0071 231.486 61.2726 230.589 61.2726C229.693 61.2726 229.064 62.0071 229.064 63.4761C229.064 64.9451 229.687 65.6796 230.589 65.6796C231.492 65.6796 232.108 64.9451 232.108 63.4761Z" fill="#263238"/>
</g>
<path d="M216.347 99.1242C220.062 101.696 224.219 103.563 228.609 104.633H228.653C228.324 104.624 228 104.715 227.725 104.894C227.454 105.064 227.238 105.308 227.103 105.598C227.057 105.687 227.032 105.784 227.028 105.884C227.128 104.577 226.561 103.108 226.163 101.695C225.447 99.4603 224.607 97.1697 223.766 94.9226L226.169 93.6342C228.155 96.678 234.784 106.314 230.259 109.102C229.483 109.555 228.566 109.701 227.688 109.513C222.757 108.783 218.055 106.949 213.932 104.147C213.645 103.948 213.396 103.774 213.06 103.525L216.359 99.1118L216.347 99.1242Z" fill="#DC897C"/>
<path d="M215.65 98.4459C217.829 98.7086 219.898 99.5488 221.644 100.88L219.154 108.586C219.154 108.586 207.054 97.4313 215.65 98.4459Z" fill="#407BFF"/>
<path opacity="0.6" d="M215.625 104.926C216.733 106.194 217.904 107.405 219.135 108.554L220.163 105.386L221.644 100.848C219.9 99.5187 217.833 98.6785 215.656 98.4147C210.365 97.8233 212.892 101.782 215.625 104.926Z" fill="white"/>
<path opacity="0.2" d="M215.625 104.925C216.732 106.194 217.904 107.405 219.135 108.554L220.162 105.386C218.871 104.38 217.281 103.832 215.643 103.83C215.606 104.194 215.6 104.56 215.625 104.925Z" fill="black"/>
<path d="M188.754 87.0486C188.754 87.0486 182.965 106.295 195.159 108.878C207.353 111.461 208.673 102.604 208.673 102.604C208.673 102.604 198.651 87.4407 188.754 87.0486Z" fill="#263238"/>
<path d="M185.896 93.4226C185.874 93.429 185.85 93.429 185.828 93.4226C185.81 93.4141 185.795 93.402 185.782 93.3872C185.769 93.3724 185.759 93.3551 185.754 93.3365C185.748 93.3178 185.746 93.2982 185.748 93.2787C185.75 93.2593 185.756 93.2405 185.766 93.2234C185.948 92.8913 186.204 92.606 186.515 92.39C186.826 92.1739 187.183 92.0331 187.558 91.9785C187.597 91.9798 187.634 91.9949 187.663 92.0212C187.691 92.0475 187.709 92.0831 187.714 92.1217C187.716 92.1413 187.713 92.1611 187.707 92.1799C187.701 92.1986 187.692 92.2161 187.679 92.2311C187.666 92.2461 187.651 92.2585 187.633 92.2675C187.616 92.2765 187.597 92.282 187.577 92.2835C187.252 92.3365 186.944 92.4627 186.676 92.6525C186.407 92.8423 186.185 93.0908 186.027 93.379C186.011 93.3972 185.99 93.4108 185.967 93.4185C185.945 93.4261 185.92 93.4275 185.896 93.4226Z" fill="#263238"/>
<path d="M187.639 95.8127C187.561 96.5629 187.391 97.3008 187.135 98.01C187.328 98.1251 187.548 98.1859 187.773 98.1859C187.997 98.1859 188.218 98.1251 188.411 98.01L187.639 95.8127Z" fill="#DE5753"/>
<path d="M186.463 94.9724C186.593 95.3148 186.886 95.5202 187.085 95.433C187.284 95.3459 187.396 95.0035 187.266 94.6612C187.135 94.3188 186.842 94.1134 186.643 94.2006C186.444 94.2877 186.338 94.6301 186.463 94.9724Z" fill="#263238"/>
<path d="M186.742 94.182H185.89C185.89 94.182 186.5 94.6551 186.742 94.182Z" fill="#263238"/>
<path d="M198.857 98.2029C198.835 98.2587 198.806 98.3111 198.77 98.3586C198.714 98.4644 198.651 98.564 198.589 98.6698C198.224 99.3257 197.739 99.9066 197.157 100.382C195.29 101.869 193.665 102.317 192.252 101.888L192.047 101.819C189.949 100.967 188.312 98.4581 187.011 95.1405C186.434 93.8422 186.07 92.4591 185.935 91.0447C185.935 91.0447 185.935 90.9949 185.935 90.9824C185.935 90.97 185.935 90.8704 185.935 90.8206C185.886 90.01 186.04 89.2001 186.384 88.4642C186.727 87.7284 187.249 87.0899 187.902 86.6066C188.459 86.1686 189.065 85.7949 189.707 85.4924C195.925 82.461 201.975 92.3332 198.857 98.2029Z" fill="#E4897B"/>
<path opacity="0.2" d="M198.588 98.6698C198.223 99.3258 197.738 99.9066 197.156 100.382C195.289 101.869 193.664 102.317 192.251 101.888C193.625 101.555 194.863 100.805 195.793 99.7405C196.152 99.3685 196.589 99.0798 197.072 98.8948C197.555 98.7099 198.072 98.6331 198.588 98.6698Z" fill="black"/>
<path d="M185.903 91.0074C185.903 91.0074 187.64 95.5762 192.713 95.4953C192.713 95.4953 196.672 99.2301 199.342 98.0412C202.983 96.429 203.73 89.8061 200.02 85.1812C195.203 79.1808 184.695 83.5068 185.903 91.0074Z" fill="#263238"/>
<path d="M189.998 95.2339C189.675 94.543 189.681 93.13 190.82 92.7815C191.959 92.4329 193.932 94.8542 191.48 96.7465C191.131 97.0204 190.67 96.6656 189.998 95.2339Z" fill="#E4897B"/>
<path d="M191.362 82.6915C191.362 82.6915 186.656 83.619 185.137 86.4263C183.357 89.6879 183.27 92.2151 188.001 93.8957C188.001 93.8957 193.982 88.2936 196.559 87.6712C198.061 87.2985 199.591 87.0528 201.134 86.9367C199.416 81.9632 193.26 80.6312 191.362 82.6915Z" fill="#263238"/>
<path d="M195.925 100.5C195.925 100.5 199.161 102.741 200.002 106.438L210.092 100.55C210.092 100.55 202.193 98.7507 200.836 95.6945C200.836 95.6945 195.557 96.348 195.925 100.5Z" fill="#E4897B"/>
<path d="M205.946 124.745C205.946 124.745 192.875 111.903 191.468 107.87C191.468 107.87 196.964 99.311 207.95 98.9499C218.937 98.5889 226.412 119.491 226.412 119.491L205.946 124.745Z" fill="#407BFF"/>
<path opacity="0.6" d="M226.413 119.497L205.952 124.751C205.952 124.751 203.102 121.943 199.915 118.526C198.931 117.462 197.904 116.341 196.914 115.233C194.319 112.289 192.028 109.413 191.474 107.851C191.474 107.851 196.964 99.2923 207.951 98.9313C218.937 98.5702 226.413 119.497 226.413 119.497Z" fill="white"/>
<path d="M193.734 93.3043C193.734 93.3043 195.644 99.6533 202.355 101.757C209.065 103.861 207.378 110.714 213.882 109.905C217.343 109.476 220.306 102.436 209.693 96.2111C203.506 92.5947 205.909 80.7058 192.775 81.82C192.762 81.8262 195.489 89.9741 193.734 93.3043Z" fill="#263238"/>
<path d="M200.25 221.524L197.138 220.814C197.605 205.253 199.852 186.436 201.838 172.3C202.149 170.084 202.46 167.993 202.747 166.038C202.89 165.111 203.02 164.221 203.151 163.362C203.774 159.123 204.346 155.774 204.689 153.701C204.944 152.189 205.087 151.361 205.087 151.361L216.291 154.093L215.488 156.919L212.843 166.256L212.544 167.32L210.789 173.477L207.813 183.953C208 199.769 200.25 221.524 200.25 221.524Z" fill="#E4897B"/>
<path d="M226.891 218.922L223.704 218.76C221.277 202.029 220.256 181.102 219.814 166.555C219.752 164.302 219.696 162.198 219.652 160.281C219.652 160.187 219.652 160.094 219.652 160.001C219.571 156.21 219.534 153.197 219.515 151.286C219.515 149.792 219.515 148.977 219.515 148.977L231.012 149.73L230.52 154.523L229.798 161.557L229.655 162.938L229.157 167.731L227.812 180.61C230.75 196.171 226.891 218.922 226.891 218.922Z" fill="#E4897B"/>
<path d="M228.086 218.3C228.086 217.901 223.169 218.213 223.169 218.213C223.169 218.213 220.15 221.281 217.218 221.947C214.287 222.613 215.93 224.4 219.204 224.4H227.296C229.636 224.425 228.18 222.439 228.086 218.3Z" fill="#263238"/>
<path d="M220.157 219.352C220.086 219.287 220.036 219.202 220.015 219.109C219.994 219.015 220.002 218.918 220.038 218.829C220.058 218.759 220.091 218.694 220.136 218.637C220.181 218.581 220.236 218.534 220.3 218.499C220.648 218.357 221.03 218.313 221.402 218.374C221.003 218.163 220.655 217.908 220.636 217.646C220.636 217.478 220.735 217.341 220.96 217.235C221.057 217.191 221.163 217.168 221.271 217.168C221.378 217.168 221.484 217.191 221.582 217.235C222.248 217.515 222.659 218.661 222.678 218.704C222.691 218.736 222.691 218.772 222.678 218.804V218.835C222.666 218.849 222.651 218.859 222.634 218.866C221.999 219.191 221.312 219.402 220.605 219.489C220.444 219.499 220.284 219.451 220.157 219.352ZM220.43 218.729C220.397 218.746 220.367 218.77 220.342 218.799C220.317 218.828 220.299 218.861 220.287 218.897C220.238 219.09 220.287 219.14 220.287 219.159C220.524 219.352 221.42 219.078 222.155 218.773C221.596 218.596 220.999 218.579 220.43 218.723V218.729ZM221.053 217.484C220.984 217.484 220.872 217.578 220.879 217.646C220.879 217.864 221.594 218.269 222.317 218.524C222.156 218.093 221.861 217.724 221.476 217.472C221.414 217.443 221.346 217.428 221.277 217.428C221.206 217.428 221.136 217.443 221.072 217.472L221.053 217.484Z" fill="#263238"/>
<path d="M201.825 218.3C201.825 217.901 196.914 218.213 196.914 218.213C196.914 218.213 193.895 221.281 190.963 221.947C188.032 222.613 189.669 224.4 192.943 224.4H201.035C203.381 224.425 201.931 222.439 201.825 218.3Z" fill="#263238"/>
<path d="M193.902 219.352C193.832 219.286 193.784 219.201 193.763 219.108C193.742 219.015 193.749 218.918 193.784 218.829C193.803 218.759 193.836 218.694 193.881 218.637C193.926 218.581 193.982 218.534 194.045 218.499C194.394 218.357 194.775 218.314 195.147 218.374C194.748 218.163 194.4 217.908 194.387 217.646C194.387 217.48 194.493 217.343 194.705 217.235C194.803 217.191 194.909 217.168 195.016 217.168C195.123 217.168 195.23 217.191 195.327 217.235C195.993 217.515 196.404 218.661 196.423 218.704C196.43 218.72 196.434 218.737 196.434 218.754C196.434 218.771 196.43 218.788 196.423 218.804C196.423 218.804 196.423 218.804 196.423 218.835L196.379 218.866C195.742 219.19 195.053 219.401 194.344 219.489C194.185 219.497 194.028 219.448 193.902 219.352ZM194.176 218.729C194.143 218.746 194.113 218.77 194.09 218.799C194.066 218.828 194.049 218.861 194.039 218.897C193.989 219.09 194.039 219.14 194.07 219.159C194.3 219.352 195.197 219.078 195.937 218.773C195.367 218.589 194.756 218.572 194.176 218.723V218.729ZM194.798 217.484C194.73 217.484 194.618 217.578 194.624 217.646C194.624 217.864 195.34 218.269 196.068 218.524C195.905 218.092 195.608 217.724 195.221 217.472C195.159 217.442 195.091 217.427 195.022 217.428C194.951 217.428 194.881 217.443 194.817 217.472L194.798 217.484Z" fill="#263238"/>
<path d="M203.293 156.042L205.945 137.368V124.732C212.935 119.479 226.411 119.479 226.411 119.479C226.411 119.479 236.763 133.839 231.733 157.448L218.737 159.316L217.909 154.909L216.278 159.316L203.293 156.042Z" fill="#263238"/>
<path opacity="0.2" d="M203.293 156.042L205.945 137.368V124.732C212.935 119.479 226.411 119.479 226.411 119.479C226.411 119.479 236.763 133.839 231.733 157.448L218.737 159.316L217.909 154.909L216.278 159.316L203.293 156.042Z" fill="white"/>
<path opacity="0.2" d="M217.909 154.977L220.399 147.203C220.399 147.203 223.026 146.406 226.399 141.19C226.412 141.19 225.827 150.066 217.909 154.977Z" fill="black"/>
<path opacity="0.2" d="M212.37 128.324L218.202 127.77C219.133 129.95 219.456 132.342 219.136 134.691L215.401 136.938L212.693 135.015C212.693 135.015 212.606 130.079 212.37 128.324Z" fill="black"/>
<path opacity="0.2" d="M226.413 126.898C227.195 128.822 227.773 130.823 228.137 132.867L230.203 133.745L231.318 132.357C231.318 132.357 230.564 128.292 229.288 126.301L226.413 126.898Z" fill="black"/>
<path d="M203.051 154.977L216.845 159.023L215.98 160.878L202.877 156.845L203.051 154.977Z" fill="#263238"/>
<path d="M218.202 158.756L218.432 160.461L231.958 158.756L232.163 156.608L218.202 158.756Z" fill="#263238"/>
<path d="M221.04 122.099C223.252 121.726 225.488 121.507 227.731 121.446L226.897 120.07C224.715 120.012 222.533 120.141 220.374 120.456L221.04 122.099Z" fill="#263238"/>
<path d="M208.635 123.792C206.848 124.564 205.821 125.143 205.821 125.143V126.842C206.826 126.336 207.832 125.873 208.84 125.454L208.635 123.792Z" fill="#263238"/>
<path d="M209.494 125.212C212.954 123.855 216.543 122.856 220.206 122.23L219.584 120.574C216.033 121.166 212.562 122.165 209.239 123.55L209.494 125.212Z" fill="#263238"/>
<path d="M172.096 130.073L168.56 128.653L167.938 131.99C167.938 131.99 171.125 133.919 172.457 131.623L172.096 130.073Z" fill="#E4897B"/>
<path d="M166.806 128.859L165.673 131.436L167.963 131.99L168.561 128.653L166.806 128.859Z" fill="#E4897B"/>
<path d="M226.356 94.2131L225.939 90.4286L222.714 91.4743C222.714 91.4743 222.515 95.2091 225.173 95.2837L226.356 94.2131Z" fill="#E4897B"/>
<path d="M224.924 88.9781L222.117 89.2022L222.715 91.4742L225.939 90.4285L224.924 88.9781Z" fill="#E4897B"/>
<path opacity="0.2" d="M199.915 118.545C198.931 117.48 197.904 116.36 196.914 115.252C196.535 112.937 196.292 110.895 196.292 110.895C197.478 111.774 198.428 112.933 199.06 114.267C199.692 115.601 199.986 117.07 199.915 118.545Z" fill="black"/>
<path d="M196.653 109.824C195.227 115.572 193.075 121.115 190.248 126.319C187.447 131.641 176.796 132.282 171.443 132.419L171.194 129.705C174.419 128.946 184.44 126.948 185.81 124.041C188.045 119.005 189.885 113.802 191.312 108.48L196.653 109.812V109.824Z" fill="#DC897C"/>
<path d="M193.602 105.131C190.559 107.123 188.928 112.302 188.411 114.835L194.735 119.491L197.928 116.379C199.223 109.233 194.76 104.378 193.602 105.131Z" fill="#407BFF"/>
<path opacity="0.6" d="M193.602 105.131C190.559 107.123 188.928 112.302 188.411 114.835L194.735 119.491L197.928 116.379C199.223 109.233 194.76 104.378 193.602 105.131Z" fill="white"/>
<path d="M224.477 95.4268L219.958 95.9123C219.894 95.9141 219.831 95.9027 219.771 95.8788C219.712 95.8548 219.659 95.8189 219.615 95.7733C219.57 95.7277 219.536 95.6733 219.513 95.6137C219.491 95.554 219.481 95.4904 219.485 95.4268L219.211 85.8596C219.202 85.7244 219.243 85.5906 219.325 85.483C219.407 85.3754 219.526 85.3013 219.659 85.2745L224.172 84.7952C224.236 84.7924 224.299 84.8032 224.359 84.8268C224.418 84.8504 224.472 84.8862 224.517 84.9321C224.561 84.9779 224.596 85.0327 224.618 85.0928C224.64 85.1528 224.649 85.2169 224.645 85.2807L224.919 94.8479C224.927 94.9815 224.887 95.1137 224.806 95.2202C224.725 95.3266 224.608 95.4 224.477 95.4268Z" fill="#263238"/>
<path opacity="0.6" d="M224.477 95.4268L219.958 95.9123C219.894 95.9141 219.831 95.9027 219.771 95.8788C219.712 95.8548 219.659 95.8189 219.615 95.7733C219.57 95.7277 219.536 95.6733 219.513 95.6137C219.491 95.554 219.481 95.4904 219.485 95.4268L219.211 85.8596C219.202 85.7244 219.243 85.5906 219.325 85.483C219.407 85.3754 219.526 85.3013 219.659 85.2745L224.172 84.7952C224.236 84.7924 224.299 84.8032 224.359 84.8268C224.418 84.8504 224.472 84.8862 224.517 84.9321C224.561 84.9779 224.596 85.0327 224.618 85.0928C224.64 85.1528 224.649 85.2169 224.645 85.2807L224.919 94.8479C224.927 94.9815 224.887 95.1137 224.806 95.2202C224.725 95.3266 224.608 95.4 224.477 95.4268Z" fill="white"/>
<path d="M224.078 95.4705L219.565 95.9498C219.501 95.9534 219.437 95.9434 219.377 95.9206C219.317 95.8978 219.263 95.8626 219.218 95.8174C219.173 95.7721 219.137 95.7179 219.115 95.6581C219.092 95.5983 219.082 95.5344 219.086 95.4705L218.818 85.8971C218.806 85.7629 218.845 85.6293 218.927 85.5223C219.009 85.4152 219.127 85.3425 219.26 85.3182L223.773 84.8389C223.836 84.8362 223.899 84.8468 223.958 84.87C224.017 84.8932 224.071 84.9286 224.115 84.9737C224.16 85.0188 224.195 85.0728 224.217 85.1322C224.239 85.1915 224.249 85.2549 224.246 85.3182L224.52 94.8916C224.531 95.0257 224.492 95.1594 224.41 95.2664C224.329 95.3734 224.21 95.4462 224.078 95.4705Z" fill="#263238"/>
<path opacity="0.7" d="M224.078 95.4705L219.565 95.9498C219.501 95.9534 219.437 95.9434 219.377 95.9206C219.317 95.8978 219.263 95.8626 219.218 95.8174C219.173 95.7721 219.137 95.7179 219.115 95.6581C219.092 95.5983 219.082 95.5344 219.086 95.4705L218.818 85.8971C218.806 85.7629 218.845 85.6293 218.927 85.5223C219.009 85.4152 219.127 85.3425 219.26 85.3182L223.773 84.8389C223.836 84.8362 223.899 84.8468 223.958 84.87C224.017 84.8932 224.071 84.9286 224.115 84.9737C224.16 85.0188 224.195 85.0728 224.217 85.1322C224.239 85.1915 224.249 85.2549 224.246 85.3182L224.52 94.8916C224.531 95.0257 224.492 95.1594 224.41 95.2664C224.329 95.3734 224.21 95.4462 224.078 95.4705Z" fill="white"/>
<path d="M223.78 85.0257L222.597 85.1502L222.448 85.5174L220.618 85.7104L220.449 85.3805L219.267 85.505C219.181 85.5228 219.105 85.5712 219.052 85.641C219 85.7108 218.974 85.7974 218.98 85.8847L219.248 95.4518C219.245 95.4934 219.252 95.5351 219.266 95.5741C219.281 95.6131 219.304 95.6485 219.333 95.678C219.363 95.7074 219.398 95.7303 219.437 95.7449C219.476 95.7596 219.518 95.7658 219.559 95.763L224.072 95.2837C224.157 95.2672 224.233 95.2201 224.286 95.1513C224.339 95.0825 224.365 94.9968 224.358 94.9103L224.091 85.3369C224.093 85.2955 224.086 85.2543 224.071 85.2157C224.056 85.1772 224.033 85.1422 224.004 85.1129C223.974 85.0836 223.939 85.0608 223.901 85.0458C223.862 85.0307 223.821 85.0239 223.78 85.0257Z" fill="#407BFF"/>
<path opacity="0.8" d="M223.175 88.4865L219.858 88.8413C219.817 88.8431 219.777 88.8364 219.739 88.8217C219.701 88.807 219.667 88.7846 219.638 88.7559C219.609 88.7272 219.587 88.6929 219.572 88.6551C219.558 88.6173 219.551 88.5768 219.553 88.5363V87.6151C219.545 87.5292 219.569 87.4435 219.621 87.3745C219.673 87.3055 219.748 87.2582 219.833 87.2416L223.157 86.8868C223.197 86.8859 223.238 86.8934 223.275 86.9088C223.313 86.9243 223.346 86.9474 223.375 86.9767C223.403 87.0059 223.424 87.0407 223.438 87.0788C223.452 87.117 223.458 87.1575 223.455 87.198L223.487 88.1193C223.492 88.2088 223.463 88.2969 223.405 88.3652C223.347 88.4336 223.265 88.4771 223.175 88.4865Z" fill="white"/>
</svg>
