<svg width="32" height="29" viewBox="0 0 32 29" fill="none" xmlns="http://www.w3.org/2000/svg">
<g clip-path="url(#clip0_153_1069)">
    <defs>
        <clipPath id="clip0_153_1069">
            <rect width="32" height="29" fill="white"/>
        </clipPath>
    </defs>
<path d="M8.32298 7.33583C7.2705 7.52832 6.88797 5.88906 8.03557 5.69588C11.1923 5.02113 14.7323 7.14265 13.4882 8.39625C13.311 8.53698 13.0921 8.6135 12.8665 8.6135C12.641 8.6135 12.422 8.53698 12.2448 8.39625C10.714 6.85357 8.32298 7.33583 8.32298 7.33583Z" fill="#1CB6EA"/>
<path d="M24.0069 5.69588C25.0594 5.88838 24.772 7.52832 23.6244 7.33515C23.6244 7.33515 21.2327 6.85289 19.7025 8.39625C18.9368 9.16758 17.7892 7.91399 18.5556 7.14265C20.6599 5.02045 23.9124 5.5993 24.0082 5.69588H24.0069Z" fill="#1CB6EA"/>
<path d="M15.1148 9.071C15.1148 8.0099 16.8366 8.0099 16.8366 9.071V11.8673C16.8366 12.9284 15.1148 12.9284 15.1148 11.8673V9.071Z" fill="#1CB6EA"/>
<path d="M10.3321 12.255C12.7238 12.255 12.7238 14.8588 10.3321 14.8588C8.03625 14.8601 8.03625 12.255 10.3321 12.255Z" fill="#1CB6EA"/>
<path fill-rule="evenodd" clip-rule="evenodd" d="M26.5909 12.3502C26.8783 11.2891 25.2517 10.8068 24.9649 11.8679L24.9683 11.8686C24.9683 11.8786 24.9372 11.9901 24.8815 12.1895C24.4026 13.9041 22.1083 22.119 22.1941 28.1674C22.1941 29.3237 23.9158 29.2278 23.82 28.1674C23.82 25.9486 24.2032 23.3448 24.5858 20.8376C25.1592 22.8626 25.7327 24.695 25.7327 24.695C26.1152 25.7561 27.7418 25.1773 27.3593 24.1162C27.3593 24.1162 25.2544 18.2332 25.6369 16.3042L26.5909 12.3502ZM22.1129 14.856C21.977 14.8842 21.8428 14.8993 21.7116 14.9026C21.8536 14.8887 21.9873 14.8723 22.1129 14.856ZM29.7503 23.1523C29.3678 24.1168 30.8986 24.7916 31.2811 23.7312L31.2757 23.7305C32.2324 21.4158 32.2324 18.812 31.2757 16.4007C30.9883 15.726 30.8925 14.954 30.8925 14.2792C30.8925 13.2925 31.0457 12.8213 31.2027 12.3384C31.2608 12.1599 31.3193 11.9798 31.3709 11.7714C31.5625 9.93892 31.2757 8.49215 30.6058 7.43173C29.8434 6.37063 28.6958 5.79179 27.165 5.50271C26.5909 4.73069 25.8258 4.15253 25.06 3.67027C23.9866 3.03842 23.3318 2.89233 22.8606 2.78719C22.3249 2.66766 22.0263 2.60104 21.6193 1.93374C21.4597 1.67591 21.3851 1.3647 21.3141 1.06799C21.1723 0.475472 21.0443 -0.0591915 20.2801 0.00471424C18.9408 0.197889 19.8017 2.12691 20.1842 2.80234C20.937 4.09683 21.6687 4.27545 22.5321 4.4862C23.5337 4.73069 24.7125 5.01844 26.3068 7.14197C27.5502 7.23924 28.6027 7.52764 29.1762 8.39557C29.6545 9.071 29.8461 10.1314 29.6545 11.4823C29.3678 12.4468 29.1762 13.3147 29.1762 14.1826C29.1762 15.2588 29.4613 16.1726 29.7504 17.0992C30.2646 18.7472 30.7915 20.436 29.7503 23.1523ZM6.9831 11.8686C6.69636 10.8075 5.07042 11.2898 5.35715 12.3509L5.3585 12.3502L6.41098 16.3042C6.79351 18.2332 4.59343 24.1162 4.59343 24.1162C4.21022 25.1773 5.83684 25.7561 6.21938 24.695C6.66855 23.4304 7.05139 22.1428 7.3663 20.8376C7.84464 23.3448 8.13137 25.9486 8.13137 28.1674C8.13137 29.2278 9.75799 29.3237 9.75799 28.1674C9.84321 22.1198 7.5489 13.9046 7.06994 12.1896C7.01424 11.9902 6.9831 11.8786 6.9831 11.8686ZM0.669587 23.7312C1.0528 24.7923 2.67874 24.1175 2.2962 23.153L2.29013 23.1523C1.9076 22.0919 1.62086 21.0308 1.71599 19.9697C1.71599 18.6072 1.98392 17.8094 2.24942 17.0189C2.51012 16.2426 2.76847 15.4734 2.76847 14.1833C2.76847 13.3154 2.57754 12.4475 2.29013 11.483C2.0992 10.1328 2.29013 9.07168 2.76847 8.39693C3.44313 7.52832 4.39778 7.23924 5.73699 7.14265C6.25548 6.33049 6.94058 5.63978 7.74614 5.11704C8.51121 4.73137 9.27628 4.44229 10.1378 4.3457C11.7638 3.86344 13.3904 0.198568 11.668 0.00607388C10.9653 -0.0584547 10.8173 0.479654 10.6538 1.07398C10.5726 1.36925 10.4875 1.6784 10.3288 1.93442C9.9735 2.6029 9.67113 2.66857 9.11893 2.78851C8.63503 2.8936 7.95928 3.04037 6.88797 3.67095C6.09883 4.17145 5.38917 4.78923 4.78302 5.50339C3.25288 5.79247 2.1046 6.37131 1.43533 7.43241C0.574459 8.58942 0.382855 10.615 0.669587 11.9652C1.14792 13.4113 1.33953 14.7622 0.76539 16.3048C-0.191284 18.7161 -0.283713 21.3219 0.669587 23.7312Z" fill="#222F7E"/>
<path d="M14.6365 13.7977C15.5932 13.2188 16.454 14.6656 15.4974 15.2444C12.0566 17.3659 8.99224 16.4007 8.99224 16.4007C7.94044 16.1117 8.32298 14.4717 9.37546 14.7615C9.37546 14.7615 11.7665 15.5328 14.6378 13.797L14.6365 13.7977Z" fill="#1CB6EA"/>
<path d="M17.3115 13.797C16.3549 13.2181 15.494 14.6649 16.4507 15.2437C19.9906 17.3646 23.0516 16.4007 23.0516 16.4007C23.4341 16.3042 23.7208 15.8219 23.625 15.3396C23.4218 14.684 22.9766 14.7426 22.2235 14.8415L22.1129 14.856C21.977 14.8842 21.8428 14.8993 21.7116 14.9026C20.6993 15.0017 19.2657 14.9698 17.3115 13.797Z" fill="#1CB6EA"/>
<path d="M22.6717 14.6656C24.4893 13.7017 22.5766 11.3864 20.5675 12.4475C18.9643 13.2556 20.1149 14.9439 21.7116 14.9026C21.8536 14.8887 21.9873 14.8723 22.1129 14.856C22.2971 14.8178 22.4844 14.7555 22.6717 14.6656Z" fill="#1CB6EA"/>
</g>

</svg>
