<svg width="32" height="29" viewBox="0 0 32 29" fill="none" xmlns="http://www.w3.org/2000/svg">
<g clip-path="url(#clip0_214_391)">
    <defs>
        <clipPath id="clip0_214_391">
            <rect width="32" height="29" fill="white"/>
        </clipPath>
    </defs>
<path d="M8.32273 7.33583C7.27026 7.52832 6.88772 5.88906 8.03533 5.69588C11.1921 5.02113 14.732 7.14265 13.488 8.39625C13.3108 8.53698 13.0918 8.6135 12.8663 8.6135C12.6407 8.6135 12.4217 8.53698 12.2446 8.39625C10.7137 6.85357 8.32273 7.33583 8.32273 7.33583Z" fill="#656D79"/>
<path d="M24.0067 5.69588C25.0591 5.88838 24.7717 7.52832 23.6241 7.33515C23.6241 7.33515 21.2324 6.85289 19.7023 8.39625C18.9366 9.16758 17.7889 7.91399 18.5554 7.14265C20.6596 5.02045 23.9122 5.5993 24.008 5.69588H24.0067Z" fill="#656D79"/>
<path d="M15.1146 9.071C15.1146 8.0099 16.8363 8.0099 16.8363 9.071V11.8673C16.8363 12.9284 15.1146 12.9284 15.1146 11.8673V9.071Z" fill="#656D79"/>
<path d="M10.3319 12.255C12.7236 12.255 12.7236 14.8588 10.3319 14.8588C8.036 14.8601 8.036 12.255 10.3319 12.255Z" fill="#656D79"/>
<path fill-rule="evenodd" clip-rule="evenodd" d="M26.5906 12.3502C26.878 11.2891 25.2514 10.8068 24.9647 11.8679L24.9681 11.8686C24.9681 11.8786 24.9369 11.9901 24.8812 12.1895C24.4024 13.9041 22.108 22.119 22.1938 28.1674C22.1938 29.3237 23.9156 29.2278 23.8198 28.1674C23.8198 25.9486 24.203 23.3448 24.5855 20.8376C25.159 22.8626 25.7324 24.695 25.7324 24.695C26.115 25.7561 27.7416 25.1773 27.3591 24.1162C27.3591 24.1162 25.2541 18.2332 25.6366 16.3042L26.5906 12.3502ZM22.1127 14.856C21.9767 14.8842 21.8425 14.8993 21.7113 14.9026C21.8533 14.8887 21.987 14.8723 22.1127 14.856ZM29.7501 23.1523C29.3675 24.1168 30.8983 24.7916 31.2809 23.7312L31.2755 23.7305C32.2322 21.4158 32.2322 18.812 31.2755 16.4007C30.9881 15.726 30.8923 14.954 30.8923 14.2792C30.8923 13.2925 31.0455 12.8213 31.2025 12.3384C31.2605 12.1599 31.3191 11.9798 31.3706 11.7714C31.5622 9.93892 31.2755 8.49215 30.6055 7.43173C29.8432 6.37063 28.6956 5.79179 27.1648 5.50271C26.5906 4.73069 25.8255 4.15253 25.0598 3.67027C23.9863 3.03842 23.3316 2.89233 22.8604 2.78719C22.3246 2.66766 22.0261 2.60104 21.619 1.93374C21.4594 1.67591 21.3849 1.3647 21.3139 1.06799C21.172 0.475472 21.044 -0.0591915 20.2798 0.00471424C18.9406 0.197889 19.8015 2.12691 20.184 2.80234C20.9367 4.09683 21.6684 4.27545 22.5318 4.4862C23.5335 4.73069 24.7123 5.01844 26.3066 7.14197C27.55 7.23924 28.6025 7.52764 29.1759 8.39557C29.6543 9.071 29.8459 10.1314 29.6543 11.4823C29.3675 12.4468 29.1759 13.3147 29.1759 14.1826C29.1759 15.2588 29.461 16.1726 29.7501 17.0992C30.2643 18.7472 30.7912 20.436 29.7501 23.1523ZM6.98285 11.8686C6.69612 10.8075 5.07018 11.2898 5.35691 12.3509L5.35826 12.3502L6.41074 16.3042C6.79327 18.2332 4.59319 24.1162 4.59319 24.1162C4.20998 25.1773 5.8366 25.7561 6.21913 24.695C6.6683 23.4304 7.05114 22.1428 7.36606 20.8376C7.8444 23.3448 8.13113 25.9486 8.13113 28.1674C8.13113 29.2278 9.75774 29.3237 9.75774 28.1674C9.84296 22.1198 7.54866 13.9046 7.0697 12.1896C7.014 11.9902 6.98285 11.8786 6.98285 11.8686ZM0.669343 23.7312C1.05255 24.7923 2.67849 24.1175 2.29596 23.153L2.28989 23.1523C1.90735 22.0919 1.62062 21.0308 1.71575 19.9697C1.71575 18.6072 1.98368 17.8094 2.24917 17.0189C2.50987 16.2426 2.76822 15.4734 2.76822 14.1833C2.76822 13.3154 2.57729 12.4475 2.28989 11.483C2.09896 10.1328 2.28989 9.07168 2.76822 8.39693C3.44289 7.52832 4.39754 7.23924 5.73675 7.14265C6.25524 6.33049 6.94033 5.63978 7.7459 5.11704C8.51097 4.73137 9.27603 4.44229 10.1376 4.3457C11.7635 3.86344 13.3901 0.198568 11.6677 0.00607388C10.965 -0.0584547 10.817 0.479654 10.6535 1.07398C10.5723 1.36925 10.4873 1.6784 10.3285 1.93442C9.97325 2.6029 9.67089 2.66857 9.11868 2.78851C8.63478 2.8936 7.95904 3.04037 6.88772 3.67095C6.09858 4.17145 5.38893 4.78923 4.78277 5.50339C3.25263 5.79247 2.10435 6.37131 1.43509 7.43241C0.574215 8.58942 0.382611 10.615 0.669343 11.9652C1.14768 13.4113 1.33928 14.7622 0.765145 16.3048C-0.191528 18.7161 -0.283957 21.3219 0.669343 23.7312Z" fill="#656D79"/>
<path d="M14.6362 13.7977C15.5929 13.2188 16.4538 14.6656 15.4971 15.2444C12.0563 17.3659 8.992 16.4007 8.992 16.4007C7.9402 16.1117 8.32274 14.4717 9.37521 14.7615C9.37521 14.7615 11.7662 15.5328 14.6376 13.797L14.6362 13.7977Z" fill="#656D79"/>
<path d="M17.3113 13.797C16.3546 13.2181 15.4937 14.6649 16.4504 15.2437C19.9904 17.3646 23.0513 16.4007 23.0513 16.4007C23.4339 16.3042 23.7206 15.8219 23.6248 15.3396C23.4215 14.684 22.9764 14.7426 22.2232 14.8415L22.1127 14.856C21.9767 14.8842 21.8425 14.8993 21.7113 14.9026C20.6991 15.0017 19.2654 14.9698 17.3113 13.797Z" fill="#656D79"/>
<path d="M22.6715 14.6656C24.489 13.7017 22.5764 11.3864 20.5672 12.4475C18.9641 13.2556 20.1147 14.9439 21.7113 14.9026C21.8533 14.8887 21.987 14.8723 22.1127 14.856C22.2968 14.8178 22.4842 14.7555 22.6715 14.6656Z" fill="#656D79"/>
</g>

</svg>
