<svg width="31" height="31" viewBox="0 0 31 31" fill="none" xmlns="http://www.w3.org/2000/svg">
    <mask id="path-1-inside-1_214_859" fill="white">
        <path fill-rule="evenodd" clip-rule="evenodd"
            d="M6 3H25C26.6569 3 28 4.34314 28 6V8.95567H3V6C3 4.34315 4.34315 3 6 3ZM3 11.0223V24.3261C3 25.983 4.34314 27.3261 6 27.3261H25C26.6569 27.3261 28 25.983 28 24.3261V11.0223H3ZM0 6C0 2.6863 2.68629 0 6 0H25C28.3138 0 31 2.68629 31 6V24.3261C31 27.6398 28.3138 30.3261 25 30.3261H6C2.68629 30.3261 0 27.6398 0 24.3261V6Z" />
    </mask>
    <rect x="6.25391" y="13.7871" width="3.15072" height="3.12134" fill="#1CB6EA" />
    <rect x="6.25391" y="20.9526" width="3.15072" height="3.12134" fill="#1CB6EA" />
    <rect x="13.925" y="13.7871" width="3.15072" height="3.12134" fill="#1CB6EA" />
    <rect x="13.925" y="20.9526" width="3.15072" height="3.12134" fill="#1CB6EA" />
    <rect x="21.5964" y="13.7871" width="3.15072" height="3.12134" fill="#1CB6EA" />
    <rect x="21.5964" y="20.9526" width="3.15072" height="3.12134" fill="#1CB6EA" />
    <path fill-rule="evenodd" clip-rule="evenodd"
        d="M6 3H25C26.6569 3 28 4.34314 28 6V8.95567H3V6C3 4.34315 4.34315 3 6 3ZM3 11.0223V24.3261C3 25.983 4.34314 27.3261 6 27.3261H25C26.6569 27.3261 28 25.983 28 24.3261V11.0223H3ZM0 6C0 2.6863 2.68629 0 6 0H25C28.3138 0 31 2.68629 31 6V24.3261C31 27.6398 28.3138 30.3261 25 30.3261H6C2.68629 30.3261 0 27.6398 0 24.3261V6Z"
        fill="#222F7E" />
    <path
        d="M28 8.95567V9.25567H28.3V8.95567H28ZM3 8.95567H2.7V9.25567H3V8.95567ZM3 11.0223V10.7223H2.7V11.0223H3ZM28 11.0223H28.3V10.7223H28V11.0223ZM25 2.7H6V3.3H25V2.7ZM28.3 6C28.3 4.17746 26.8226 2.7 25 2.7V3.3C26.4912 3.3 27.7 4.50883 27.7 6H28.3ZM28.3 8.95567V6H27.7V8.95567H28.3ZM3 9.25567H28V8.65567H3V9.25567ZM2.7 6V8.95567H3.3V6H2.7ZM6 2.7C4.17746 2.7 2.7 4.17746 2.7 6H3.3C3.3 4.50883 4.50883 3.3 6 3.3V2.7ZM2.7 11.0223V24.3261H3.3V11.0223H2.7ZM2.7 24.3261C2.7 26.1487 4.17746 27.6261 6 27.6261V27.0261C4.50883 27.0261 3.3 25.8173 3.3 24.3261H2.7ZM6 27.6261H25V27.0261H6V27.6261ZM25 27.6261C26.8226 27.6261 28.3 26.1487 28.3 24.3261H27.7C27.7 25.8173 26.4912 27.0261 25 27.0261V27.6261ZM28.3 24.3261V11.0223H27.7V24.3261H28.3ZM28 10.7223H3V11.3223H28V10.7223ZM6 -0.3C2.52061 -0.3 -0.3 2.52061 -0.3 6H0.3C0.3 2.85198 2.85198 0.3 6 0.3V-0.3ZM25 -0.3H6V0.3H25V-0.3ZM31.3 6C31.3 2.52061 28.4794 -0.3 25 -0.3V0.3C28.1481 0.3 30.7 2.85198 30.7 6H31.3ZM31.3 24.3261V6H30.7V24.3261H31.3ZM25 30.6261C28.4794 30.6261 31.3 27.8055 31.3 24.3261H30.7C30.7 27.4741 28.1481 30.0261 25 30.0261V30.6261ZM6 30.6261H25V30.0261H6V30.6261ZM-0.3 24.3261C-0.3 27.8055 2.5206 30.6261 6 30.6261V30.0261C2.85197 30.0261 0.3 27.4742 0.3 24.3261H-0.3ZM-0.3 6V24.3261H0.3V6H-0.3Z"
        fill="white" mask="url(#path-1-inside-1_214_859)" />

</svg>
