<svg width="30" height="33" viewBox="0 0 30 33" fill="none" xmlns="http://www.w3.org/2000/svg">
<g clip-path="url(#clip0_214_385)">
    <defs>
        <clipPath id="clip0_214_385">
            <rect width="30" height="33" fill="white"/>
        </clipPath>
    </defs>
<path d="M4.51159 33.0001C3.52618 32.809 2.62077 32.4468 1.85661 31.7829C0.60586 30.6971 0.00742781 29.3186 0.00497857 27.6859C-0.00100848 23.8678 -0.00100848 20.0472 0.00497857 16.2242C0.00497857 12.5863 -0.004002 8.94747 0.00497857 5.30948C0.0115099 3.50985 0.739752 2.04094 2.2093 0.967294C3.05007 0.340751 4.07489 0.00256994 5.12799 0.00415594C10.5593 0.00415594 15.9904 0.00415594 21.4212 0.00415594C24.0035 0.00980249 26.238 2.05062 26.5042 4.59479C26.539 4.93626 26.5559 5.27927 26.5548 5.62246C26.5548 8.01552 26.5548 10.4086 26.5548 12.8016C26.5603 12.9635 26.5507 13.1255 26.5262 13.2856C26.3956 13.9987 25.8413 14.4367 25.122 14.4069C24.4689 14.3803 23.9447 13.8737 23.8688 13.1856C23.8575 13.0466 23.8539 12.9071 23.8582 12.7678C23.8582 10.2462 23.8639 7.72378 23.8582 5.20139C23.8533 3.98739 23.085 3.01699 21.9192 2.7274C21.6131 2.65509 21.2991 2.62041 20.9844 2.62415H5.5664C4.41444 2.62415 3.49107 3.02748 2.95387 4.09386C2.74568 4.50687 2.69997 4.95214 2.69997 5.4087C2.69997 10.4309 2.69997 15.4534 2.69997 20.4761C2.69997 22.9122 2.69507 25.3483 2.69997 27.7843C2.69997 29.0282 3.45923 30.0018 4.63406 30.297C4.9401 30.3699 5.25407 30.4051 5.56885 30.4019H9.41417C10.2706 30.4019 10.7702 30.7552 10.9327 31.4691C11.0748 32.0959 10.7229 32.6637 9.9832 33.0017L4.51159 33.0001Z" fill="#222F7E"/>
<path d="M15.1364 33C14.2588 32.5967 13.9934 32.0159 14.28 31.0947C14.7557 29.5454 15.2317 27.9953 15.7079 26.4444C15.8052 26.1141 15.9851 25.8133 16.2312 25.57C18.5735 23.2694 20.9044 20.9575 23.2573 18.6683C24.446 17.5115 25.8813 17.201 27.4324 17.7729C29.0326 18.3625 29.8817 19.5862 29.9886 21.2592C30.0279 21.7713 29.9541 22.2856 29.7726 22.7668C29.591 23.248 29.306 23.6845 28.9371 24.0462C27.0896 25.9031 25.2118 27.739 23.3447 29.5798C22.845 30.0735 22.3405 30.5623 21.8473 31.0608C21.5882 31.3229 21.2616 31.5103 20.9028 31.6029C19.2188 32.0637 17.5359 32.5284 15.854 32.9968L15.1364 33ZM17.6673 29.7419L17.802 29.704C18.4821 29.5193 19.1613 29.3322 19.843 29.1507C19.9986 29.1076 20.1396 29.024 20.2513 28.9087C21.7094 27.4669 23.1697 26.0279 24.6321 24.5915C24.8044 24.4237 24.7742 24.3293 24.6199 24.1817C24.1668 23.7502 23.7153 23.3146 23.2859 22.8612C23.0875 22.6523 22.9691 22.6612 22.7683 22.8612C21.3322 24.2938 19.8839 25.7143 18.4413 27.1365C18.3653 27.2115 18.2665 27.2873 18.2363 27.3785C17.9979 28.1133 17.7734 28.853 17.5457 29.5903C17.5122 29.7137 17.5563 29.7613 17.6673 29.7411V29.7419ZM27.3083 21.448C27.3182 21.1871 27.2446 20.9298 27.0981 20.7126C26.9515 20.4954 26.7394 20.3294 26.4919 20.238C26.2439 20.1575 25.9778 20.149 25.7251 20.2137C25.4724 20.2783 25.2438 20.4133 25.0665 20.6026C24.9334 20.7494 25.0183 20.8236 25.1138 20.9188C25.5131 21.3108 25.9098 21.7045 26.3082 22.0981C26.7581 22.5426 26.9704 22.4974 27.2185 21.8981C27.2817 21.7564 27.3124 21.6027 27.3083 21.448Z" fill="#222F7E"/>
<path d="M13.2439 10.3517C11.0298 10.3517 8.81544 10.3517 6.60078 10.3517C5.91744 10.3517 5.4333 9.97662 5.26757 9.3434C5.22464 9.16328 5.22072 8.97622 5.25607 8.79449C5.29142 8.61277 5.36524 8.44048 5.4727 8.28891C5.58015 8.13735 5.71882 8.00993 5.8796 7.91502C6.04038 7.82011 6.21965 7.75984 6.40566 7.73817C6.4922 7.73091 6.57955 7.73172 6.66609 7.73172C11.0747 7.73172 15.4817 7.73172 19.8871 7.73172C20.5672 7.73172 21.0179 8.0213 21.2391 8.58757C21.3156 8.78384 21.3426 8.99558 21.3177 9.20447C21.2928 9.41336 21.2168 9.61311 21.0962 9.78644C20.9756 9.95976 20.8141 10.1015 20.6256 10.1992C20.4371 10.297 20.2274 10.348 20.0145 10.3477C18.6037 10.3606 17.1929 10.3517 15.7814 10.3525L13.2439 10.3517Z" fill="#1CB6EA"/>
<path d="M13.2774 15.5037C11.0529 15.5037 8.82765 15.5037 6.60156 15.5037C5.91822 15.5037 5.43409 15.1303 5.26754 14.497C5.22447 14.3169 5.22042 14.1298 5.25566 13.9481C5.2909 13.7663 5.36463 13.5939 5.47202 13.4423C5.5794 13.2906 5.71802 13.1631 5.87877 13.0681C6.03952 12.9731 6.21879 12.9128 6.4048 12.891C6.47992 12.8837 6.55666 12.8845 6.63258 12.8845C11.0608 12.8845 15.4896 12.8845 19.9189 12.8845C20.559 12.8845 21.0007 13.1685 21.2252 13.7089C21.3089 13.9054 21.3421 14.1193 21.3218 14.3316C21.3014 14.5438 21.2282 14.7478 21.1086 14.9252C20.989 15.1027 20.8268 15.2481 20.6364 15.3485C20.4461 15.4489 20.2335 15.5011 20.0177 15.5005C18.6502 15.5134 17.2819 15.5045 15.9144 15.5045L13.2774 15.5037Z" fill="#1CB6EA"/>
<path d="M10.6273 20.655C9.25979 20.655 7.89148 20.6623 6.52398 20.655C5.83248 20.6502 5.29936 20.1388 5.22507 19.4491C5.16139 18.8465 5.60552 18.2391 6.22681 18.0778C6.32121 18.0537 6.41832 18.0415 6.51582 18.0415C9.26279 18.0415 12.0098 18.0415 14.7567 18.0415C15.3968 18.0415 15.8744 18.4561 16.023 19.0901C16.0811 19.3707 16.0445 19.6623 15.9189 19.9203C15.7933 20.1783 15.5855 20.3885 15.3274 20.5187C15.1113 20.6212 14.873 20.6697 14.6334 20.6599C13.2989 20.6599 11.9635 20.6599 10.6273 20.6599V20.655Z" fill="#1CB6EA"/>
</g>

</svg>
