<svg width="374" height="300" viewBox="0 0 374 300" fill="none" xmlns="http://www.w3.org/2000/svg">
<path d="M374 300H0V0.800018H374V300Z" fill="white"/>
<path d="M136.959 51.1403C91.5672 71.364 76.2579 134.945 94.563 181.032C114.864 232.145 170.215 245.884 179.727 248.046C212.82 255.558 270.61 254.4 293.498 216.228C318.939 173.802 282.503 116.95 257.376 91.3117C250.792 84.5977 192.236 26.5162 136.959 51.1403Z" fill="#ECF3FE"/>
<path d="M256.415 108.177L156.033 138.968L181.332 230.63L285.331 212.938L256.415 108.177ZM157.076 139.538L255.829 109.244L284.262 212.26L181.947 229.664L157.076 139.538Z" fill="#444444"/>
<path d="M107.374 47.2269L107.174 47.6009L72.5771 112.133L112.995 133.802L119.747 121.213L147.793 68.8964L147.419 68.6959L107.374 47.2269ZM73.7268 111.785L107.722 48.3773L146.643 69.2465L118.998 120.814L112.649 132.652L107.603 129.947L73.7268 111.785Z" fill="#444444"/>
<g style="mix-blend-mode:multiply" opacity="0.2">
<path d="M276.108 122.125C291.626 122.125 304.206 134.705 304.206 150.223C304.206 165.741 291.626 178.321 276.108 178.321C260.59 178.321 248.01 165.741 248.01 150.223C248.01 134.705 260.59 122.125 276.108 122.125Z" fill="#3A7EC1"/>
</g>
<path d="M273.327 122.125C288.845 122.125 301.425 134.705 301.425 150.223C301.425 165.741 288.845 178.321 273.327 178.321C257.809 178.321 245.229 165.741 245.229 150.223C245.229 134.705 257.809 122.125 273.327 122.125Z" fill="#F9C067"/>
<g style="mix-blend-mode:multiply" opacity="0.2">
<path d="M249.65 114.047C249.65 114.047 279.506 205.505 278.657 205.505C277.808 205.505 268.682 207.203 268.682 207.203L249.65 114.047Z" fill="#3A7EC1"/>
</g>
<g style="mix-blend-mode:multiply" opacity="0.2">
<path d="M194.577 63.5941L230.035 119.99L194.577 129.918V63.5941Z" fill="#3A7EC1"/>
</g>
<g style="mix-blend-mode:multiply" opacity="0.2">
<path d="M220.596 93.2349C218.202 93.2349 215.975 92.647 214.11 91.6395L208.207 96.3608C209.213 97.8015 209.792 99.4718 209.792 101.255C209.792 106.671 204.482 111.061 197.926 111.061C191.371 111.061 186.059 106.671 186.059 101.255C186.059 95.8387 191.37 91.4495 197.926 91.4495C201.151 91.4495 204.075 92.5139 206.213 94.2395L211.663 89.8809C209.838 88.156 208.729 85.9 208.729 83.4294C208.729 78.0131 214.04 73.6231 220.596 73.6231C227.151 73.6231 232.462 78.0131 232.462 83.4294C232.462 88.8457 227.149 93.2349 220.596 93.2349Z" fill="#3A7EC1"/>
</g>
<path d="M137.807 70.8152L98.1368 49.5466L63.7407 113.704L97.9901 132.065L103.411 134.972L109.961 122.757L137.807 70.8152Z" fill="#3B82F4"/>
<path d="M77.5887 112.725L79.1685 113.57L78.4908 114.833L73.8091 112.322L74.4823 111.061L76.0725 111.912L78.8155 106.795L80.3294 107.606L77.5887 112.725Z" fill="#B3CEF6"/>
<path d="M85.9796 114.751C85.5188 115.606 84.884 116.245 84.0751 116.668C83.2663 117.09 82.4163 117.063 81.5252 116.585C80.6441 116.114 80.1322 115.438 79.9896 114.56C79.8469 113.681 80.026 112.776 80.5266 111.844C81.0173 110.929 81.6706 110.275 82.4864 109.882C83.3022 109.489 84.1395 109.522 84.9982 109.982C85.8958 110.464 86.4077 111.148 86.5338 112.033C86.661 112.918 86.474 113.823 85.9796 114.751ZM84.3871 111.226C83.6032 110.806 82.8417 111.286 82.1027 112.666C81.3636 114.046 81.3861 114.944 82.17 115.359C82.9285 115.765 83.678 115.278 84.4185 113.899C85.159 112.519 85.1485 111.628 84.3871 111.226Z" fill="#B3CEF6"/>
<path d="M94.5742 119.369C94.1838 120.095 93.7076 120.613 93.1456 120.923C92.5836 121.233 92.0485 121.393 91.5404 121.405C91.0325 121.415 90.3832 121.209 89.5888 120.782L87.644 119.735L91.0646 113.357L93.26 114.533C94.205 115.04 94.7832 115.745 94.9946 116.646C95.2061 117.547 95.0659 118.455 94.5742 119.369ZM93.3872 116.938C93.3408 116.389 93.0458 115.969 92.5023 115.678L91.8867 115.347L89.7399 119.351L90.3683 119.689C90.6458 119.848 90.9614 119.93 91.2816 119.925C91.5763 119.912 91.8882 119.78 92.2158 119.534C92.5482 119.278 92.8212 118.954 93.0162 118.582C93.3086 118.033 93.4343 117.488 93.3872 116.938Z" fill="#B3CEF6"/>
<path d="M100.696 122.64C100.273 123.459 99.6086 124.129 98.7927 124.557C98.3433 124.801 97.8289 124.898 97.3214 124.836C96.9427 124.784 96.577 124.662 96.2428 124.477C95.3617 124.003 94.85 123.327 94.7079 122.449C94.5658 121.57 94.7441 120.665 95.2427 119.734C95.6297 119.016 96.1147 118.46 96.6976 118.065C96.8587 117.954 97.0283 117.856 97.2047 117.772C98.0201 117.379 98.8573 117.413 99.7165 117.873C100.614 118.354 101.126 119.037 101.251 119.923C101.377 120.809 101.192 121.715 100.696 122.64ZM99.1047 119.116C98.3537 118.712 97.6226 119.138 96.9115 120.392C96.8801 120.445 96.8502 120.5 96.8203 120.555C96.0813 121.933 96.1039 122.832 96.8883 123.251C96.9822 123.303 97.0829 123.341 97.1875 123.364C97.8443 123.514 98.494 122.99 99.1368 121.794C99.8744 120.413 99.8636 119.521 99.1047 119.116Z" fill="#B3CEF6"/>
<path d="M82.6777 94.1003C84.8649 94.5243 86.2943 96.6411 85.8704 98.8283C85.4464 101.016 83.3296 102.445 81.1424 102.021C78.9552 101.597 77.5258 99.4802 77.9498 97.293C78.3737 95.1058 80.4905 93.6764 82.6777 94.1003Z" fill="#B3CEF6"/>
<path d="M109.259 110.817L89.4608 100.203C89.2665 100.099 89.0536 100.034 88.8342 100.012C88.6149 99.9902 88.3934 100.012 88.1823 100.075C87.9713 100.139 87.7749 100.244 87.6044 100.384C87.4338 100.523 87.2925 100.695 87.1883 100.889C87.0842 101.084 87.0194 101.297 86.9975 101.516C86.9757 101.735 86.9972 101.957 87.061 102.168C87.1248 102.379 87.2295 102.575 87.3691 102.746C87.5088 102.916 87.6807 103.058 87.875 103.162L107.673 113.776C107.867 113.88 108.08 113.945 108.3 113.967C108.519 113.989 108.74 113.967 108.951 113.904C109.163 113.84 109.359 113.735 109.529 113.596C109.7 113.456 109.841 113.284 109.946 113.09C110.156 112.697 110.202 112.237 110.073 111.811C109.944 111.385 109.651 111.027 109.259 110.817Z" fill="#B3CEF6"/>
<path d="M87.7606 83.1845C89.9883 83.2136 91.7706 85.0432 91.7414 87.2709C91.7122 89.4987 89.8827 91.2809 87.655 91.2518C85.4273 91.2226 83.645 89.3931 83.6741 87.1653C83.7033 84.9376 85.5329 83.1553 87.7606 83.1845Z" fill="#B3CEF6"/>
<path d="M115.068 99.9812L95.2698 89.3633C95.0755 89.2591 94.8626 89.1942 94.6432 89.1723C94.4239 89.1504 94.2023 89.1719 93.9913 89.2357C93.7802 89.2995 93.5838 89.4042 93.4133 89.5439C93.2427 89.6837 93.1014 89.8556 92.9974 90.05C92.787 90.4423 92.7411 90.9021 92.8697 91.3283C92.9983 91.7544 93.291 92.112 93.6833 92.3224L113.482 102.937C113.676 103.041 113.889 103.106 114.109 103.127C114.328 103.149 114.55 103.128 114.761 103.064C114.972 103 115.168 102.895 115.339 102.756C115.509 102.616 115.65 102.444 115.755 102.25C115.964 101.858 116.009 101.399 115.88 100.974C115.751 100.548 115.459 100.191 115.068 99.9812Z" fill="#B3CEF6"/>
<path d="M93.5233 72.3515C95.7513 72.3515 97.5574 74.1576 97.5574 76.3855C97.5574 78.6134 95.7513 80.4194 93.5233 80.4194C91.2954 80.4194 89.4893 78.6134 89.4893 76.3855C89.4893 74.1576 91.2954 72.3515 93.5233 72.3515Z" fill="#B3CEF6"/>
<path d="M120.877 89.1457L101.078 78.5316C100.686 78.3212 100.226 78.2753 99.7999 78.4039C99.3737 78.5326 99.0161 78.8252 98.8057 79.2175C98.7015 79.4117 98.6365 79.6246 98.6145 79.8439C98.5926 80.0633 98.6141 80.2848 98.6778 80.4959C98.7415 80.7069 98.8461 80.9033 98.9858 81.0739C99.1254 81.2444 99.2973 81.3858 99.4916 81.4899L119.29 92.1047C119.485 92.2089 119.698 92.2737 119.917 92.2956C120.136 92.3174 120.358 92.2958 120.569 92.2321C120.78 92.1683 120.976 92.0636 121.147 91.9239C121.317 91.7843 121.459 91.6124 121.563 91.4181C121.773 91.0258 121.819 90.566 121.691 90.1398C121.562 89.7137 121.269 89.3561 120.877 89.1457Z" fill="#B3CEF6"/>
<path d="M99.3323 61.5162C101.56 61.5162 103.366 63.3222 103.366 65.5501C103.366 67.778 101.56 69.5841 99.3323 69.5841C97.1044 69.5841 95.2983 67.778 95.2983 65.5501C95.2983 63.3222 97.1044 61.5162 99.3323 61.5162Z" fill="#B3CEF6"/>
<path d="M126.687 78.3101L106.889 67.6958C106.497 67.4855 106.037 67.4395 105.611 67.5682C105.185 67.6968 104.827 67.9895 104.617 68.3817C104.513 68.576 104.448 68.789 104.426 69.0083C104.404 69.2277 104.426 69.4492 104.489 69.6602C104.553 69.8712 104.658 70.0676 104.798 70.2382C104.937 70.4087 105.109 70.5501 105.303 70.6542L125.101 81.2685C125.494 81.4789 125.954 81.5248 126.38 81.3962C126.806 81.2675 127.164 80.9749 127.374 80.5826C127.478 80.3882 127.543 80.1753 127.565 79.9559C127.586 79.7365 127.565 79.515 127.501 79.304C127.437 79.0929 127.332 78.8965 127.193 78.726C127.053 78.5555 126.881 78.4142 126.687 78.3101Z" fill="#B3CEF6"/>
<g style="mix-blend-mode:multiply" opacity="0.2">
<path d="M109.961 122.757L104.664 112.162L102.061 106.956L95.1329 93.1026L94.2241 91.2872L94.3535 92.6837L95.3386 103.353L95.7082 107.362L96.6978 118.065L96.9117 120.392L97.1862 123.364L97.3216 124.836L97.9903 132.065L103.411 134.972L109.961 122.757Z" fill="#3A7EC1"/>
</g>
<path d="M265.803 136.712C265.285 136.762 264.782 136.914 264.323 137.159C263.864 137.404 263.458 137.737 263.128 138.14L255.538 147.377C254.904 148.192 254.613 149.223 254.728 150.25C254.842 151.276 255.353 152.218 256.151 152.874C256.949 153.53 257.972 153.848 259.001 153.761C260.031 153.674 260.985 153.189 261.662 152.409L266.736 146.232L282.533 159.212C282.933 159.56 283.398 159.825 283.902 159.99C284.406 160.155 284.938 160.217 285.467 160.173C285.995 160.129 286.509 159.979 286.979 159.733C287.448 159.487 287.864 159.149 288.2 158.739C288.537 158.329 288.788 157.856 288.938 157.348C289.089 156.839 289.136 156.306 289.077 155.779C289.017 155.252 288.853 154.742 288.593 154.28C288.333 153.818 287.983 153.412 287.564 153.088L268.706 137.594C268.304 137.263 267.84 137.015 267.342 136.863C266.844 136.712 266.321 136.66 265.803 136.712Z" fill="white"/>
<path d="M223.816 78.5707C223.676 78.6974 223.563 78.8503 223.482 79.0207C223.401 79.1912 223.355 79.3759 223.346 79.5643C223.336 79.7526 223.364 79.941 223.428 80.1186C223.491 80.2962 223.589 80.4595 223.716 80.5993C225.095 82.1222 222.781 84.5173 222.757 84.5413L189.022 115.105C188.882 115.232 188.769 115.385 188.688 115.555C188.607 115.726 188.561 115.911 188.552 116.099C188.543 116.287 188.57 116.476 188.634 116.653C188.698 116.831 188.795 116.994 188.922 117.134C189.049 117.274 189.202 117.387 189.372 117.468C189.543 117.549 189.727 117.595 189.916 117.604C190.104 117.613 190.293 117.586 190.47 117.522C190.648 117.458 190.811 117.361 190.951 117.234L224.748 86.6117C226.279 85.0536 228.388 81.476 225.845 78.6702C225.589 78.388 225.232 78.219 224.851 78.2003C224.471 78.1817 224.098 78.3149 223.816 78.5707Z" fill="#636466"/>
<path d="M190.283 108.953C190.423 108.827 190.587 108.729 190.764 108.665C190.942 108.602 191.13 108.574 191.318 108.583C191.507 108.593 191.692 108.639 191.862 108.72C192.032 108.8 192.185 108.914 192.312 109.054C193.692 110.576 196.303 108.508 196.329 108.487L230.064 77.9189C230.203 77.7884 230.367 77.687 230.546 77.6205C230.725 77.5539 230.915 77.5237 231.105 77.5315C231.296 77.5393 231.483 77.5849 231.656 77.6658C231.829 77.7467 231.984 77.8611 232.112 78.0025C232.24 78.1439 232.338 78.3093 232.402 78.4892C232.465 78.6691 232.492 78.8599 232.481 79.0503C232.47 79.2408 232.421 79.4271 232.338 79.5985C232.254 79.7698 232.137 79.9228 231.993 80.0485L198.196 110.671C196.496 112.042 192.728 113.789 190.186 110.983C189.93 110.701 189.796 110.329 189.815 109.948C189.833 109.567 190.001 109.21 190.283 108.953Z" fill="#636466"/>
<path opacity="0.28" d="M205.502 101.399C209.686 105.584 209.686 112.368 205.502 116.552C201.318 120.736 194.534 120.736 190.35 116.552C186.165 112.368 186.165 105.584 190.35 101.399C194.534 97.2151 201.318 97.2151 205.502 101.399Z" fill="#F2F2F2"/>
<path opacity="0.28" d="M230.809 78.4681C234.994 82.6524 234.994 89.4364 230.809 93.6207C226.625 97.805 219.841 97.805 215.657 93.6207C211.473 89.4365 211.473 82.6524 215.657 78.4681C219.841 74.2839 226.625 74.2839 230.809 78.4681Z" fill="#F2F2F2"/>
<path d="M231.593 95.2726C227.434 99.041 221.393 99.4614 216.823 96.7147C216.355 98.4863 215.383 100.084 214.025 101.314C212.667 102.545 210.981 103.355 209.172 103.646C211.457 108.464 210.451 114.429 206.285 118.204C201.199 122.815 193.304 122.419 188.7 117.337C184.095 112.255 184.478 104.362 189.566 99.7516C191.607 97.9135 194.194 96.7952 196.93 96.5681C198.83 96.425 200.736 96.7152 202.507 97.4167C204.278 98.1183 205.866 99.2128 207.152 100.618C207.242 100.717 207.338 100.823 207.421 100.93C207.713 100.924 207.999 100.91 208.284 100.884C209.764 100.72 211.094 100.147 212.123 99.2153C213.152 98.2833 213.852 97.0154 214.161 95.5598C214.219 95.275 214.26 94.987 214.285 94.6974C214.187 94.6046 214.098 94.5059 214.007 94.4064C211.843 92.0161 210.694 88.8773 210.804 85.6548C210.836 84.512 211.027 83.3792 211.37 82.2888C212.031 80.1889 213.24 78.3037 214.874 76.8284C219.96 72.2177 227.849 72.6067 232.459 77.6953C237.07 82.784 236.682 90.6597 231.593 95.2726ZM197.485 99.4157C195.671 99.4989 193.917 100.096 192.43 101.138C190.943 102.18 189.782 103.624 189.084 105.301C188.386 106.977 188.18 108.818 188.488 110.607C188.797 112.397 189.608 114.062 190.828 115.408C194.372 119.319 200.438 119.624 204.355 116.074C207.897 112.866 208.476 107.585 205.921 103.71L205.914 103.703C205.648 103.294 205.35 102.908 205.022 102.547C204.833 102.335 204.633 102.133 204.424 101.941C203.148 100.753 201.565 99.9445 199.854 99.6072C199.075 99.4451 198.278 99.38 197.482 99.4135L197.485 99.4157ZM216.806 78.9497C215.155 80.4398 214.078 82.4622 213.765 84.6644C213.652 85.4522 213.638 86.251 213.722 87.0423C213.889 88.7777 214.537 90.4322 215.592 91.8198C215.762 92.048 215.944 92.2672 216.137 92.4766C216.463 92.8386 216.818 93.1738 217.199 93.4789L217.206 93.4856C220.811 96.4088 226.122 96.3519 229.664 93.1438C231.546 91.4383 232.674 89.0549 232.799 86.518C232.924 83.9811 232.036 81.4984 230.331 79.6162C228.625 77.7339 226.242 76.6063 223.705 76.4813C221.168 76.3563 218.685 77.2442 216.803 78.9497H216.806Z" fill="#636466"/>
<path d="M276.108 209.752L249.914 114.848C249.624 113.778 249.126 112.775 248.448 111.898C247.77 111.021 246.925 110.286 245.963 109.737C245 109.187 243.938 108.833 242.838 108.695C241.738 108.557 240.621 108.638 239.552 108.933C238.484 109.228 237.484 109.731 236.61 110.414C235.737 111.096 235.007 111.945 234.462 112.91C233.917 113.876 233.569 114.94 233.437 116.041C233.304 117.141 233.391 118.258 233.692 119.325L238.435 136.513L154.305 159.729L172.952 227.301L276.108 209.752Z" fill="white"/>
<g style="mix-blend-mode:multiply" opacity="0.2">
<path d="M242.534 190.924L241.948 188.801L167.962 209.221L170.076 216.882C182.702 212.406 242.534 190.924 242.534 190.924Z" fill="#3A7EC1"/>
</g>
<g style="mix-blend-mode:multiply" opacity="0.2">
<path d="M247.416 188.651C244.947 189.336 242.32 189.167 239.958 188.174L228.975 148.372L240.805 145.107L233.689 119.322C232.842 116.252 233.312 113.247 234.713 111.378C236.895 112.283 238.872 114.691 239.743 117.845L246.809 143.45L255.262 174.081L255.399 174.579C255.799 176.027 255.91 177.54 255.725 179.031C255.54 180.522 255.063 181.962 254.322 183.269C253.581 184.575 252.589 185.723 251.404 186.647C250.219 187.57 248.864 188.251 247.416 188.651Z" fill="#3A7EC1"/>
</g>
<path d="M239.564 108.973L150.523 133.544C147.523 134.372 144.974 136.359 143.438 139.066C141.902 141.773 141.504 144.98 142.332 147.98L160.434 213.575L230.622 194.207L227.579 183.179C228.293 185.784 229.91 188.05 232.142 189.573C232.406 189.756 232.68 189.927 232.959 190.085C234.927 191.202 237.182 191.71 239.439 191.545C241.695 191.38 243.852 190.55 245.637 189.159C247.422 187.769 248.754 185.88 249.465 183.732C250.177 181.584 250.235 179.274 249.633 177.093L233.691 119.322C233.098 117.171 233.383 114.872 234.484 112.931C235.586 110.99 237.413 109.567 239.564 108.973Z" fill="#5B97EF"/>
<path d="M225.816 112.767L209.397 117.298L227.648 183.435C228.396 185.937 229.983 188.105 232.141 189.574C237.826 187.654 241.117 181.553 239.502 175.699L224.222 120.331C223.863 119.034 223.821 117.671 224.099 116.355C224.376 115.039 224.965 113.809 225.816 112.767Z" fill="#3B82F4"/>
<path d="M194.577 63.5938L227.577 183.181C228.386 186.106 230.322 188.589 232.961 190.087C235.599 191.584 238.725 191.972 241.65 191.166L141.21 218.883C138.307 219.683 135.205 219.297 132.587 217.811C129.968 216.324 128.047 213.857 127.247 210.954L94.2231 91.287L194.577 63.5938Z" fill="white"/>
<path d="M141.905 190.388C144.016 192.499 144.016 195.922 141.905 198.033C139.794 200.144 136.371 200.144 134.26 198.033C132.149 195.922 132.149 192.499 134.26 190.388C136.371 188.277 139.794 188.277 141.905 190.388Z" fill="#E4ECF9"/>
<path d="M211.429 171.166L149.345 188.299C148.67 188.487 148.097 188.935 147.751 189.545C147.405 190.154 147.314 190.876 147.499 191.552L147.529 191.664C147.718 192.339 148.166 192.912 148.775 193.258C149.385 193.604 150.106 193.694 150.783 193.51L212.867 176.381C213.542 176.193 214.115 175.745 214.461 175.135C214.807 174.526 214.897 173.804 214.713 173.128L214.681 173.016C214.494 172.34 214.046 171.766 213.437 171.42C212.827 171.073 212.105 170.982 211.429 171.166Z" fill="#E4ECF9"/>
<path d="M133.152 170.939C136.138 170.939 138.558 173.36 138.558 176.345C138.558 179.331 136.138 181.751 133.152 181.751C130.167 181.751 127.746 179.331 127.746 176.345C127.746 173.36 130.167 170.939 133.152 170.939Z" fill="#E4ECF9"/>
<path d="M206.499 153.301L144.415 170.43C143.74 170.619 143.167 171.067 142.821 171.676C142.475 172.286 142.384 173.008 142.569 173.684L142.6 173.795C142.788 174.47 143.236 175.043 143.845 175.389C144.455 175.735 145.177 175.826 145.853 175.641L207.937 158.512C208.612 158.324 209.185 157.876 209.531 157.266C209.877 156.657 209.967 155.935 209.783 155.259L209.752 155.148C209.564 154.472 209.116 153.899 208.506 153.553C207.897 153.207 207.175 153.116 206.499 153.301Z" fill="#E4ECF9"/>
<path d="M128.222 153.073C131.208 153.073 133.628 155.494 133.628 158.479C133.628 161.465 131.208 163.885 128.222 163.885C125.237 163.885 122.816 161.465 122.816 158.479C122.816 155.494 125.237 153.073 128.222 153.073Z" fill="#E4ECF9"/>
<path d="M201.598 140.432L139.769 157.822C138.367 158.216 136.91 157.399 136.516 155.997L136.484 155.886C136.09 154.483 136.907 153.027 138.309 152.632L200.139 135.243C201.541 134.848 202.998 135.665 203.392 137.068L203.423 137.179C203.818 138.581 203.001 140.038 201.598 140.432Z" fill="#E4ECF9"/>
<path d="M127.114 136.791C129.225 138.902 129.225 142.325 127.114 144.436C125.003 146.547 121.581 146.547 119.469 144.436C117.358 142.325 117.358 138.902 119.469 136.791C121.581 134.68 125.003 134.68 127.114 136.791Z" fill="#E4ECF9"/>
<path d="M196.639 117.569L134.555 134.702C133.88 134.89 133.307 135.338 132.961 135.948C132.615 136.557 132.524 137.279 132.709 137.955L132.74 138.067C132.929 138.742 133.376 139.315 133.986 139.661C134.595 140.007 135.317 140.097 135.993 139.913L198.077 122.78C198.752 122.592 199.325 122.144 199.671 121.535C200.017 120.925 200.107 120.204 199.923 119.527L199.892 119.415C199.703 118.74 199.255 118.167 198.646 117.821C198.036 117.476 197.315 117.385 196.639 117.569Z" fill="#E4ECF9"/>
<path d="M122.184 118.926C124.295 121.037 124.295 124.459 122.184 126.57C120.073 128.681 116.65 128.681 114.539 126.57C112.428 124.459 112.428 121.037 114.539 118.926C116.65 116.814 120.073 116.814 122.184 118.926Z" fill="#E4ECF9"/>
<path d="M191.713 99.704L129.628 116.833C128.954 117.022 128.381 117.47 128.035 118.079C127.689 118.689 127.598 119.41 127.782 120.086L127.814 120.198C128.002 120.873 128.45 121.446 129.06 121.792C129.669 122.138 130.391 122.229 131.067 122.044L193.151 104.915C193.826 104.727 194.399 104.279 194.745 103.67C195.091 103.06 195.182 102.338 194.997 101.662L194.966 101.551C194.778 100.875 194.331 100.302 193.721 99.9557C193.111 99.6096 192.389 99.5191 191.713 99.704Z" fill="#E4ECF9"/>
<path d="M117.254 101.06C119.365 103.171 119.365 106.593 117.254 108.704C115.142 110.816 111.72 110.816 109.609 108.704C107.498 106.593 107.498 103.171 109.609 101.06C111.72 98.9486 115.142 98.9486 117.254 101.06Z" fill="#E4ECF9"/>
<path d="M186.775 81.8378L124.692 98.9706C124.017 99.1591 123.444 99.607 123.098 100.217C122.752 100.826 122.661 101.548 122.846 102.224L122.877 102.335C123.065 103.01 123.513 103.583 124.123 103.929C124.732 104.275 125.454 104.366 126.13 104.181L188.214 87.0521C188.889 86.8635 189.462 86.4155 189.808 85.8059C190.154 85.1962 190.244 84.4745 190.06 83.7983L190.029 83.6868C189.842 83.011 189.394 82.4371 188.784 82.0906C188.174 81.7441 187.452 81.6531 186.775 81.8378Z" fill="#E4ECF9"/>
<path d="M130.591 173.113C130.408 173.163 130.236 173.249 130.086 173.366C129.936 173.483 129.81 173.628 129.717 173.794L127.561 177.594C127.379 177.927 127.335 178.319 127.439 178.685C127.543 179.05 127.786 179.36 128.117 179.548C128.447 179.735 128.838 179.786 129.206 179.687C129.573 179.589 129.887 179.351 130.08 179.023L131.521 176.48L138.019 180.167C138.184 180.264 138.368 180.328 138.558 180.354C138.748 180.38 138.942 180.367 139.128 180.318C139.313 180.268 139.487 180.182 139.639 180.065C139.791 179.947 139.918 179.801 140.013 179.634C140.108 179.467 140.168 179.282 140.191 179.092C140.214 178.901 140.199 178.707 140.146 178.523C140.094 178.338 140.005 178.165 139.885 178.015C139.765 177.865 139.617 177.74 139.448 177.648L131.691 173.246C131.525 173.153 131.343 173.093 131.154 173.07C130.966 173.047 130.774 173.062 130.591 173.113Z" fill="#F9C067"/>
<path d="M121.022 138.432C120.838 138.483 120.667 138.569 120.517 138.686C120.367 138.803 120.241 138.948 120.147 139.114L117.992 142.913C117.894 143.078 117.831 143.262 117.805 143.452C117.779 143.642 117.791 143.836 117.841 144.022C117.89 144.207 117.976 144.381 118.094 144.533C118.211 144.685 118.358 144.812 118.525 144.907C118.692 145.002 118.876 145.062 119.067 145.085C119.258 145.108 119.451 145.093 119.636 145.04C119.821 144.988 119.993 144.899 120.143 144.779C120.293 144.659 120.418 144.511 120.51 144.342L121.952 141.799L128.449 145.487C128.615 145.581 128.797 145.641 128.986 145.664C129.175 145.688 129.366 145.674 129.549 145.623C129.733 145.572 129.904 145.486 130.054 145.369C130.204 145.252 130.33 145.107 130.424 144.942C130.518 144.776 130.578 144.594 130.601 144.405C130.625 144.217 130.611 144.025 130.56 143.842C130.51 143.658 130.423 143.487 130.306 143.337C130.19 143.187 130.044 143.061 129.879 142.967L122.121 138.565C121.956 138.472 121.774 138.412 121.585 138.389C121.396 138.366 121.205 138.381 121.022 138.432Z" fill="#F9C067"/>
<path d="M115.946 120.043C115.762 120.093 115.591 120.179 115.44 120.296C115.29 120.413 115.165 120.558 115.071 120.724L112.915 124.524C112.726 124.858 112.677 125.254 112.779 125.624C112.881 125.994 113.126 126.309 113.46 126.498C113.794 126.688 114.19 126.737 114.56 126.635C114.931 126.533 115.245 126.287 115.435 125.953L116.875 123.41L123.374 127.097C123.54 127.196 123.723 127.261 123.914 127.288C124.105 127.315 124.3 127.303 124.486 127.254C124.673 127.205 124.848 127.119 125.001 127.001C125.153 126.883 125.281 126.736 125.376 126.568C125.471 126.401 125.532 126.215 125.555 126.024C125.577 125.832 125.562 125.638 125.508 125.453C125.455 125.267 125.365 125.095 125.244 124.944C125.123 124.794 124.973 124.67 124.803 124.579L117.046 120.181C116.881 120.087 116.698 120.026 116.51 120.002C116.321 119.978 116.129 119.992 115.946 120.043Z" fill="#F9C067"/>
<path d="M111.161 102.705C110.978 102.755 110.806 102.841 110.656 102.958C110.506 103.075 110.381 103.22 110.287 103.386L108.131 107.185C107.941 107.519 107.892 107.915 107.994 108.285C108.096 108.656 108.341 108.97 108.675 109.16C109.01 109.349 109.405 109.398 109.776 109.296C110.146 109.194 110.46 108.949 110.65 108.615L112.091 106.072L118.589 109.759C118.923 109.949 119.319 109.998 119.689 109.896C120.06 109.793 120.374 109.548 120.564 109.214C120.753 108.88 120.802 108.484 120.7 108.114C120.598 107.744 120.353 107.429 120.019 107.24L112.261 102.838C112.096 102.744 111.913 102.684 111.725 102.662C111.536 102.639 111.344 102.653 111.161 102.705Z" fill="#F9C067"/>
<path d="M195.977 243.803C199.559 243.803 202.462 246.707 202.462 250.288C202.462 253.869 199.559 256.772 195.977 256.772C192.396 256.772 189.493 253.869 189.493 250.288C189.493 246.707 192.396 243.803 195.977 243.803Z" fill="#4786D1"/>
<path d="M76.5855 162.742C77.2107 165.612 75.391 168.445 72.5211 169.07C69.6512 169.695 66.8178 167.876 66.1926 165.006C65.5674 162.136 67.3871 159.303 70.257 158.677C73.1269 158.052 75.9603 159.872 76.5855 162.742Z" fill="#4786D1"/>
<path d="M264.162 69.9842C267.743 69.9842 270.646 72.8873 270.646 76.4686C270.646 80.0498 267.743 82.953 264.162 82.953C260.581 82.953 257.678 80.0498 257.678 76.4686C257.678 72.8873 260.581 69.9842 264.162 69.9842Z" fill="#4786D1"/>
</svg>
