<svg width="30" height="30" viewBox="0 0 30 30" fill="none" xmlns="http://www.w3.org/2000/svg">
<path d="M14.815 29.63C22.9971 29.63 29.63 22.9971 29.63 14.815C29.63 6.63289 22.9971 0 14.815 0C6.63289 0 0 6.63289 0 14.815C0 22.9971 6.63289 29.63 14.815 29.63ZM13.7568 9.52393C13.7568 9.24327 13.8683 8.97411 14.0667 8.77566C14.2652 8.5772 14.5343 8.46571 14.815 8.46571C15.0957 8.46571 15.3648 8.5772 15.5633 8.77566C15.7617 8.97411 15.8732 9.24327 15.8732 9.52393V13.7568H20.1061C20.3867 13.7568 20.6559 13.8683 20.8543 14.0667C21.0528 14.2652 21.1643 14.5343 21.1643 14.815C21.1643 15.0957 21.0528 15.3648 20.8543 15.5633C20.6559 15.7617 20.3867 15.8732 20.1061 15.8732H15.8732V20.1061C15.8732 20.3867 15.7617 20.6559 15.5633 20.8543C15.3648 21.0528 15.0957 21.1643 14.815 21.1643C14.5343 21.1643 14.2652 21.0528 14.0667 20.8543C13.8683 20.6559 13.7568 20.3867 13.7568 20.1061V15.8732H9.52393C9.24327 15.8732 8.97411 15.7617 8.77566 15.5633C8.5772 15.3648 8.46571 15.0957 8.46571 14.815C8.46571 14.5343 8.5772 14.2652 8.77566 14.0667C8.97411 13.8683 9.24327 13.7568 9.52393 13.7568H13.7568V9.52393Z" fill="#222F7E"/>
</svg>
