<svg width="37" height="37" viewBox="0 0 37 37" fill="none" xmlns="http://www.w3.org/2000/svg">
<path fill-rule="evenodd" clip-rule="evenodd" d="M18.5 33.1459H23.0904C23.1543 31.0361 23.4634 29.876 24.0184 29.6656C29.8074 27.4687 33.9167 21.918 33.9167 15.4167H3.08337C3.08337 21.7769 7.01694 27.2282 12.6086 29.5184C13.1929 29.7573 13.6299 30.9675 13.9182 33.1459H18.5Z" fill="#2F88FF" stroke="black" stroke-width="2" stroke-linejoin="round"/>
<path d="M11.1332 20.8295C11.4107 21.7452 11.7776 22.5014 12.2332 23.098C12.7081 23.7099 13.2629 24.2553 13.8827 24.7199" stroke="white" stroke-width="2" stroke-linecap="round"/>
<path d="M19.4358 15.4367C21.1454 11.9185 22.8469 8.39627 24.5402 4.87016C25.3496 3.16662 26.9915 2.75654 28.5062 3.40404C30.0209 4.05154 30.6337 5.90308 29.9977 7.19423C29.6046 7.99127 28.2711 10.7331 25.9971 15.419" stroke="black" stroke-width="2" stroke-linecap="round"/>
</svg>
