<svg width="20" height="23" viewBox="0 0 20 23" fill="none" xmlns="http://www.w3.org/2000/svg">
<path d="M17.6 9.85401H16.54V6.68601C16.54 4.91264 15.8355 3.2119 14.5816 1.95794C13.3276 0.70398 11.6269 -0.000488281 9.8535 -0.000488281C8.08013 -0.000488281 6.37939 0.70398 5.12543 1.95794C3.87147 3.2119 3.167 4.91264 3.167 6.68601V9.85401H2.111C1.55121 9.85428 1.01442 10.0768 0.61859 10.4726C0.222758 10.8684 0.00026499 11.4052 0 11.965L0 20.411C0.00026499 20.9708 0.222758 21.5076 0.61859 21.9034C1.01442 22.2993 1.55121 22.5217 2.111 22.522H17.6C18.1598 22.5217 18.6966 22.2993 19.0924 21.9034C19.4882 21.5076 19.7107 20.9708 19.711 20.411V11.965C19.7107 11.4052 19.4882 10.8684 19.0924 10.4726C18.6966 10.0768 18.1598 9.85428 17.6 9.85401ZM13.025 9.85401H6.686V6.68601C6.686 5.84607 7.01966 5.04053 7.61359 4.4466C8.20752 3.85268 9.01306 3.51901 9.853 3.51901C10.6929 3.51901 11.4985 3.85268 12.0924 4.4466C12.6863 5.04053 13.02 5.84607 13.02 6.68601L13.025 9.85401Z" fill="#1CB6EA"/>
</svg>
