<svg width="16" height="16" viewBox="0 0 16 16" fill="none" xmlns="http://www.w3.org/2000/svg">
<path fill-rule="evenodd" clip-rule="evenodd" d="M11.3333 5.33333C11.3333 7.17433 9.84096 8.66667 7.99996 8.66667C6.15896 8.66667 4.66663 7.17433 4.66663 5.33333C4.66663 3.49233 6.15896 2 7.99996 2C9.84096 2 11.3333 3.49233 11.3333 5.33333ZM10.6666 5.33333C10.6666 6.04058 10.3857 6.71885 9.88558 7.21895C9.38548 7.71905 8.7072 8 7.99996 8C7.29272 8 6.61444 7.71905 6.11434 7.21895C5.61424 6.71885 5.33329 6.04058 5.33329 5.33333C5.33329 4.62609 5.61424 3.94781 6.11434 3.44772C6.61444 2.94762 7.29272 2.66667 7.99996 2.66667C8.7072 2.66667 9.38548 2.94762 9.88558 3.44772C10.3857 3.94781 10.6666 4.62609 10.6666 5.33333Z" fill="#1CB6EA"/>
<path fill-rule="evenodd" clip-rule="evenodd" d="M5.97133 9.61828L5.975 9.62561L6 9.67461H9.91633C9.99267 9.52994 10.1657 9.29928 10.3333 9.33761C10.71 9.42328 11.0893 9.54261 11.4537 9.68961L11.4647 9.68428L11.4683 9.69161L11.471 9.69661C12.8427 10.2539 14 11.1986 14 12.1899V13.9999H2V12.1899C2 10.9316 3.86533 9.74761 5.66667 9.33761C5.81367 9.30428 5.901 9.47761 5.97133 9.61828ZM10.9013 10.1943C10.7583 10.1442 10.6137 10.099 10.4677 10.0586L10.319 10.3413H5.59767L5.45967 10.0789L5.33967 10.1149C5.33733 10.1369 5.33533 10.1616 5.33433 10.1896C5.33 10.3046 5.33867 10.4409 5.35767 10.5796C5.37717 10.7242 5.40838 10.867 5.451 11.0066C5.68516 11.0344 5.90198 11.1439 6.06317 11.316C6.22437 11.4881 6.31957 11.7116 6.33196 11.9471C6.34436 12.1826 6.27315 12.4148 6.13091 12.6029C5.98867 12.791 5.78455 12.9227 5.5546 12.9749C5.32465 13.027 5.08366 12.9963 4.87419 12.888C4.66473 12.7798 4.50025 12.601 4.40982 12.3832C4.31938 12.1654 4.30881 11.9227 4.37996 11.6979C4.45111 11.4731 4.59941 11.2807 4.79867 11.1546L4.796 11.1453C4.75158 10.9894 4.7185 10.8306 4.697 10.6699C4.68286 10.5673 4.67352 10.4641 4.669 10.3606C4.257 10.5366 3.87267 10.7493 3.55067 10.9839C2.91 11.4519 2.66667 11.8893 2.66667 12.1899V13.3333H13.3333V12.1899C13.3333 11.8889 13.09 11.4516 12.4493 10.9843C12.17 10.7834 11.8725 10.6091 11.5607 10.4636C11.5471 10.6443 11.5195 10.8236 11.478 10.9999H11.6667C11.7286 11 11.7892 11.0172 11.8418 11.0498C11.8945 11.0823 11.937 11.1289 11.9647 11.1843L12.298 11.8509C12.3213 11.8973 12.3333 11.9483 12.3333 11.9999V12.6666C12.3333 12.755 12.2982 12.8398 12.2357 12.9023C12.1732 12.9648 12.0884 12.9999 12 12.9999H11.3333V12.3333H11.6667V12.0786L11.4607 11.6666H10.5393L10.3333 12.0786V12.3333H10.6667V12.9999H10C9.91159 12.9999 9.82681 12.9648 9.7643 12.9023C9.70179 12.8398 9.66667 12.755 9.66667 12.6666V11.9999C9.66667 11.9483 9.67867 11.8973 9.702 11.8509L10.0353 11.1843C10.063 11.1289 10.1055 11.0823 10.1582 11.0498C10.2108 11.0172 10.2714 11 10.3333 10.9999H10.7873C10.7913 10.9866 10.7957 10.9733 10.7997 10.9586C10.831 10.8516 10.859 10.7186 10.878 10.5799C10.8967 10.4426 10.9053 10.3083 10.9013 10.1943ZM5.66667 11.9999C5.66667 12.1913 5.51267 12.3383 5.33333 12.3383C5.154 12.3383 5 12.1916 5 11.9999C5 11.8086 5.154 11.6616 5.33333 11.6616C5.51267 11.6616 5.66667 11.8083 5.66667 11.9999Z" fill="#1CB6EA"/>
</svg>
