<svg width="24" height="24" viewBox="0 0 24 24" fill="none" xmlns="http://www.w3.org/2000/svg">
<path d="M17.4545 14.1817C16.5866 14.1817 15.7541 14.5265 15.1404 15.1403C14.5266 15.754 14.1818 16.5865 14.1818 17.4545V19.0908C14.1818 19.8141 13.8945 20.5078 13.383 21.0193C12.8716 21.5308 12.1779 21.8181 11.4545 21.8181C10.7312 21.8181 10.0375 21.5308 9.52607 21.0193C9.01461 20.5078 8.72727 19.8141 8.72727 19.0908V14.0945C10.5432 13.8324 12.2041 12.9252 13.406 11.539C14.6079 10.1527 15.2706 8.38011 15.2727 6.54537V3.27264C15.2727 2.69398 15.0429 2.13903 14.6337 1.72986C14.2245 1.32069 13.6696 1.09082 13.0909 1.09082H10.9091V3.27264H13.0909V6.54537C13.0909 7.992 12.5162 9.37938 11.4933 10.4023C10.4704 11.4252 9.083 11.9999 7.63636 11.9999C6.18973 11.9999 4.80234 11.4252 3.77942 10.4023C2.75649 9.37938 2.18182 7.992 2.18182 6.54537V3.27264H4.36364V1.09082H2.18182C1.60316 1.09082 1.04821 1.32069 0.63904 1.72986C0.22987 2.13903 0 2.69398 0 3.27264V6.54537C0.0021503 8.38011 0.664808 10.1527 1.86674 11.539C3.06868 12.9252 4.72953 13.8324 6.54545 14.0945V19.0908C6.54545 20.3928 7.06266 21.6414 7.98329 22.5621C8.90393 23.4827 10.1526 23.9999 11.4545 23.9999C12.7565 23.9999 14.0052 23.4827 14.9258 22.5621C15.8464 21.6414 16.3636 20.3928 16.3636 19.0908V17.4545C16.3636 17.1651 16.4786 16.8877 16.6832 16.6831C16.8877 16.4785 17.1652 16.3635 17.4545 16.3635H19.6364V14.1817H17.4545Z" fill="#292932"/>
<path d="M4.36361 4.36364H3.27271V0H4.36361C4.65294 0 4.93042 0.114935 5.135 0.31952C5.33959 0.524105 5.45452 0.801582 5.45452 1.09091V3.27273C5.45452 3.56205 5.33959 3.83953 5.135 4.04412C4.93042 4.2487 4.65294 4.36364 4.36361 4.36364Z" fill="#B9D9F4"/>
<path d="M10.9091 4.36364H12V0H10.9091C10.6198 0 10.3423 0.114935 10.1377 0.31952C9.93311 0.524105 9.81818 0.801582 9.81818 1.09091V3.27273C9.81818 3.56205 9.93311 3.83953 10.1377 4.04412C10.3423 4.2487 10.6198 4.36364 10.9091 4.36364Z" fill="#B9D9F4"/>
<path d="M20.7273 18.5455C22.5347 18.5455 24 17.0802 24 15.2727C24 13.4652 22.5347 12 20.7273 12C18.9198 12 17.4545 13.4652 17.4545 15.2727C17.4545 17.0802 18.9198 18.5455 20.7273 18.5455Z" fill="#0084F0"/>
<path d="M20.7273 16.3637C21.3298 16.3637 21.8182 15.8753 21.8182 15.2728C21.8182 14.6703 21.3298 14.1819 20.7273 14.1819C20.1248 14.1819 19.6364 14.6703 19.6364 15.2728C19.6364 15.8753 20.1248 16.3637 20.7273 16.3637Z" fill="white"/>
</svg>
