<svg width="21" height="29" viewBox="0 0 21 29" fill="none" xmlns="http://www.w3.org/2000/svg">
<g clip-path="url(#clip0_2_14608)">
<path d="M19.2891 0C19.763 0.146877 20.1795 0.383355 20.5002 0.800168C21.1848 1.69164 21.168 3.01183 20.4297 3.85623C19.9436 4.41142 19.4376 4.94789 18.9273 5.47812C18.7651 5.64825 18.7382 5.74862 18.9183 5.92329C19.2106 6.20683 19.4823 6.51533 19.7567 6.82043C20.0774 7.1777 20.0769 7.50774 19.7567 7.85707C19.4 8.24685 19.0408 8.63361 18.6792 9.01735C18.3633 9.35193 18.06 9.34853 17.7403 9.01338C17.5333 8.79618 17.319 8.58579 17.1305 8.35044C16.9694 8.14856 16.8672 8.13892 16.6824 8.3408C14.7281 10.4634 12.7597 12.5713 10.8012 14.6922C8.89997 16.7611 6.67075 18.4475 4.21864 19.6719C3.79736 19.8823 3.36817 20.0689 2.9411 20.2651C2.68832 20.3785 2.44135 20.3842 2.23702 20.1556C2.04429 19.9396 2.04534 19.69 2.14381 19.4184C3.1649 16.6243 4.582 14.0877 6.48463 11.8931C8.64371 9.40467 10.9381 7.06144 13.1599 4.63995C13.4184 4.35641 13.42 4.35641 13.1599 4.07797C12.9556 3.85793 12.7476 3.64187 12.5485 3.41617C12.2815 3.11334 12.2741 2.79237 12.5443 2.48897C12.9203 2.06743 13.3049 1.65497 13.6981 1.25157C13.9935 0.948179 14.2847 0.948747 14.5812 1.25157C14.8873 1.56196 15.1847 1.88161 15.4733 2.21053C15.6065 2.36138 15.6987 2.36648 15.8356 2.21053C16.1926 1.80903 16.5728 1.43078 16.9256 1.02474C17.3269 0.561989 17.7682 0.174098 18.3448 0.00396966L19.2891 0Z" fill="black"/>
<path d="M3.7384 18.5434C3.87216 18.4867 3.93851 18.4663 4.00171 18.4339C5.81167 17.499 7.49002 16.2935 8.98709 14.8533C10.2188 13.6624 11.3436 12.353 12.5232 11.1043C12.5575 11.0685 12.6143 11.0379 12.588 10.9602C12.5656 10.9502 12.542 10.9433 12.518 10.9398C11.3716 10.9398 10.2251 10.9398 9.07872 10.9364C9.02233 10.9377 8.9668 10.9515 8.91561 10.977C8.86441 11.0024 8.81865 11.039 8.78118 11.0844C7.12185 12.7965 5.66367 14.6792 4.53779 16.8461C4.25974 17.378 3.97906 17.9083 3.7384 18.5434Z" fill="#2F88FF"/>
<path d="M10.0803 9.62182L10.133 9.69781C10.1567 9.70644 10.1813 9.71215 10.2062 9.71482C11.3516 9.71482 12.4964 9.71482 13.6418 9.71823C13.7025 9.71793 13.7624 9.70359 13.8176 9.6762C13.8727 9.64881 13.9218 9.60899 13.9614 9.55944C14.6155 8.85171 15.2679 8.14171 15.9293 7.44362C16.0689 7.29618 16.0684 7.20147 15.9293 7.05459C15.4161 6.51586 14.9095 5.96956 14.4096 5.4157C14.2647 5.25408 14.1826 5.25918 14.0372 5.4157C12.8376 6.72077 11.6329 8.02016 10.4231 9.31389C10.3168 9.42731 10.1946 9.52031 10.0803 9.62182Z" fill="#2F88FF"/>
<path d="M18.7798 1.19662C18.527 1.18244 18.2843 1.29586 18.0831 1.51136C17.5934 2.03535 17.1084 2.56502 16.6155 3.08561C16.4986 3.20923 16.4775 3.29486 16.6065 3.4287C16.9962 3.83417 17.3775 4.24871 17.7566 4.66609C17.872 4.79312 17.9609 4.80673 18.0826 4.6729C18.5787 4.12906 19.0884 3.59996 19.5782 3.04931C19.8852 2.70395 19.9468 2.28147 19.7693 1.84481C19.5918 1.40815 19.268 1.18244 18.7798 1.19662Z" fill="#2F88FF"/>
<path d="M14.1341 2.53552C13.999 2.62681 13.8813 2.74521 13.7876 2.88428C13.706 2.9926 13.8155 3.05441 13.8719 3.11509C15.2674 4.62205 16.6631 6.129 18.0589 7.63596C18.2074 7.79758 18.2885 7.7335 18.3912 7.60363C18.4939 7.47377 18.673 7.39041 18.4723 7.17548C17.0705 5.67571 15.6731 4.17159 14.28 2.66312C14.2358 2.61775 14.1857 2.58089 14.1341 2.53552Z" fill="white"/>
<path d="M2.63409 29.0005C0.820461 28.9971 -0.432336 27.1421 0.140085 25.2849C0.554524 23.9392 1.28387 22.7699 1.95214 21.5642C2.37342 20.802 2.89634 20.7969 3.32553 21.5705C3.94587 22.6865 4.59517 23.7821 5.04542 24.9968C5.45038 26.0885 5.35822 27.1047 4.64204 28.0132C4.1207 28.6744 3.4419 28.9988 2.63409 29.0005Z" fill="black"/>
<path d="M2.63726 27.7756C3.67204 27.7756 4.39454 26.7248 4.06541 25.6774C3.75577 24.6884 3.25128 23.8026 2.7589 22.9111C2.67412 22.7574 2.59776 22.7608 2.51456 22.9111C2.02797 23.7946 1.52664 24.6691 1.21595 25.6496C0.877339 26.718 1.59142 27.7756 2.63726 27.7756Z" fill="white"/>
</g>
<defs>
<clipPath id="clip0_2_14608">
<rect width="21" height="29" fill="white"/>
</clipPath>
</defs>
</svg>
