<svg width="30" height="24" viewBox="0 0 30 24" fill="none" xmlns="http://www.w3.org/2000/svg">
<path d="M10.29 11.76C11.4529 11.76 12.5897 11.4152 13.5566 10.7691C14.5236 10.1231 15.2772 9.20478 15.7223 8.13041C16.1674 7.05604 16.2839 5.87382 16.0571 4.73324C15.8303 3.59266 15.2704 2.54494 14.4481 1.72257C13.6259 0.900196 12.5783 0.340101 11.4377 0.113107C10.2972 -0.113887 9.11496 0.00241408 8.04051 0.447304C6.96607 0.892194 6.04767 1.64569 5.40144 2.61252C4.75522 3.57935 4.4102 4.71609 4.41 5.879C4.40987 6.65126 4.56186 7.41598 4.8573 8.12949C5.15274 8.843 5.58584 9.49132 6.13186 10.0374C6.67788 10.5836 7.32613 11.0168 8.03959 11.3123C8.75305 11.6079 9.51774 11.76 10.29 11.76ZM14.406 13.23H13.639C12.5886 13.7144 11.4457 13.9652 10.289 13.9652C9.13231 13.9652 7.98939 13.7144 6.939 13.23H6.174C4.53758 13.2305 2.96827 13.8805 1.81067 15.0371C0.653083 16.1938 0.00185466 17.7626 0 19.399L0 21.31C0.000264999 21.8947 0.232662 22.4554 0.646122 22.8689C1.05958 23.2823 1.62028 23.5147 2.205 23.515H14.834C14.721 23.2018 14.6803 22.8671 14.715 22.536L15.027 19.736L15.082 19.226L15.445 18.863L19 15.32C18.4278 14.6652 17.7224 14.1401 16.9311 13.7797C16.1397 13.4193 15.2806 13.2319 14.411 13.23H14.406ZM16.487 19.905L16.175 22.705C16.1626 22.8143 16.1749 22.9249 16.2112 23.0287C16.2474 23.1325 16.3067 23.2268 16.3844 23.3046C16.4622 23.3823 16.5565 23.4416 16.6603 23.4778C16.7641 23.5141 16.8747 23.5264 16.984 23.514L19.784 23.202L26.119 16.867L22.825 13.573L16.49 19.903L16.487 19.905ZM29.08 12.352L27.339 10.611C27.1328 10.4055 26.8536 10.2901 26.5625 10.2901C26.2714 10.2901 25.9922 10.4055 25.786 10.611L24.049 12.348L23.861 12.536L27.161 15.83L29.081 13.91C29.2862 13.7029 29.4014 13.4231 29.4014 13.1315C29.4014 12.8399 29.2862 12.5601 29.081 12.353L29.08 12.352Z" fill="#1CB6EA"/>
</svg>
