<svg width="21" height="22" viewBox="0 0 21 22" fill="none" xmlns="http://www.w3.org/2000/svg">
<g clip-path="url(#clip0_2_17238)">
<path d="M6.43158 0C6.62805 0.76222 6.83326 1.52215 7.01458 2.28723C7.06646 2.50345 7.16149 2.56769 7.38361 2.56597C8.69243 2.55564 10.0018 2.56597 11.3107 2.55679C11.496 2.55679 11.5981 2.61414 11.6797 2.77874C12.0248 3.48074 12.3939 4.17128 12.7332 4.87557C12.8334 5.08376 12.9582 5.15259 13.1838 5.14111C13.5336 5.12333 13.8834 5.14112 14.2332 5.13481C14.3859 5.13481 14.4355 5.19215 14.4349 5.33726C14.4314 6.50343 14.4314 7.66961 14.4349 8.83578C14.4349 8.98777 14.3737 9.03537 14.2274 9.03193C13.9295 9.02562 13.6304 9.04226 13.3331 9.0262C13.1378 9.01588 13.0561 9.08355 13.0416 9.2711C13.0002 9.75516 12.9512 10.2386 12.904 10.7221C12.8818 10.9515 12.8626 11.1775 12.834 11.4046C12.8037 11.6432 12.8154 11.6616 13.0637 11.6616C14.5906 11.6616 16.1186 11.6862 17.6449 11.6553C19.1828 11.6249 20.7248 12.73 20.9522 14.4575C21.0501 15.2031 20.9738 15.9584 20.9778 16.7092C20.9778 16.8314 20.8951 16.8434 20.8029 16.8434C20.4905 16.8434 20.1774 16.8486 19.8649 16.8434C19.725 16.8434 19.6684 16.8881 19.6719 17.0298C19.6789 17.3297 19.6778 17.6303 19.6719 17.9308C19.6719 18.0639 19.7302 18.1029 19.855 18.1029C20.1675 18.0983 20.4806 18.1029 20.793 18.1029C20.8974 18.1029 20.9726 18.1184 20.9819 18.2497C21.0571 19.2952 20.8298 20.245 20.0608 21.0135C19.4195 21.6536 18.6435 21.9971 17.7207 21.9971C12.8045 21.9971 7.8879 21.9985 2.97093 22.0011C2.75523 22.0011 2.66195 21.9478 2.64271 21.7247C2.57392 20.935 2.48822 20.1458 2.40951 19.3572C2.3139 18.4116 2.2181 17.4661 2.1221 16.5205C2.02804 15.5895 1.93456 14.6583 1.84167 13.7268C1.74606 12.7813 1.6489 11.8357 1.55018 10.8902C1.49887 10.3786 1.44699 9.86642 1.40152 9.35426C1.37353 9.04283 1.36828 9.03193 1.0558 9.03193C0.764303 9.03193 0.472807 9.02792 0.18131 9.03193C0.0518855 9.03193 0 8.98318 0 8.85471C0.00233197 7.67363 0.00233197 6.49311 0 5.31317C0 5.16291 0.0763727 5.13537 0.204631 5.13652C0.582994 5.13996 0.96252 5.13022 1.33913 5.14054C1.40666 5.14903 1.47511 5.1347 1.53326 5.09989C1.59142 5.06509 1.63582 5.01188 1.6592 4.94898C2.01715 4.22978 2.39086 3.51516 2.74415 2.79595C2.83393 2.613 2.94586 2.5545 3.147 2.55679C3.91771 2.56769 4.68843 2.55679 5.45915 2.56367C5.63405 2.56367 5.70109 2.52869 5.64337 2.34229C5.56343 2.08236 5.49707 1.81858 5.44457 1.55197C5.40785 1.36385 5.32389 1.2956 5.12334 1.29904C4.3742 1.31051 3.62505 1.29904 2.87591 1.30765C2.67594 1.30765 2.60656 1.25029 2.61647 1.05071C2.63338 0.701426 2.62988 0.351 2.63513 0.000574089L6.43158 0Z" fill="#292932"/>
<path d="M7.22212 9.03087H2.99017C2.72724 9.03087 2.72899 9.03718 2.75697 9.27921C2.81177 9.769 2.859 10.2599 2.90797 10.7503C3.01466 11.824 3.11843 12.8976 3.22686 13.9707C3.3353 15.0437 3.4519 16.1312 3.56092 17.2111C3.66994 18.2911 3.77371 19.3584 3.87632 20.4321C3.89381 20.6127 3.96377 20.6844 4.16432 20.6827C5.28425 20.6724 6.40359 20.6775 7.52352 20.6775C7.78529 20.6775 8.04822 20.6775 8.30882 20.6775C8.39627 20.6775 8.48838 20.6775 8.40035 20.5525C7.93395 19.8757 7.81736 19.1187 7.85408 18.3209C7.86225 18.1488 7.91238 18.0915 8.08378 18.1001C8.38111 18.1093 8.6796 18.1001 8.97751 18.1041C9.11918 18.1075 9.17223 18.0559 9.16932 17.9166C9.16232 17.6229 9.16057 17.3298 9.16932 17.0368C9.17398 16.8819 9.10752 16.8389 8.96119 16.8423C8.66969 16.8498 8.37819 16.836 8.0867 16.8475C7.90247 16.855 7.85 16.7838 7.8535 16.6106C7.86166 16.0314 7.8535 15.4515 7.857 14.8723C7.857 14.0213 8.20024 13.2052 8.81137 12.603C9.4225 12.0009 10.2516 11.6619 11.1165 11.6605C11.4558 11.6605 11.4517 11.6542 11.482 11.3129C11.5415 10.6442 11.607 9.97509 11.6785 9.30559C11.7077 9.03259 11.7129 9.02686 11.4319 9.02686L7.22212 9.03087Z" fill="#B9D9F4"/>
<path d="M14.3929 15.526H19.0825C19.6492 15.526 19.6492 15.526 19.637 14.9691C19.6102 13.8083 18.8015 12.9915 17.6233 12.9847C15.4855 12.9709 13.3476 12.9743 11.2104 12.9847C10.4216 12.9881 9.8112 13.3288 9.42468 14.017C9.20547 14.4064 9.20022 14.8366 9.19148 15.2679C9.18623 15.4801 9.26085 15.5306 9.46607 15.53C11.1084 15.5225 12.7518 15.526 14.3929 15.526Z" fill="#0084F0"/>
<path d="M7.21222 7.7123C9.0813 7.7123 10.9504 7.70886 12.82 7.71746C13.0462 7.71746 13.1115 7.65093 13.097 7.43701C13.0824 7.22308 13.0929 6.99367 13.0929 6.77172C13.0929 6.45513 13.0929 6.45456 12.7746 6.45456H1.66853C1.61781 6.45456 1.56651 6.45857 1.51579 6.45456C1.38112 6.44366 1.33739 6.5079 1.34089 6.6335C1.34614 6.89847 1.34089 7.16287 1.34089 7.42784C1.34089 7.7146 1.34089 7.7146 1.62598 7.7146L7.21222 7.7123Z" fill="#0084F0"/>
<path d="M14.4291 19.4198H9.61241C9.318 19.4198 9.30517 19.4398 9.46141 19.6968C9.85668 20.3483 10.4525 20.6718 11.2145 20.6718C13.3521 20.6794 15.4898 20.6794 17.6274 20.6718C18.4074 20.6718 19.0108 20.334 19.4026 19.6584C19.5297 19.4393 19.5145 19.4175 19.2534 19.4175L14.4291 19.4198Z" fill="#0084F0"/>
<path d="M14.4163 18.1018C15.6452 18.1018 16.8747 18.1018 18.1037 18.1018C18.2698 18.1018 18.341 18.0605 18.3328 17.8844C18.3206 17.5976 18.3246 17.3109 18.3328 17.0241C18.3363 16.8836 18.2798 16.8354 18.1398 16.8377C17.7836 16.8435 17.4268 16.8377 17.0706 16.8377C14.9691 16.8377 12.8673 16.8377 10.765 16.8377C10.5936 16.8377 10.4892 16.8567 10.5026 17.0671C10.5195 17.3244 10.5195 17.5824 10.5026 17.8397C10.4886 18.0496 10.5656 18.1052 10.7737 18.1035C11.9869 18.0972 13.2019 18.1018 14.4163 18.1018Z" fill="#0084F0"/>
<path d="M7.21456 5.13647C8.52338 5.13647 9.8322 5.13647 11.141 5.13647C11.299 5.13647 11.3608 5.11354 11.2704 4.94779C11.106 4.64554 10.9521 4.33698 10.8041 4.03014C10.7844 3.98072 10.7487 3.93905 10.7026 3.91158C10.6564 3.8841 10.6023 3.87236 10.5487 3.87815C8.33061 3.88121 6.11271 3.88121 3.895 3.87815C3.83773 3.87272 3.78025 3.88616 3.7316 3.91637C3.68295 3.94658 3.64589 3.99185 3.62624 4.04505C3.48632 4.33583 3.33475 4.61858 3.18958 4.90936C3.07298 5.13877 3.07298 5.13877 3.33299 5.13877L7.21456 5.13647Z" fill="#0084F0"/>
</g>
<defs>
<clipPath id="clip0_2_17238">
<rect width="21" height="22" fill="white"/>
</clipPath>
</defs>
</svg>
