<svg width="34" height="34" viewBox="0 0 34 34" fill="none" xmlns="http://www.w3.org/2000/svg">
<path d="M1.16669 7.49996C1.16669 5.82026 1.83395 4.20935 3.02168 3.02162C4.20941 1.83389 5.82032 1.16663 7.50002 1.16663H26.5C28.1797 1.16663 29.7906 1.83389 30.9784 3.02162C32.1661 4.20935 32.8334 5.82026 32.8334 7.49996V26.5C32.8334 28.1797 32.1661 29.7906 30.9784 30.9783C29.7906 32.166 28.1797 32.8333 26.5 32.8333H7.50002C5.82032 32.8333 4.20941 32.166 3.02168 30.9783C1.83395 29.7906 1.16669 28.1797 1.16669 26.5V7.49996Z" stroke="#BEBEBE" stroke-width="2" stroke-linecap="round" stroke-linejoin="round"/>
<path d="M11.4583 15.4167C13.6445 15.4167 15.4167 13.6445 15.4167 11.4583C15.4167 9.27221 13.6445 7.5 11.4583 7.5C9.27221 7.5 7.5 9.27221 7.5 11.4583C7.5 13.6445 9.27221 15.4167 11.4583 15.4167Z" stroke="#BEBEBE" stroke-width="2" stroke-linecap="round" stroke-linejoin="round"/>
<path d="M20.9995 17.9832L7.5 32.8333H26.7106C28.3344 32.8333 29.8918 32.1882 31.04 31.04C32.1883 29.8917 32.8333 28.3344 32.8333 26.7105V26.4999C32.8333 25.7621 32.5563 25.4787 32.0575 24.9324L25.6767 17.9737C25.3793 17.6493 25.0175 17.3904 24.6145 17.2136C24.2115 17.0369 23.7761 16.946 23.336 16.9469C22.8959 16.9478 22.4608 17.0404 22.0585 17.2188C21.6563 17.3973 21.2956 17.6576 20.9995 17.9832V17.9832Z" stroke="#BEBEBE" stroke-width="2" stroke-linecap="round" stroke-linejoin="round"/>
</svg>
