<svg width="22" height="27" viewBox="0 0 22 27" fill="none" xmlns="http://www.w3.org/2000/svg">
<path d="M20.999 27.001H0.999023C0.733807 27.001 0.479529 26.8956 0.291992 26.7081C0.104456 26.5205 -0.000976562 26.2662 -0.000976562 26.001V1.00098C-0.000976562 0.73576 0.104456 0.481406 0.291992 0.29387C0.479529 0.106334 0.733807 0.000976562 0.999023 0.000976562H13.999C16.1199 0.00362275 18.1531 0.847327 19.6528 2.34704C21.1525 3.84676 21.9964 5.88006 21.999 8.00098V26.001C21.999 26.2662 21.8936 26.5205 21.7061 26.7081C21.5185 26.8956 21.2642 27.001 20.999 27.001ZM2.99902 20.001V23.001H18.999V20.001H2.99902ZM2.99902 16.001V19.001H18.999V16.001H2.99902ZM2.99902 9.00098V12.001H13.999V9.00098H2.99902ZM2.99902 4.00098V7.00098H9.99902V4.00098H2.99902Z" fill="#1CB6EA"/>
</svg>
