<svg width="27" height="27" viewBox="0 0 27 27" fill="none" xmlns="http://www.w3.org/2000/svg">
<path d="M9.574 27.385H8.665C6.383 26.626 4.106 25.853 1.817 25.115C1.37482 25.0011 0.972029 24.7689 0.651899 24.4433C0.331768 24.1177 0.106398 23.711 0 23.267L0 1.819C0.102508 1.37592 0.327349 0.970513 0.648931 0.648931C0.970513 0.327349 1.37592 0.102508 1.819 0L15.4 0C15.4244 0.0108133 15.4495 0.0201632 15.475 0.028C16.2947 0.185584 17.0306 0.63206 17.5491 1.28627C18.0675 1.94047 18.3339 2.75898 18.3 3.593C18.3 4.59967 18.3 5.60667 18.3 6.614C18.301 6.78191 18.2846 6.94948 18.251 7.114C18.1841 7.40341 18.0082 7.65592 17.76 7.81906C17.5118 7.98219 17.2102 8.04341 16.918 7.99C16.6242 7.93878 16.3604 7.77912 16.1787 7.54263C15.997 7.30614 15.9108 7.01006 15.937 6.713C15.93 5.644 15.937 4.574 15.937 3.505C15.9511 3.34428 15.9296 3.18243 15.8742 3.03092C15.8187 2.87942 15.7306 2.74197 15.6161 2.62831C15.5016 2.51466 15.3635 2.42759 15.2115 2.37327C15.0596 2.31895 14.8976 2.29872 14.737 2.314C13.537 2.314 12.334 2.314 11.128 2.314H9.833C9.86081 2.33972 9.89094 2.36282 9.923 2.383C10.3999 2.56112 10.8065 2.88856 11.0822 3.31654C11.3579 3.74451 11.488 4.25011 11.453 4.758C11.453 10.194 11.453 15.63 11.453 21.066C11.453 21.166 11.459 21.266 11.453 21.36C11.44 21.56 11.529 21.646 11.737 21.645C12.78 21.639 13.822 21.645 14.865 21.639C15.1446 21.6354 15.4119 21.5232 15.6102 21.3262C15.8086 21.1291 15.9226 20.8626 15.928 20.583C15.928 20.458 15.928 20.334 15.928 20.209C15.928 18.8637 15.928 17.518 15.928 16.172C15.9073 15.8488 15.9973 15.5283 16.183 15.263C16.3269 15.0739 16.5252 14.9333 16.7513 14.86C16.9774 14.7867 17.2205 14.7843 17.448 14.853C17.6981 14.9285 17.9163 15.0845 18.0686 15.2968C18.2209 15.5092 18.2987 15.7659 18.29 16.027C18.306 16.677 18.303 17.327 18.29 17.979C18.276 18.958 18.341 19.939 18.252 20.918C18.1625 21.7454 17.7755 22.512 17.1629 23.0753C16.5503 23.6386 15.7539 23.9601 14.922 23.98C13.87 23.986 12.822 23.987 11.767 23.98C11.52 23.98 11.436 24.065 11.442 24.307C11.4757 24.7339 11.4546 25.1634 11.379 25.585C11.2839 26.0285 11.0619 26.4348 10.74 26.7544C10.4181 27.074 10.0102 27.2931 9.566 27.385" fill="#1CB6EA"/>
<path d="M27.385 11.714C27.3113 11.9246 27.1922 12.1165 27.036 12.276C25.5413 13.7686 24.048 15.2623 22.556 16.757C22.4135 16.9125 22.2321 17.0272 22.0304 17.0893C21.8288 17.1513 21.6143 17.1585 21.409 17.11C21.1541 17.053 20.9266 16.9099 20.7649 16.7048C20.6031 16.4997 20.517 16.2451 20.521 15.984C20.516 14.968 20.521 13.952 20.521 12.936C20.521 12.596 20.513 12.588 20.176 12.587H16.059C15.8483 12.5994 15.6381 12.5549 15.4506 12.4581C15.263 12.3613 15.105 12.2159 14.993 12.037C14.8809 11.8621 14.8178 11.6603 14.8103 11.4527C14.8028 11.2452 14.8512 11.0394 14.9505 10.8569C15.0497 10.6744 15.1961 10.5219 15.3743 10.4153C15.5526 10.3087 15.7563 10.252 15.964 10.251C17.354 10.251 18.7443 10.251 20.135 10.251C20.52 10.251 20.521 10.251 20.521 9.86397C20.521 8.87497 20.521 7.88597 20.521 6.89597C20.5051 6.66236 20.5628 6.42964 20.6861 6.23053C20.8093 6.03143 20.9918 5.87595 21.208 5.78597C21.4223 5.67846 21.6659 5.64392 21.9016 5.6876C22.1374 5.73129 22.3524 5.85081 22.514 6.02797C24.04 7.53997 25.5597 9.05763 27.073 10.581C27.2043 10.7271 27.3111 10.8936 27.389 11.074L27.385 11.714Z" fill="#1CB6EA"/>
</svg>
