<svg width="34" height="32" viewBox="0 0 34 32" fill="none" xmlns="http://www.w3.org/2000/svg">
<g clip-path="url(#clip0_314_166)">
<path d="M26.3293 3.36841H7.66945C5.33205 3.36841 3.40002 5.24241 3.40002 7.51534V18.8819C3.40002 21.1555 5.32938 23.0295 7.66945 23.0295H17.1894L22.0919 27.5144C22.3015 27.6937 22.5719 27.7916 22.8512 27.7894C23.0037 27.7885 23.1544 27.7571 23.294 27.6973C23.4912 27.6142 23.6591 27.4769 23.7771 27.3023C23.895 27.1277 23.9578 26.9234 23.9578 26.7146V23.0295H26.3299C28.6673 23.0295 30.6 21.1555 30.6 18.8819V7.51534C30.6 5.245 28.67 3.36841 26.3299 3.36841H26.3293Z" fill="#2F88FF"/>
<path d="M28.0785 0.842163H5.91997C3.14229 0.842163 0.849976 3.1307 0.849976 5.90569V19.7835C0.849976 22.5592 3.14083 25.2027 5.91997 25.2027H16.5753L22.9756 30.8209C23.2228 31.0397 23.5443 31.1599 23.8769 31.1579C24.0581 31.1567 24.2371 31.1186 24.4025 31.0458C24.8908 30.8209 25.4763 30.3704 25.4763 29.8452L25.6897 25.1316H28.2218C30.9995 25.1316 33.15 22.3595 33.15 19.7835V5.90569C33.15 3.1307 30.8591 0.842163 28.0793 0.842163H28.0785Z" stroke="black" stroke-width="2" stroke-miterlimit="10"/>
<path d="M26.0957 17.6842H9.60427C9.30893 17.6761 9.02812 17.5394 8.82181 17.3034C8.61549 17.0674 8.5 16.7507 8.5 16.421C8.5 16.0913 8.61549 15.7746 8.82181 15.5386C9.02812 15.3026 9.30893 15.1659 9.60427 15.1578H26.0957C26.3911 15.1659 26.6719 15.3026 26.8782 15.5386C27.0845 15.7746 27.2 16.0913 27.2 16.421C27.2 16.7507 27.0845 17.0674 26.8782 17.3034C26.6719 17.5394 26.3911 17.6761 26.0957 17.6842Z" fill="black"/>
<path d="M26.0719 13.4737H9.62811C9.32892 13.4737 9.04198 13.3406 8.83042 13.1037C8.61885 12.8668 8.5 12.5456 8.5 12.2105C8.5 11.8755 8.61885 11.5542 8.83042 11.3174C9.04198 11.0805 9.32892 10.9474 9.62811 10.9474H26.0719C26.3711 10.9474 26.658 11.0805 26.8696 11.3174C27.0811 11.5542 27.2 11.8755 27.2 12.2105C27.2 12.5456 27.0811 12.8668 26.8696 13.1037C26.658 13.3406 26.3711 13.4737 26.0719 13.4737Z" fill="black"/>
<path d="M26.0957 9.26313H9.60427C9.30893 9.25503 9.02812 9.1184 8.82181 8.88239C8.61549 8.64639 8.5 8.32971 8.5 7.99997C8.5 7.67023 8.61549 7.35356 8.82181 7.11755C9.02812 6.88155 9.30893 6.74491 9.60427 6.73682H26.0957C26.3911 6.74491 26.6719 6.88155 26.8782 7.11755C27.0845 7.35356 27.2 7.67023 27.2 7.99997C27.2 8.32971 27.0845 8.64639 26.8782 8.88239C26.6719 9.1184 26.3911 9.25503 26.0957 9.26313Z" fill="black"/>
</g>
<defs>
<clipPath id="clip0_314_166">
<rect width="34" height="32" fill="white"/>
</clipPath>
</defs>
</svg>
