<svg width="27" height="27" viewBox="0 0 27 27" fill="none" xmlns="http://www.w3.org/2000/svg">
<path d="M13.815 27C21.0969 27 27 21.0969 27 13.815C27 6.53312 21.0969 0.630005 13.815 0.630005C6.53312 0.630005 0.630005 6.53312 0.630005 13.815C0.630005 21.0969 6.53312 27 13.815 27ZM12.8732 9.10608C12.8732 8.8563 12.9724 8.61675 13.1491 8.44013C13.3257 8.26351 13.5652 8.16429 13.815 8.16429C14.0648 8.16429 14.3043 8.26351 14.4809 8.44013C14.6576 8.61675 14.7568 8.8563 14.7568 9.10608V12.8732H18.5239C18.7737 12.8732 19.0133 12.9724 19.1899 13.1491C19.3665 13.3257 19.4657 13.5652 19.4657 13.815C19.4657 14.0648 19.3665 14.3043 19.1899 14.4809C19.0133 14.6576 18.7737 14.7568 18.5239 14.7568H14.7568V18.5239C14.7568 18.7737 14.6576 19.0133 14.4809 19.1899C14.3043 19.3665 14.0648 19.4657 13.815 19.4657C13.5652 19.4657 13.3257 19.3665 13.1491 19.1899C12.9724 19.0133 12.8732 18.7737 12.8732 18.5239V14.7568H9.10608C8.8563 14.7568 8.61675 14.6576 8.44013 14.4809C8.26351 14.3043 8.16429 14.0648 8.16429 13.815C8.16429 13.5652 8.26351 13.3257 8.44013 13.1491C8.61675 12.9724 8.8563 12.8732 9.10608 12.8732H12.8732V9.10608Z" fill="white"/>
</svg>
