<svg width="43" height="42" viewBox="0 0 43 42" fill="none" xmlns="http://www.w3.org/2000/svg">
<path d="M34 24C33.4696 24 32.9609 24.2108 32.5858 24.5858C32.2107 24.9609 32 25.4696 32 26V26.76L29.04 23.8C27.9948 22.7631 26.5823 22.1813 25.11 22.1813C23.6377 22.1813 22.2252 22.7631 21.18 23.8L19.78 25.2L14.82 20.24C13.7602 19.2312 12.3531 18.6686 10.89 18.6686C9.42687 18.6686 8.01976 19.2312 6.96 20.24L4 23.2V12C4 11.4696 4.21071 10.9609 4.58579 10.5858C4.96086 10.2108 5.46957 10 6 10H20C20.5304 10 21.0391 9.78932 21.4142 9.41425C21.7893 9.03918 22 8.53047 22 8.00004C22 7.4696 21.7893 6.9609 21.4142 6.58582C21.0391 6.21075 20.5304 6.00004 20 6.00004H6C4.4087 6.00004 2.88258 6.63218 1.75736 7.7574C0.632141 8.88261 0 10.4087 0 12V36C0 37.5913 0.632141 39.1175 1.75736 40.2427C2.88258 41.3679 4.4087 42 6 42H30C31.5913 42 33.1174 41.3679 34.2426 40.2427C35.3679 39.1175 36 37.5913 36 36V26C36 25.4696 35.7893 24.9609 35.4142 24.5858C35.0391 24.2108 34.5304 24 34 24ZM6 38C5.46957 38 4.96086 37.7893 4.58579 37.4143C4.21071 37.0392 4 36.5305 4 36V28.86L9.8 23.06C10.0938 22.78 10.4841 22.6238 10.89 22.6238C11.2959 22.6238 11.6862 22.78 11.98 23.06L18.32 29.4L26.92 38H6ZM32 36C31.9971 36.3829 31.8709 36.7546 31.64 37.06L22.62 28L24.02 26.6C24.1634 26.4537 24.3345 26.3374 24.5234 26.2581C24.7123 26.1787 24.9151 26.1378 25.12 26.1378C25.3249 26.1378 25.5277 26.1787 25.7166 26.2581C25.9055 26.3374 26.0766 26.4537 26.22 26.6L32 32.42V36ZM41.42 6.58004L35.42 0.580037C35.2298 0.397955 35.0055 0.255226 34.76 0.160037C34.2731 -0.0399992 33.7269 -0.0399992 33.24 0.160037C32.9945 0.255226 32.7702 0.397955 32.58 0.580037L26.58 6.58004C26.2034 6.95664 25.9918 7.46743 25.9918 8.00004C25.9918 8.53264 26.2034 9.04343 26.58 9.42004C26.9566 9.79664 27.4674 10.0082 28 10.0082C28.5326 10.0082 29.0434 9.79664 29.42 9.42004L32 6.82004V18C32 18.5305 32.2107 19.0392 32.5858 19.4142C32.9609 19.7893 33.4696 20 34 20C34.5304 20 35.0391 19.7893 35.4142 19.4142C35.7893 19.0392 36 18.5305 36 18V6.82004L38.58 9.42004C38.7659 9.60749 38.9871 9.75628 39.2308 9.85782C39.4746 9.95936 39.736 10.0116 40 10.0116C40.264 10.0116 40.5254 9.95936 40.7692 9.85782C41.0129 9.75628 41.2341 9.60749 41.42 9.42004C41.6075 9.23411 41.7562 9.01291 41.8578 8.76919C41.9593 8.52547 42.0116 8.26406 42.0116 8.00004C42.0116 7.73601 41.9593 7.4746 41.8578 7.23088C41.7562 6.98716 41.6075 6.76596 41.42 6.58004Z" fill="#222F7E"/>
</svg>
