<svg width="198" height="94" viewBox="0 0 198 94" fill="none" xmlns="http://www.w3.org/2000/svg">
<g filter="url(#filter0_d_610_1217)">
<path d="M49.3561 21.5026H60.9801V52.3652C60.9801 55.3904 60.2756 58.0322 58.8666 60.2907C57.4784 62.5285 55.5928 64.269 53.21 65.5122C50.8272 66.7554 48.1543 67.377 45.1913 67.377C42.1455 67.377 39.4311 66.859 37.0483 65.823C34.6655 64.787 32.7903 63.2019 31.4228 61.0677C30.0553 58.9128 29.3715 56.1674 29.3715 52.8315H41.0887C41.0887 54.9449 41.441 56.3332 42.1455 56.9962C42.85 57.6592 43.8652 57.9908 45.1913 57.9908C46.103 57.9908 46.8697 57.7628 47.4913 57.307C48.1129 56.8512 48.5791 56.2088 48.8899 55.38C49.2007 54.5305 49.3561 53.5256 49.3561 52.3652V21.5026ZM76.5512 66.7554H64.0259L80.6227 21.5026H88.5171L87.1496 32.4118L76.5512 66.7554ZM85.0983 32.4118L83.5753 21.5026H91.563L108.253 66.7554H95.7277L85.0983 32.4118ZM95.6034 59.1718H72.3865V49.7545H95.6034V59.1718ZM123.607 66.7554H111.983V21.5026H123.607V66.7554ZM135.666 66.7554L135.728 57.3692H145.642C147.611 57.3692 149.268 56.9133 150.615 56.0016C151.962 55.0899 152.988 53.7121 153.692 51.868C154.397 50.0239 154.749 47.7032 154.749 44.906V43.3209C154.749 40.5444 154.397 38.2445 153.692 36.4211C153.008 34.577 151.972 33.1991 150.584 32.2875C149.217 31.3758 147.507 30.9199 145.456 30.9199H135.479V21.5026H145.456C149.6 21.5026 153.257 22.435 156.427 24.2998C159.618 26.1647 162.115 28.7443 163.918 32.0388C165.72 35.3126 166.622 39.094 166.622 43.3831V44.906C166.622 49.1744 165.72 52.9558 163.918 56.2503C162.115 59.5448 159.639 62.1244 156.489 63.9892C153.34 65.8333 149.724 66.7554 145.642 66.7554H135.666ZM142.41 66.7554H130.724V21.5026H142.41V66.7554Z" fill="#222F7E"/>
<circle cx="12.2464" cy="47.2657" r="10.9402" fill="#1CB6EA"/>
<circle cx="185.06" cy="47.5804" r="10.9402" fill="#1CB6EA"/>
</g>
<defs>
<filter id="filter0_d_610_1217" x="0.0470388" y="21.5027" width="197.212" height="48.3925" filterUnits="userSpaceOnUse" color-interpolation-filters="sRGB">
<feFlood flood-opacity="0" result="BackgroundImageFix"/>
<feColorMatrix in="SourceAlpha" type="matrix" values="0 0 0 0 0 0 0 0 0 0 0 0 0 0 0 0 0 0 127 0" result="hardAlpha"/>
<feOffset dy="1.25911"/>
<feGaussianBlur stdDeviation="0.629557"/>
<feComposite in2="hardAlpha" operator="out"/>
<feColorMatrix type="matrix" values="0 0 0 0 0 0 0 0 0 0 0 0 0 0 0 0 0 0 0.25 0"/>
<feBlend mode="normal" in2="BackgroundImageFix" result="effect1_dropShadow_610_1217"/>
<feBlend mode="normal" in="SourceGraphic" in2="effect1_dropShadow_610_1217" result="shape"/>
</filter>
</defs>
</svg>
