<svg width="156" height="88" viewBox="0 0 156 88" fill="none" xmlns="http://www.w3.org/2000/svg">
<path d="M59.7754 20.3438H70.7324V49.4355C70.7324 52.2871 70.0684 54.7773 68.7402 56.9062C67.4316 59.0156 65.6543 60.6562 63.4082 61.8281C61.1621 63 58.6426 63.5859 55.8496 63.5859C52.9785 63.5859 50.4199 63.0977 48.1738 62.1211C45.9277 61.1445 44.1602 59.6504 42.8711 57.6387C41.582 55.6074 40.9375 53.0195 40.9375 49.875H51.9824C51.9824 51.8672 52.3145 53.1758 52.9785 53.8008C53.6426 54.4258 54.5996 54.7383 55.8496 54.7383C56.709 54.7383 57.4316 54.5234 58.0176 54.0938C58.6035 53.6641 59.043 53.0586 59.3359 52.2773C59.6289 51.4766 59.7754 50.5293 59.7754 49.4355V20.3438ZM105.537 45.7148H84.1797V36.8672H105.537V45.7148ZM87.8418 63H76.8262V20.3438H87.8418V63ZM112.92 63H101.963V20.3438H112.92V63Z" fill="#222F7E"/>
<circle cx="16.5" cy="44.5" r="16.5" fill="#1CB6EA"/>
<circle cx="139.5" cy="44.5" r="16.5" fill="#1CB6EA"/>
</svg>
