<svg width="195" height="88" viewBox="0 0 195 88" fill="none" xmlns="http://www.w3.org/2000/svg">
<path d="M72.666 63H50.1367V54.1523H72.666V63ZM54.0332 63H43.0176V20.3438H54.0332V63ZM69.7656 45.3926H50.1367V36.8672H69.7656V45.3926ZM72.7539 29.2207H50.1367V20.3438H72.7539V29.2207ZM105.244 45.7148H83.8867V36.8672H105.244V45.7148ZM87.5488 63H76.5332V20.3438H87.5488V63ZM112.627 63H101.67V20.3438H112.627V63ZM135.801 20.3438C139.141 20.3438 142.031 20.8418 144.473 21.8379C146.914 22.8145 148.799 24.2598 150.127 26.1738C151.455 28.0879 152.119 30.4609 152.119 33.293C152.119 35.832 151.738 37.9316 150.977 39.5918C150.234 41.2324 149.189 42.5801 147.842 43.6348C146.514 44.6699 144.951 45.5586 143.154 46.3008L139.551 48.498H125.635L125.576 39.6211H135.684C136.895 39.6211 137.9 39.4258 138.701 39.0352C139.521 38.6445 140.127 38.0684 140.518 37.3066C140.928 36.5254 141.133 35.5684 141.133 34.4355C141.133 32.7949 140.684 31.5156 139.785 30.5977C138.887 29.6797 137.559 29.2207 135.801 29.2207H129.736V63H118.75V20.3438H135.801ZM132.49 44.2207L144.15 44.1328L153.525 62.5312V63H141.748L132.49 44.2207Z" fill="#222F7E"/>
<circle cx="16.5" cy="44.5" r="16.5" fill="#1CB6EA"/>
<circle cx="178.5" cy="44.5" r="16.5" fill="#1CB6EA"/>
</svg>
