<svg width="77" height="77" viewBox="0 0 77 77" fill="none" xmlns="http://www.w3.org/2000/svg">
<path d="M38.75 16.5C36.0305 16.5 33.3721 17.3064 31.1109 18.8173C28.8497 20.3282 27.0874 22.4756 26.0467 24.9881C25.006 27.5006 24.7337 30.2653 25.2642 32.9325C25.7948 35.5997 27.1043 38.0497 29.0273 39.9727C30.9503 41.8957 33.4003 43.2053 36.0675 43.7358C38.7348 44.2663 41.4994 43.9941 44.0119 42.9533C46.5244 41.9126 48.6718 40.1503 50.1827 37.8891C51.6936 35.6279 52.5 32.9695 52.5 30.25C52.5 26.6033 51.0514 23.1059 48.4727 20.5273C45.8941 17.9487 42.3967 16.5 38.75 16.5Z" fill="#222F7E"/>
<path d="M38.5 0C30.8854 0 23.4419 2.25799 17.1106 6.48842C10.7793 10.7189 5.84463 16.7317 2.93066 23.7667C0.0166814 30.8016 -0.745747 38.5427 0.739784 46.011C2.22531 53.4792 5.89208 60.3393 11.2764 65.7236C16.6607 71.1079 23.5208 74.7747 30.989 76.2602C38.4573 77.7458 46.1984 76.9833 53.2333 74.0694C60.2683 71.1554 66.2812 66.2207 70.5116 59.8895C74.742 53.5582 77 46.1146 77 38.5C76.9884 28.2927 72.9284 18.5069 65.7108 11.2893C58.4931 4.07162 48.7073 0.0116455 38.5 0ZM60.478 63.0465C60.4232 59.4394 58.9536 55.9982 56.3858 53.4644C53.818 50.9305 50.3575 49.5068 46.75 49.5H30.25C26.6425 49.5068 23.1821 50.9305 20.6143 53.4644C18.0465 55.9982 16.5768 59.4394 16.522 63.0465C11.5351 58.5936 8.01827 52.7309 6.43731 46.2348C4.85635 39.7388 5.28579 32.9157 7.66877 26.6691C10.0518 20.4225 14.2759 15.0471 19.7818 11.2546C25.2877 7.46203 31.8157 5.43132 38.5014 5.43132C45.1871 5.43132 51.7151 7.46203 57.221 11.2546C62.7269 15.0471 66.951 20.4225 69.334 26.6691C71.717 32.9157 72.1464 39.7388 70.5655 46.2348C68.9845 52.7309 65.4677 58.5936 60.4808 63.0465H60.478Z" fill="#222F7E"/>
</svg>
