<svg width="260" height="141" viewBox="0 0 260 141" fill="none" xmlns="http://www.w3.org/2000/svg">
<path d="M90.2656 101H54.2188V86.8438H90.2656V101ZM60.4531 101H42.8281V32.75H60.4531V101ZM85.625 72.8281H54.2188V59.1875H85.625V72.8281ZM90.4062 46.9531H54.2188V32.75H90.4062V46.9531ZM142.391 73.3438H108.219V59.1875H142.391V73.3438ZM114.078 101H96.4531V32.75H114.078V101ZM154.203 101H136.672V32.75H154.203V101ZM191.281 32.75C196.625 32.75 201.25 33.5469 205.156 35.1406C209.062 36.7031 212.078 39.0156 214.203 42.0781C216.328 45.1406 217.391 48.9375 217.391 53.4688C217.391 57.5312 216.781 60.8906 215.562 63.5469C214.375 66.1719 212.703 68.3281 210.547 70.0156C208.422 71.6719 205.922 73.0938 203.047 74.2812L197.281 77.7969H175.016L174.922 63.5938H191.094C193.031 63.5938 194.641 63.2812 195.922 62.6562C197.234 62.0312 198.203 61.1094 198.828 59.8906C199.484 58.6406 199.812 57.1094 199.812 55.2969C199.812 52.6719 199.094 50.625 197.656 49.1562C196.219 47.6875 194.094 46.9531 191.281 46.9531H181.578V101H164V32.75H191.281ZM185.984 70.9531L204.641 70.8125L219.641 100.25V101H200.797L185.984 70.9531Z" fill="white"/>
<circle cx="16.5" cy="69.5" r="16.5" fill="#1CB6EA"/>
<circle cx="243.5" cy="70.5" r="16.5" fill="#1CB6EA"/>
</svg>
