<svg width="290" height="137" viewBox="0 0 290 137" fill="none" xmlns="http://www.w3.org/2000/svg">
<g filter="url(#filter0_d_610_1213)">
<path d="M72.4129 31.6862H89.4469V76.9126C89.4469 81.3456 88.4145 85.217 86.3498 88.5266C84.3154 91.8059 81.5523 94.3564 78.0605 96.1782C74.5687 98 70.6519 98.9109 66.3099 98.9109C61.8465 98.9109 57.8688 98.1518 54.377 96.6336C50.8852 95.1155 48.1373 92.7927 46.1334 89.6652C44.1294 86.5074 43.1274 82.4843 43.1274 77.5957H60.2979C60.2979 80.6928 60.8141 82.7272 61.8465 83.6988C62.8788 84.6704 64.3666 85.1562 66.3099 85.1562C67.6459 85.1562 68.7693 84.8223 69.6802 84.1543C70.5911 83.4863 71.2743 82.545 71.7298 81.3305C72.1852 80.0855 72.4129 78.6129 72.4129 76.9126V31.6862ZM112.265 98H93.9103L118.231 31.6862H129.8L127.796 47.6725L112.265 98ZM124.79 47.6725L122.558 31.6862H134.263L158.721 98H140.366L124.79 47.6725ZM140.184 86.887H106.162V73.0868H140.184V86.887ZM181.22 98H164.187V31.6862H181.22V98ZM198.892 98L198.983 84.2453H213.512C216.397 84.2453 218.826 83.5773 220.799 82.2414C222.773 80.9054 224.276 78.8862 225.308 76.1838C226.341 73.4815 226.857 70.0808 226.857 65.9817V63.6589C226.857 59.5902 226.341 56.2199 225.308 53.5479C224.306 50.8455 222.788 48.8264 220.754 47.4904C218.75 46.1544 216.245 45.4864 213.239 45.4864H198.619V31.6862H213.239C219.311 31.6862 224.671 33.0525 229.316 35.7852C233.992 38.518 237.651 42.2982 240.293 47.126C242.934 51.9234 244.255 57.4648 244.255 63.75V65.9817C244.255 72.2366 242.934 77.7779 240.293 82.6057C237.651 87.4335 234.023 91.2138 229.407 93.9465C224.792 96.6488 219.494 98 213.512 98H198.892ZM208.775 98H191.65V31.6862H208.775V98Z" fill="white"/>
<circle cx="18.0319" cy="68.1565" r="16.0319" fill="#1CB6EA"/>
<circle cx="271.274" cy="68.6177" r="16.0319" fill="#1CB6EA"/>
</g>
<defs>
<filter id="filter0_d_610_1213" x="0.154882" y="31.6862" width="288.996" height="70.915" filterUnits="userSpaceOnUse" color-interpolation-filters="sRGB">
<feFlood flood-opacity="0" result="BackgroundImageFix"/>
<feColorMatrix in="SourceAlpha" type="matrix" values="0 0 0 0 0 0 0 0 0 0 0 0 0 0 0 0 0 0 127 0" result="hardAlpha"/>
<feOffset dy="1.84512"/>
<feGaussianBlur stdDeviation="0.922559"/>
<feComposite in2="hardAlpha" operator="out"/>
<feColorMatrix type="matrix" values="0 0 0 0 0 0 0 0 0 0 0 0 0 0 0 0 0 0 0.25 0"/>
<feBlend mode="normal" in2="BackgroundImageFix" result="effect1_dropShadow_610_1213"/>
<feBlend mode="normal" in="SourceGraphic" in2="effect1_dropShadow_610_1213" result="shape"/>
</filter>
</defs>
</svg>
