<svg width="204" height="141" viewBox="0 0 204 141" fill="none" xmlns="http://www.w3.org/2000/svg">
<path d="M72.6406 32.75H90.1719V79.2969C90.1719 83.8594 89.1094 87.8438 86.9844 91.25C84.8906 94.625 82.0469 97.25 78.4531 99.125C74.8594 101 70.8281 101.938 66.3594 101.938C61.7656 101.938 57.6719 101.156 54.0781 99.5938C50.4844 98.0312 47.6562 95.6406 45.5938 92.4219C43.5312 89.1719 42.5 85.0312 42.5 80H60.1719C60.1719 83.1875 60.7031 85.2812 61.7656 86.2812C62.8281 87.2812 64.3594 87.7812 66.3594 87.7812C67.7344 87.7812 68.8906 87.4375 69.8281 86.75C70.7656 86.0625 71.4688 85.0938 71.9375 83.8438C72.4062 82.5625 72.6406 81.0469 72.6406 79.2969V32.75ZM145.859 73.3438H111.688V59.1875H145.859V73.3438ZM117.547 101H99.9219V32.75H117.547V101ZM157.672 101H140.141V32.75H157.672V101Z" fill="white"/>
<circle cx="16.5" cy="71.5" r="16.5" fill="#1CB6EA"/>
<circle cx="187.5" cy="71.5" r="16.5" fill="#1CB6EA"/>
</svg>
